<svg width="205" height="563" viewBox="0 0 205 563" fill="none" xmlns="http://www.w3.org/2000/svg">
<rect y="406" width="72.9988" height="157" fill="#060A0C"/>
<line x1="64.9977" y1="407" x2="203" y2="407" stroke="#060A0C" stroke-width="2"/>
<line x1="203" y1="408" x2="203" y2="1.52588e-05" stroke="#060A0C" stroke-width="2"/>
<line x1="52.9991" y1="562" x2="102.999" y2="562" stroke="#060A0C" stroke-width="2"/>
<rect x="3" y="411" width="67.9988" height="43" fill="black"/>
<rect x="3" y="461" width="67.9988" height="43" fill="black"/>
<rect x="3" y="511" width="67.9988" height="43" fill="black"/>
<path d="M12.7614 440V425.455H17.8466C18.8598 425.455 19.6955 425.63 20.3537 425.98C21.0118 426.326 21.5019 426.792 21.8239 427.379C22.1458 427.962 22.3068 428.608 22.3068 429.318C22.3068 429.943 22.1955 430.459 21.973 430.866C21.7552 431.274 21.4664 431.596 21.1065 431.832C20.7514 432.069 20.3655 432.244 19.9489 432.358V432.5C20.3939 432.528 20.8414 432.685 21.2912 432.969C21.741 433.253 22.1174 433.66 22.4205 434.19C22.7235 434.721 22.875 435.369 22.875 436.136C22.875 436.866 22.7093 437.521 22.3778 438.104C22.0464 438.686 21.5232 439.148 20.8082 439.489C20.0933 439.83 19.1629 440 18.017 440H12.7614ZM14.5227 438.437H18.017C19.1676 438.437 19.9844 438.215 20.4673 437.77C20.955 437.32 21.1989 436.776 21.1989 436.136C21.1989 435.644 21.0734 435.189 20.8224 434.773C20.5715 434.351 20.214 434.015 19.75 433.764C19.286 433.509 18.7367 433.381 18.1023 433.381H14.5227V438.437ZM14.5227 431.847H17.7898C18.3201 431.847 18.7983 431.742 19.2244 431.534C19.6553 431.326 19.9962 431.032 20.2472 430.653C20.5028 430.275 20.6307 429.83 20.6307 429.318C20.6307 428.679 20.4081 428.137 19.9631 427.692C19.518 427.242 18.8125 427.017 17.8466 427.017H14.5227V431.847ZM28.7521 440.256C28.0608 440.256 27.4335 440.125 26.87 439.865C26.3066 439.6 25.8591 439.219 25.5277 438.722C25.1963 438.22 25.0305 437.614 25.0305 436.903C25.0305 436.278 25.1536 435.772 25.3999 435.384C25.6461 434.991 25.9751 434.683 26.3871 434.46C26.799 434.238 27.2536 434.072 27.7507 433.963C28.2526 433.849 28.7569 433.759 29.2635 433.693C29.9264 433.608 30.4638 433.544 30.8757 433.501C31.2924 433.454 31.5954 433.376 31.7848 433.267C31.9789 433.158 32.076 432.969 32.076 432.699V432.642C32.076 431.941 31.8842 431.397 31.5007 431.009C31.1219 430.62 30.5466 430.426 29.7749 430.426C28.9747 430.426 28.3473 430.601 27.8928 430.952C27.4382 431.302 27.1186 431.676 26.9339 432.074L25.343 431.506C25.6271 430.843 26.0059 430.327 26.4794 429.957C26.9576 429.583 27.4785 429.323 28.0419 429.176C28.6101 429.025 29.1688 428.949 29.718 428.949C30.0684 428.949 30.4709 428.991 30.9254 429.077C31.3847 429.157 31.8274 429.325 32.2536 429.581C32.6844 429.837 33.0419 430.223 33.326 430.739C33.6101 431.255 33.7521 431.946 33.7521 432.812V440H32.076V438.523H31.9908C31.8771 438.759 31.6877 439.013 31.4226 439.283C31.1574 439.553 30.8047 439.782 30.3643 439.972C29.924 440.161 29.3866 440.256 28.7521 440.256ZM29.0078 438.75C29.6707 438.75 30.2294 438.62 30.6839 438.359C31.1432 438.099 31.4889 437.763 31.7209 437.351C31.9576 436.939 32.076 436.506 32.076 436.051V434.517C32.005 434.602 31.8487 434.68 31.6072 434.751C31.3705 434.818 31.0959 434.877 30.7834 434.929C30.4756 434.976 30.175 435.019 29.8814 435.057C29.5926 435.09 29.3582 435.118 29.1783 435.142C28.7427 435.199 28.3355 435.291 27.9567 435.419C27.5826 435.542 27.2796 435.729 27.0476 435.98C26.8203 436.226 26.7067 436.562 26.7067 436.989C26.7067 437.571 26.9221 438.011 27.353 438.31C27.7886 438.603 28.3402 438.75 29.0078 438.75ZM38.4876 425.455V440H36.8114V425.455H38.4876ZM43.2337 425.455V440H41.5575V425.455H43.2337ZM57.0138 425.455V440H55.2525V427.301H55.1673L51.6161 429.659V427.869L55.2525 425.455H57.0138Z" fill="white"/>
<path d="M12.7614 490V475.455H17.8466C18.8598 475.455 19.6955 475.63 20.3537 475.98C21.0118 476.326 21.5019 476.792 21.8239 477.379C22.1458 477.962 22.3068 478.608 22.3068 479.318C22.3068 479.943 22.1955 480.459 21.973 480.866C21.7552 481.274 21.4664 481.596 21.1065 481.832C20.7514 482.069 20.3655 482.244 19.9489 482.358V482.5C20.3939 482.528 20.8414 482.685 21.2912 482.969C21.741 483.253 22.1174 483.66 22.4205 484.19C22.7235 484.721 22.875 485.369 22.875 486.136C22.875 486.866 22.7093 487.521 22.3778 488.104C22.0464 488.686 21.5232 489.148 20.8082 489.489C20.0933 489.83 19.1629 490 18.017 490H12.7614ZM14.5227 488.438H18.017C19.1676 488.438 19.9844 488.215 20.4673 487.77C20.955 487.32 21.1989 486.776 21.1989 486.136C21.1989 485.644 21.0734 485.189 20.8224 484.773C20.5715 484.351 20.214 484.015 19.75 483.764C19.286 483.509 18.7367 483.381 18.1023 483.381H14.5227V488.438ZM14.5227 481.847H17.7898C18.3201 481.847 18.7983 481.742 19.2244 481.534C19.6553 481.326 19.9962 481.032 20.2472 480.653C20.5028 480.275 20.6307 479.83 20.6307 479.318C20.6307 478.679 20.4081 478.137 19.9631 477.692C19.518 477.242 18.8125 477.017 17.8466 477.017H14.5227V481.847ZM28.7521 490.256C28.0608 490.256 27.4335 490.125 26.87 489.865C26.3066 489.6 25.8591 489.219 25.5277 488.722C25.1963 488.22 25.0305 487.614 25.0305 486.903C25.0305 486.278 25.1536 485.772 25.3999 485.384C25.6461 484.991 25.9751 484.683 26.3871 484.46C26.799 484.238 27.2536 484.072 27.7507 483.963C28.2526 483.849 28.7569 483.759 29.2635 483.693C29.9264 483.608 30.4638 483.544 30.8757 483.501C31.2924 483.454 31.5954 483.376 31.7848 483.267C31.9789 483.158 32.076 482.969 32.076 482.699V482.642C32.076 481.941 31.8842 481.397 31.5007 481.009C31.1219 480.62 30.5466 480.426 29.7749 480.426C28.9747 480.426 28.3473 480.601 27.8928 480.952C27.4382 481.302 27.1186 481.676 26.9339 482.074L25.343 481.506C25.6271 480.843 26.0059 480.327 26.4794 479.957C26.9576 479.583 27.4785 479.323 28.0419 479.176C28.6101 479.025 29.1688 478.949 29.718 478.949C30.0684 478.949 30.4709 478.991 30.9254 479.077C31.3847 479.157 31.8274 479.325 32.2536 479.581C32.6844 479.837 33.0419 480.223 33.326 480.739C33.6101 481.255 33.7521 481.946 33.7521 482.812V490H32.076V488.523H31.9908C31.8771 488.759 31.6877 489.013 31.4226 489.283C31.1574 489.553 30.8047 489.782 30.3643 489.972C29.924 490.161 29.3866 490.256 28.7521 490.256ZM29.0078 488.75C29.6707 488.75 30.2294 488.62 30.6839 488.359C31.1432 488.099 31.4889 487.763 31.7209 487.351C31.9576 486.939 32.076 486.506 32.076 486.051V484.517C32.005 484.602 31.8487 484.68 31.6072 484.751C31.3705 484.818 31.0959 484.877 30.7834 484.929C30.4756 484.976 30.175 485.019 29.8814 485.057C29.5926 485.09 29.3582 485.118 29.1783 485.142C28.7427 485.199 28.3355 485.291 27.9567 485.419C27.5826 485.542 27.2796 485.729 27.0476 485.98C26.8203 486.226 26.7067 486.562 26.7067 486.989C26.7067 487.571 26.9221 488.011 27.353 488.31C27.7886 488.603 28.3402 488.75 29.0078 488.75ZM38.4876 475.455V490H36.8114V475.455H38.4876ZM43.2337 475.455V490H41.5575V475.455H43.2337ZM51.9002 490V488.722L56.7013 483.466C57.2648 482.85 57.7288 482.315 58.0934 481.861C58.458 481.402 58.7279 480.971 58.9031 480.568C59.083 480.161 59.1729 479.735 59.1729 479.29C59.1729 478.778 59.0498 478.336 58.8036 477.962C58.5621 477.588 58.2307 477.299 57.8093 477.095C57.3879 476.892 56.9144 476.79 56.3888 476.79C55.8301 476.79 55.3424 476.906 54.9258 477.138C54.5138 477.365 54.1942 477.685 53.967 478.097C53.7444 478.509 53.6332 478.991 53.6332 479.545H51.957C51.957 478.693 52.1535 477.945 52.5465 477.301C52.9395 476.657 53.4746 476.155 54.1516 475.795C54.8335 475.436 55.5981 475.256 56.4457 475.256C57.2979 475.256 58.0531 475.436 58.7113 475.795C59.3694 476.155 59.8855 476.641 60.2596 477.251C60.6336 477.862 60.8207 478.542 60.8207 479.29C60.8207 479.825 60.7236 480.348 60.5295 480.859C60.3401 481.366 60.0086 481.932 59.5352 482.557C59.0664 483.177 58.4154 483.935 57.582 484.83L54.315 488.324V488.438H61.0763V490H51.9002Z" fill="white"/>
<path d="M12.7614 540V525.455H17.8466C18.8598 525.455 19.6955 525.63 20.3537 525.98C21.0118 526.326 21.5019 526.792 21.8239 527.379C22.1458 527.962 22.3068 528.608 22.3068 529.318C22.3068 529.943 22.1955 530.459 21.973 530.867C21.7552 531.274 21.4664 531.596 21.1065 531.833C20.7514 532.069 20.3655 532.244 19.9489 532.358V532.5C20.3939 532.529 20.8414 532.685 21.2912 532.969C21.741 533.253 22.1174 533.66 22.4205 534.19C22.7235 534.721 22.875 535.369 22.875 536.136C22.875 536.866 22.7093 537.521 22.3778 538.104C22.0464 538.686 21.5232 539.148 20.8082 539.489C20.0933 539.83 19.1629 540 18.017 540H12.7614ZM14.5227 538.438H18.017C19.1676 538.438 19.9844 538.215 20.4673 537.77C20.955 537.32 21.1989 536.776 21.1989 536.136C21.1989 535.644 21.0734 535.19 20.8224 534.773C20.5715 534.351 20.214 534.015 19.75 533.764C19.286 533.509 18.7367 533.381 18.1023 533.381H14.5227V538.438ZM14.5227 531.847H17.7898C18.3201 531.847 18.7983 531.743 19.2244 531.534C19.6553 531.326 19.9962 531.032 20.2472 530.654C20.5028 530.275 20.6307 529.83 20.6307 529.318C20.6307 528.679 20.4081 528.137 19.9631 527.692C19.518 527.242 18.8125 527.017 17.8466 527.017H14.5227V531.847ZM28.7521 540.256C28.0608 540.256 27.4335 540.126 26.87 539.865C26.3066 539.6 25.8591 539.219 25.5277 538.722C25.1963 538.22 25.0305 537.614 25.0305 536.904C25.0305 536.279 25.1536 535.772 25.3999 535.384C25.6461 534.991 25.9751 534.683 26.3871 534.46C26.799 534.238 27.2536 534.072 27.7507 533.963C28.2526 533.85 28.7569 533.76 29.2635 533.693C29.9264 533.608 30.4638 533.544 30.8757 533.502C31.2924 533.454 31.5954 533.376 31.7848 533.267C31.9789 533.158 32.076 532.969 32.076 532.699V532.642C32.076 531.941 31.8842 531.397 31.5007 531.009C31.1219 530.62 30.5466 530.426 29.7749 530.426C28.9747 530.426 28.3473 530.601 27.8928 530.952C27.4382 531.302 27.1186 531.676 26.9339 532.074L25.343 531.506C25.6271 530.843 26.0059 530.327 26.4794 529.958C26.9576 529.583 27.4785 529.323 28.0419 529.176C28.6101 529.025 29.1688 528.949 29.718 528.949C30.0684 528.949 30.4709 528.992 30.9254 529.077C31.3847 529.157 31.8274 529.325 32.2536 529.581C32.6844 529.837 33.0419 530.223 33.326 530.739C33.6101 531.255 33.7521 531.946 33.7521 532.813V540H32.076V538.523H31.9908C31.8771 538.76 31.6877 539.013 31.4226 539.283C31.1574 539.553 30.8047 539.782 30.3643 539.972C29.924 540.161 29.3866 540.256 28.7521 540.256ZM29.0078 538.75C29.6707 538.75 30.2294 538.62 30.6839 538.359C31.1432 538.099 31.4889 537.763 31.7209 537.351C31.9576 536.939 32.076 536.506 32.076 536.051V534.517C32.005 534.602 31.8487 534.681 31.6072 534.752C31.3705 534.818 31.0959 534.877 30.7834 534.929C30.4756 534.976 30.175 535.019 29.8814 535.057C29.5926 535.09 29.3582 535.118 29.1783 535.142C28.7427 535.199 28.3355 535.291 27.9567 535.419C27.5826 535.542 27.2796 535.729 27.0476 535.98C26.8203 536.226 26.7067 536.563 26.7067 536.989C26.7067 537.571 26.9221 538.011 27.353 538.31C27.7886 538.603 28.3402 538.75 29.0078 538.75ZM38.4876 525.455V540H36.8114V525.455H38.4876ZM43.2337 525.455V540H41.5575V525.455H43.2337ZM56.815 540.199C55.8775 540.199 55.0418 540.038 54.3079 539.716C53.5787 539.394 52.9987 538.947 52.5678 538.374C52.1417 537.796 51.9097 537.126 51.8718 536.364H53.6616C53.6995 536.833 53.8604 537.237 54.1445 537.578C54.4286 537.914 54.8003 538.175 55.2596 538.359C55.7189 538.544 56.2279 538.636 56.7866 538.636C57.4116 538.636 57.9656 538.528 58.4485 538.31C58.9315 538.092 59.3103 537.789 59.5849 537.401C59.8595 537.012 59.9968 536.563 59.9968 536.051C59.9968 535.516 59.8642 535.045 59.5991 534.638C59.3339 534.226 58.9457 533.904 58.4343 533.672C57.9229 533.44 57.2979 533.324 56.5593 533.324H55.3945V531.761H56.5593C57.137 531.761 57.6436 531.657 58.0792 531.449C58.5195 531.241 58.8628 530.947 59.109 530.568C59.36 530.19 59.4854 529.744 59.4854 529.233C59.4854 528.741 59.3765 528.312 59.1587 527.948C58.9409 527.583 58.6332 527.299 58.2354 527.095C57.8424 526.892 57.3784 526.79 56.8434 526.79C56.3415 526.79 55.868 526.882 55.4229 527.067C54.9826 527.247 54.6228 527.51 54.3434 527.855C54.064 528.196 53.9125 528.608 53.8888 529.091H52.1843C52.2127 528.329 52.4424 527.661 52.8732 527.088C53.3041 526.511 53.8675 526.061 54.5636 525.739C55.2643 525.417 56.0337 525.256 56.8718 525.256C57.7714 525.256 58.5432 525.438 59.1871 525.803C59.8311 526.163 60.3259 526.638 60.6715 527.23C61.0172 527.822 61.19 528.461 61.19 529.148C61.19 529.967 60.9746 530.665 60.5437 531.243C60.1175 531.821 59.5375 532.221 58.8036 532.443V532.557C59.7222 532.708 60.4395 533.099 60.9556 533.729C61.4717 534.354 61.7298 535.128 61.7298 536.051C61.7298 536.842 61.5143 537.552 61.0835 538.182C60.6573 538.807 60.0749 539.299 59.3363 539.659C58.5977 540.019 57.7572 540.199 56.815 540.199Z" fill="white"/>
<line x1="72.9999" y1="561.5" x2="103.071" y2="561.571" stroke="#57556B"/>
<line x1="73.4987" y1="562" x2="73.4987" y2="558" stroke="#57556B"/>
<line x1="1.99998" y1="408.5" x2="73.9988" y2="408.5" stroke="#57556B"/>
<line x1="1.99998" y1="457.5" x2="73.9988" y2="457.5" stroke="#57556B"/>
<line x1="2.5" y1="458" x2="2.50002" y2="408" stroke="#57556B"/>
<line x1="73.5" y1="558" x2="73.5" y2="458" stroke="#57556B"/>
<line x1="73" y1="408.5" x2="205" y2="408.5" stroke="#57556B"/>
<line x1="204.5" y1="408" x2="204.5" y2="2" stroke="#57556B"/>
</svg>
