<svg width="412" height="412" viewBox="0 0 412 412" fill="none" xmlns="http://www.w3.org/2000/svg">
<rect y="255" width="72.9988" height="157" fill="#060A0C"/>
<line x1="52.9991" y1="411" x2="102.999" y2="411" stroke="#060A0C" stroke-width="2"/>
<rect x="3" y="260" width="67.9988" height="43" fill="black"/>
<rect x="3" y="310" width="67.9988" height="43" fill="black"/>
<rect x="3" y="360" width="67.9988" height="43" fill="black"/>
<path d="M12.7614 289V274.455H17.8466C18.8598 274.455 19.6955 274.63 20.3537 274.98C21.0118 275.326 21.5019 275.792 21.8239 276.379C22.1458 276.962 22.3068 277.608 22.3068 278.318C22.3068 278.943 22.1955 279.459 21.973 279.866C21.7552 280.274 21.4664 280.596 21.1065 280.832C20.7514 281.069 20.3655 281.244 19.9489 281.358V281.5C20.3939 281.528 20.8414 281.685 21.2912 281.969C21.741 282.253 22.1174 282.66 22.4205 283.19C22.7235 283.721 22.875 284.369 22.875 285.136C22.875 285.866 22.7093 286.521 22.3778 287.104C22.0464 287.686 21.5232 288.148 20.8082 288.489C20.0933 288.83 19.1629 289 18.017 289H12.7614ZM14.5227 287.438H18.017C19.1676 287.438 19.9844 287.215 20.4673 286.77C20.955 286.32 21.1989 285.776 21.1989 285.136C21.1989 284.644 21.0734 284.189 20.8224 283.773C20.5715 283.351 20.214 283.015 19.75 282.764C19.286 282.509 18.7367 282.381 18.1023 282.381H14.5227V287.438ZM14.5227 280.847H17.7898C18.3201 280.847 18.7983 280.742 19.2244 280.534C19.6553 280.326 19.9962 280.032 20.2472 279.653C20.5028 279.275 20.6307 278.83 20.6307 278.318C20.6307 277.679 20.4081 277.137 19.9631 276.692C19.518 276.242 18.8125 276.017 17.8466 276.017H14.5227V280.847ZM28.7521 289.256C28.0608 289.256 27.4335 289.125 26.87 288.865C26.3066 288.6 25.8591 288.219 25.5277 287.722C25.1963 287.22 25.0305 286.614 25.0305 285.903C25.0305 285.278 25.1536 284.772 25.3999 284.384C25.6461 283.991 25.9751 283.683 26.3871 283.46C26.799 283.238 27.2536 283.072 27.7507 282.963C28.2526 282.849 28.7569 282.759 29.2635 282.693C29.9264 282.608 30.4638 282.544 30.8757 282.501C31.2924 282.454 31.5954 282.376 31.7848 282.267C31.9789 282.158 32.076 281.969 32.076 281.699V281.642C32.076 280.941 31.8842 280.397 31.5007 280.009C31.1219 279.62 30.5466 279.426 29.7749 279.426C28.9747 279.426 28.3473 279.601 27.8928 279.952C27.4382 280.302 27.1186 280.676 26.9339 281.074L25.343 280.506C25.6271 279.843 26.0059 279.327 26.4794 278.957C26.9576 278.583 27.4785 278.323 28.0419 278.176C28.6101 278.025 29.1688 277.949 29.718 277.949C30.0684 277.949 30.4709 277.991 30.9254 278.077C31.3847 278.157 31.8274 278.325 32.2536 278.581C32.6844 278.837 33.0419 279.223 33.326 279.739C33.6101 280.255 33.7521 280.946 33.7521 281.812V289H32.076V287.523H31.9908C31.8771 287.759 31.6877 288.013 31.4226 288.283C31.1574 288.553 30.8047 288.782 30.3643 288.972C29.924 289.161 29.3866 289.256 28.7521 289.256ZM29.0078 287.75C29.6707 287.75 30.2294 287.62 30.6839 287.359C31.1432 287.099 31.4889 286.763 31.7209 286.351C31.9576 285.939 32.076 285.506 32.076 285.051V283.517C32.005 283.602 31.8487 283.68 31.6072 283.751C31.3705 283.818 31.0959 283.877 30.7834 283.929C30.4756 283.976 30.175 284.019 29.8814 284.057C29.5926 284.09 29.3582 284.118 29.1783 284.142C28.7427 284.199 28.3355 284.291 27.9567 284.419C27.5826 284.542 27.2796 284.729 27.0476 284.98C26.8203 285.226 26.7067 285.562 26.7067 285.989C26.7067 286.571 26.9221 287.011 27.353 287.31C27.7886 287.603 28.3402 287.75 29.0078 287.75ZM38.4876 274.455V289H36.8114V274.455H38.4876ZM43.2337 274.455V289H41.5575V274.455H43.2337ZM57.0138 274.455V289H55.2525V276.301H55.1673L51.6161 278.659V276.869L55.2525 274.455H57.0138Z" fill="white"/>
<path d="M12.7614 339V324.455H17.8466C18.8598 324.455 19.6955 324.63 20.3537 324.98C21.0118 325.326 21.5019 325.792 21.8239 326.379C22.1458 326.962 22.3068 327.608 22.3068 328.318C22.3068 328.943 22.1955 329.459 21.973 329.866C21.7552 330.274 21.4664 330.596 21.1065 330.832C20.7514 331.069 20.3655 331.244 19.9489 331.358V331.5C20.3939 331.528 20.8414 331.685 21.2912 331.969C21.741 332.253 22.1174 332.66 22.4205 333.19C22.7235 333.721 22.875 334.369 22.875 335.136C22.875 335.866 22.7093 336.521 22.3778 337.104C22.0464 337.686 21.5232 338.148 20.8082 338.489C20.0933 338.83 19.1629 339 18.017 339H12.7614ZM14.5227 337.438H18.017C19.1676 337.438 19.9844 337.215 20.4673 336.77C20.955 336.32 21.1989 335.776 21.1989 335.136C21.1989 334.644 21.0734 334.189 20.8224 333.773C20.5715 333.351 20.214 333.015 19.75 332.764C19.286 332.509 18.7367 332.381 18.1023 332.381H14.5227V337.438ZM14.5227 330.847H17.7898C18.3201 330.847 18.7983 330.742 19.2244 330.534C19.6553 330.326 19.9962 330.032 20.2472 329.653C20.5028 329.275 20.6307 328.83 20.6307 328.318C20.6307 327.679 20.4081 327.137 19.9631 326.692C19.518 326.242 18.8125 326.017 17.8466 326.017H14.5227V330.847ZM28.7521 339.256C28.0608 339.256 27.4335 339.125 26.87 338.865C26.3066 338.6 25.8591 338.219 25.5277 337.722C25.1963 337.22 25.0305 336.614 25.0305 335.903C25.0305 335.278 25.1536 334.772 25.3999 334.384C25.6461 333.991 25.9751 333.683 26.3871 333.46C26.799 333.238 27.2536 333.072 27.7507 332.963C28.2526 332.849 28.7569 332.759 29.2635 332.693C29.9264 332.608 30.4638 332.544 30.8757 332.501C31.2924 332.454 31.5954 332.376 31.7848 332.267C31.9789 332.158 32.076 331.969 32.076 331.699V331.642C32.076 330.941 31.8842 330.397 31.5007 330.009C31.1219 329.62 30.5466 329.426 29.7749 329.426C28.9747 329.426 28.3473 329.601 27.8928 329.952C27.4382 330.302 27.1186 330.676 26.9339 331.074L25.343 330.506C25.6271 329.843 26.0059 329.327 26.4794 328.957C26.9576 328.583 27.4785 328.323 28.0419 328.176C28.6101 328.025 29.1688 327.949 29.718 327.949C30.0684 327.949 30.4709 327.991 30.9254 328.077C31.3847 328.157 31.8274 328.325 32.2536 328.581C32.6844 328.837 33.0419 329.223 33.326 329.739C33.6101 330.255 33.7521 330.946 33.7521 331.812V339H32.076V337.523H31.9908C31.8771 337.759 31.6877 338.013 31.4226 338.283C31.1574 338.553 30.8047 338.782 30.3643 338.972C29.924 339.161 29.3866 339.256 28.7521 339.256ZM29.0078 337.75C29.6707 337.75 30.2294 337.62 30.6839 337.359C31.1432 337.099 31.4889 336.763 31.7209 336.351C31.9576 335.939 32.076 335.506 32.076 335.051V333.517C32.005 333.602 31.8487 333.68 31.6072 333.751C31.3705 333.818 31.0959 333.877 30.7834 333.929C30.4756 333.976 30.175 334.019 29.8814 334.057C29.5926 334.09 29.3582 334.118 29.1783 334.142C28.7427 334.199 28.3355 334.291 27.9567 334.419C27.5826 334.542 27.2796 334.729 27.0476 334.98C26.8203 335.226 26.7067 335.562 26.7067 335.989C26.7067 336.571 26.9221 337.011 27.353 337.31C27.7886 337.603 28.3402 337.75 29.0078 337.75ZM38.4876 324.455V339H36.8114V324.455H38.4876ZM43.2337 324.455V339H41.5575V324.455H43.2337ZM51.9002 339V337.722L56.7013 332.466C57.2648 331.85 57.7288 331.315 58.0934 330.861C58.458 330.402 58.7279 329.971 58.9031 329.568C59.083 329.161 59.1729 328.735 59.1729 328.29C59.1729 327.778 59.0498 327.336 58.8036 326.962C58.5621 326.588 58.2307 326.299 57.8093 326.095C57.3879 325.892 56.9144 325.79 56.3888 325.79C55.8301 325.79 55.3424 325.906 54.9258 326.138C54.5138 326.365 54.1942 326.685 53.967 327.097C53.7444 327.509 53.6332 327.991 53.6332 328.545H51.957C51.957 327.693 52.1535 326.945 52.5465 326.301C52.9395 325.657 53.4746 325.155 54.1516 324.795C54.8335 324.436 55.5981 324.256 56.4457 324.256C57.2979 324.256 58.0531 324.436 58.7113 324.795C59.3694 325.155 59.8855 325.641 60.2596 326.251C60.6336 326.862 60.8207 327.542 60.8207 328.29C60.8207 328.825 60.7236 329.348 60.5295 329.859C60.3401 330.366 60.0086 330.932 59.5352 331.557C59.0664 332.177 58.4154 332.935 57.582 333.83L54.315 337.324V337.438H61.0763V339H51.9002Z" fill="white"/>
<path d="M12.7614 389V374.455H17.8466C18.8598 374.455 19.6955 374.63 20.3537 374.98C21.0118 375.326 21.5019 375.792 21.8239 376.379C22.1458 376.962 22.3068 377.608 22.3068 378.318C22.3068 378.943 22.1955 379.459 21.973 379.867C21.7552 380.274 21.4664 380.596 21.1065 380.833C20.7514 381.069 20.3655 381.244 19.9489 381.358V381.5C20.3939 381.529 20.8414 381.685 21.2912 381.969C21.741 382.253 22.1174 382.66 22.4205 383.19C22.7235 383.721 22.875 384.369 22.875 385.137C22.875 385.866 22.7093 386.521 22.3778 387.104C22.0464 387.686 21.5232 388.148 20.8082 388.489C20.0933 388.83 19.1629 389 18.017 389H12.7614ZM14.5227 387.438H18.017C19.1676 387.438 19.9844 387.215 20.4673 386.77C20.955 386.32 21.1989 385.776 21.1989 385.137C21.1989 384.644 21.0734 384.19 20.8224 383.773C20.5715 383.351 20.214 383.015 19.75 382.764C19.286 382.509 18.7367 382.381 18.1023 382.381H14.5227V387.438ZM14.5227 380.847H17.7898C18.3201 380.847 18.7983 380.743 19.2244 380.534C19.6553 380.326 19.9962 380.032 20.2472 379.654C20.5028 379.275 20.6307 378.83 20.6307 378.318C20.6307 377.679 20.4081 377.137 19.9631 376.692C19.518 376.242 18.8125 376.017 17.8466 376.017H14.5227V380.847ZM28.7521 389.256C28.0608 389.256 27.4335 389.126 26.87 388.865C26.3066 388.6 25.8591 388.219 25.5277 387.722C25.1963 387.22 25.0305 386.614 25.0305 385.904C25.0305 385.279 25.1536 384.772 25.3999 384.384C25.6461 383.991 25.9751 383.683 26.3871 383.46C26.799 383.238 27.2536 383.072 27.7507 382.963C28.2526 382.85 28.7569 382.76 29.2635 382.693C29.9264 382.608 30.4638 382.544 30.8757 382.502C31.2924 382.454 31.5954 382.376 31.7848 382.267C31.9789 382.158 32.076 381.969 32.076 381.699V381.642C32.076 380.941 31.8842 380.397 31.5007 380.009C31.1219 379.62 30.5466 379.426 29.7749 379.426C28.9747 379.426 28.3473 379.601 27.8928 379.952C27.4382 380.302 27.1186 380.676 26.9339 381.074L25.343 380.506C25.6271 379.843 26.0059 379.327 26.4794 378.958C26.9576 378.583 27.4785 378.323 28.0419 378.176C28.6101 378.025 29.1688 377.949 29.718 377.949C30.0684 377.949 30.4709 377.992 30.9254 378.077C31.3847 378.157 31.8274 378.325 32.2536 378.581C32.6844 378.837 33.0419 379.223 33.326 379.739C33.6101 380.255 33.7521 380.946 33.7521 381.813V389H32.076V387.523H31.9908C31.8771 387.76 31.6877 388.013 31.4226 388.283C31.1574 388.553 30.8047 388.782 30.3643 388.972C29.924 389.161 29.3866 389.256 28.7521 389.256ZM29.0078 387.75C29.6707 387.75 30.2294 387.62 30.6839 387.36C31.1432 387.099 31.4889 386.763 31.7209 386.351C31.9576 385.939 32.076 385.506 32.076 385.051V383.517C32.005 383.602 31.8487 383.681 31.6072 383.752C31.3705 383.818 31.0959 383.877 30.7834 383.929C30.4756 383.976 30.175 384.019 29.8814 384.057C29.5926 384.09 29.3582 384.119 29.1783 384.142C28.7427 384.199 28.3355 384.291 27.9567 384.419C27.5826 384.542 27.2796 384.729 27.0476 384.98C26.8203 385.226 26.7067 385.563 26.7067 385.989C26.7067 386.571 26.9221 387.012 27.353 387.31C27.7886 387.603 28.3402 387.75 29.0078 387.75ZM38.4876 374.455V389H36.8114V374.455H38.4876ZM43.2337 374.455V389H41.5575V374.455H43.2337ZM56.815 389.199C55.8775 389.199 55.0418 389.038 54.3079 388.716C53.5787 388.394 52.9987 387.947 52.5678 387.374C52.1417 386.796 51.9097 386.126 51.8718 385.364H53.6616C53.6995 385.833 53.8604 386.237 54.1445 386.578C54.4286 386.914 54.8003 387.175 55.2596 387.36C55.7189 387.544 56.2279 387.637 56.7866 387.637C57.4116 387.637 57.9656 387.528 58.4485 387.31C58.9315 387.092 59.3103 386.789 59.5849 386.401C59.8595 386.012 59.9968 385.563 59.9968 385.051C59.9968 384.516 59.8642 384.045 59.5991 383.638C59.3339 383.226 58.9457 382.904 58.4343 382.672C57.9229 382.44 57.2979 382.324 56.5593 382.324H55.3945V380.762H56.5593C57.137 380.762 57.6436 380.657 58.0792 380.449C58.5195 380.241 58.8628 379.947 59.109 379.568C59.36 379.19 59.4854 378.744 59.4854 378.233C59.4854 377.741 59.3765 377.312 59.1587 376.948C58.9409 376.583 58.6332 376.299 58.2354 376.095C57.8424 375.892 57.3784 375.79 56.8434 375.79C56.3415 375.79 55.868 375.882 55.4229 376.067C54.9826 376.247 54.6228 376.51 54.3434 376.855C54.064 377.196 53.9125 377.608 53.8888 378.091H52.1843C52.2127 377.329 52.4424 376.661 52.8732 376.088C53.3041 375.511 53.8675 375.061 54.5636 374.739C55.2643 374.417 56.0337 374.256 56.8718 374.256C57.7714 374.256 58.5432 374.438 59.1871 374.803C59.8311 375.163 60.3259 375.638 60.6715 376.23C61.0172 376.822 61.19 377.461 61.19 378.148C61.19 378.967 60.9746 379.665 60.5437 380.243C60.1175 380.821 59.5375 381.221 58.8036 381.443V381.557C59.7222 381.708 60.4395 382.099 60.9556 382.729C61.4717 383.354 61.7298 384.128 61.7298 385.051C61.7298 385.842 61.5143 386.552 61.0835 387.182C60.6573 387.807 60.0749 388.299 59.3363 388.659C58.5977 389.019 57.7572 389.199 56.815 389.199Z" fill="white"/>
<line x1="72.9999" y1="410.5" x2="103.071" y2="410.571" stroke="#57556B"/>
<line x1="73.4987" y1="411" x2="73.4987" y2="407" stroke="#57556B"/>
<line x1="1.99998" y1="356.5" x2="73.9988" y2="356.5" stroke="#57556B"/>
<line x1="1.99998" y1="406.5" x2="73.9988" y2="406.5" stroke="#57556B"/>
<line x1="2.5" y1="407" x2="2.50002" y2="357" stroke="#57556B"/>
<line x1="73.4987" y1="357" x2="73.4988" y2="258" stroke="#57556B"/>
<line x1="72" y1="257.5" x2="190" y2="257.5" stroke="#57556B"/>
<line x1="204.5" y1="240" x2="204.5" y2="3" stroke="#57556B"/>
<line x1="203" y1="240" x2="203" y2="2" stroke="#060A0C" stroke-width="2"/>
<line x1="189.5" y1="257" x2="189.5" y2="241" stroke="#57556B"/>
<line x1="64.9977" y1="256" x2="186.998" y2="256" stroke="#060A0C" stroke-width="2"/>
<line x1="188" y1="257" x2="188" y2="238" stroke="#060A0C" stroke-width="2"/>
<line x1="187" y1="239" x2="204" y2="239" stroke="#060A0C" stroke-width="2"/>
<line x1="205" y1="240.5" x2="189" y2="240.5" stroke="#57556B"/>
<line x1="202" y1="1.00002" x2="412" y2="1.00002" stroke="#060A0C" stroke-width="2"/>
<line x1="408.001" y1="2.5" x2="203.999" y2="2.5" stroke="#57556B"/>
</svg>
