<svg width="413" height="157" viewBox="0 0 413 157" fill="none" xmlns="http://www.w3.org/2000/svg">
<rect width="73" height="157" fill="#060A0C"/>
<line x1="65" y1="1" x2="413.007" y2="1" stroke="#060A0C" stroke-width="2"/>
<line x1="53" y1="156" x2="103" y2="156" stroke="#060A0C" stroke-width="2"/>
<rect x="3" y="5" width="68" height="43" fill="black"/>
<rect x="3" y="55" width="68" height="43" fill="black"/>
<rect x="3" y="105" width="68" height="43" fill="black"/>
<path d="M12.7614 34V19.4545H17.8466C18.8598 19.4545 19.6955 19.6297 20.3537 19.9801C21.0118 20.3258 21.5019 20.7921 21.8239 21.3793C22.1458 21.9616 22.3068 22.608 22.3068 23.3182C22.3068 23.9432 22.1955 24.4593 21.973 24.8665C21.7552 25.2737 21.4664 25.5956 21.1065 25.8324C20.7514 26.0691 20.3655 26.2443 19.9489 26.358V26.5C20.3939 26.5284 20.8414 26.6847 21.2912 26.9688C21.741 27.2528 22.1174 27.66 22.4205 28.1903C22.7235 28.7206 22.875 29.3693 22.875 30.1364C22.875 30.8655 22.7093 31.5213 22.3778 32.1037C22.0464 32.6861 21.5232 33.1477 20.8082 33.4886C20.0933 33.8295 19.1629 34 18.017 34H12.7614ZM14.5227 32.4375H18.017C19.1676 32.4375 19.9844 32.215 20.4673 31.7699C20.955 31.3201 21.1989 30.7756 21.1989 30.1364C21.1989 29.6439 21.0734 29.1894 20.8224 28.7727C20.5715 28.3513 20.214 28.0152 19.75 27.7642C19.286 27.5085 18.7367 27.3807 18.1023 27.3807H14.5227V32.4375ZM14.5227 25.8466H17.7898C18.3201 25.8466 18.7983 25.7424 19.2244 25.5341C19.6553 25.3258 19.9962 25.0322 20.2472 24.6534C20.5028 24.2746 20.6307 23.8295 20.6307 23.3182C20.6307 22.679 20.4081 22.1368 19.9631 21.6918C19.518 21.242 18.8125 21.017 17.8466 21.017H14.5227V25.8466ZM28.7521 34.2557C28.0608 34.2557 27.4335 34.1255 26.87 33.8651C26.3066 33.5999 25.8591 33.2188 25.5277 32.7216C25.1963 32.2197 25.0305 31.6136 25.0305 30.9034C25.0305 30.2784 25.1536 29.7718 25.3999 29.3835C25.6461 28.9905 25.9751 28.6828 26.3871 28.4602C26.799 28.2377 27.2536 28.072 27.7507 27.9631C28.2526 27.8494 28.7569 27.7595 29.2635 27.6932C29.9264 27.608 30.4638 27.544 30.8757 27.5014C31.2924 27.4541 31.5954 27.3759 31.7848 27.267C31.9789 27.1581 32.076 26.9687 32.076 26.6989V26.642C32.076 25.9413 31.8842 25.3968 31.5007 25.0085C31.1219 24.6203 30.5466 24.4261 29.7749 24.4261C28.9747 24.4261 28.3473 24.6013 27.8928 24.9517C27.4382 25.3021 27.1186 25.6761 26.9339 26.0739L25.343 25.5057C25.6271 24.8428 26.0059 24.3267 26.4794 23.9574C26.9576 23.5833 27.4785 23.3229 28.0419 23.1761C28.6101 23.0246 29.1688 22.9489 29.718 22.9489C30.0684 22.9489 30.4709 22.9915 30.9254 23.0767C31.3847 23.1572 31.8274 23.3253 32.2536 23.581C32.6844 23.8366 33.0419 24.2225 33.326 24.7386C33.6101 25.2547 33.7521 25.946 33.7521 26.8125V34H32.076V32.5227H31.9908C31.8771 32.7595 31.6877 33.0128 31.4226 33.2827C31.1574 33.5526 30.8047 33.7822 30.3643 33.9716C29.924 34.161 29.3866 34.2557 28.7521 34.2557ZM29.0078 32.75C29.6707 32.75 30.2294 32.6198 30.6839 32.3594C31.1432 32.099 31.4889 31.7628 31.7209 31.3509C31.9576 30.9389 32.076 30.5057 32.076 30.0511V28.517C32.005 28.6023 31.8487 28.6804 31.6072 28.7514C31.3705 28.8177 31.0959 28.8769 30.7834 28.929C30.4756 28.9763 30.175 29.0189 29.8814 29.0568C29.5926 29.09 29.3582 29.1184 29.1783 29.142C28.7427 29.1989 28.3355 29.2912 27.9567 29.419C27.5826 29.5421 27.2796 29.7292 27.0476 29.9801C26.8203 30.2263 26.7067 30.5625 26.7067 30.9886C26.7067 31.571 26.9221 32.0114 27.353 32.3097C27.7886 32.6032 28.3402 32.75 29.0078 32.75ZM38.4876 19.4545V34H36.8114V19.4545H38.4876ZM43.2337 19.4545V34H41.5575V19.4545H43.2337ZM57.0138 19.4545V34H55.2525V21.3011H55.1673L51.6161 23.6591V21.8693L55.2525 19.4545H57.0138Z" fill="white"/>
<path d="M12.7614 84V69.4545H17.8466C18.8598 69.4545 19.6955 69.6297 20.3537 69.9801C21.0118 70.3258 21.5019 70.7921 21.8239 71.3793C22.1458 71.9616 22.3068 72.608 22.3068 73.3182C22.3068 73.9432 22.1955 74.4593 21.973 74.8665C21.7552 75.2737 21.4664 75.5956 21.1065 75.8324C20.7514 76.0691 20.3655 76.2443 19.9489 76.358V76.5C20.3939 76.5284 20.8414 76.6847 21.2912 76.9688C21.741 77.2528 22.1174 77.66 22.4205 78.1903C22.7235 78.7206 22.875 79.3693 22.875 80.1364C22.875 80.8655 22.7093 81.5213 22.3778 82.1037C22.0464 82.6861 21.5232 83.1477 20.8082 83.4886C20.0933 83.8295 19.1629 84 18.017 84H12.7614ZM14.5227 82.4375H18.017C19.1676 82.4375 19.9844 82.215 20.4673 81.7699C20.955 81.3201 21.1989 80.7756 21.1989 80.1364C21.1989 79.6439 21.0734 79.1894 20.8224 78.7727C20.5715 78.3513 20.214 78.0152 19.75 77.7642C19.286 77.5085 18.7367 77.3807 18.1023 77.3807H14.5227V82.4375ZM14.5227 75.8466H17.7898C18.3201 75.8466 18.7983 75.7424 19.2244 75.5341C19.6553 75.3258 19.9962 75.0322 20.2472 74.6534C20.5028 74.2746 20.6307 73.8295 20.6307 73.3182C20.6307 72.679 20.4081 72.1368 19.9631 71.6918C19.518 71.242 18.8125 71.017 17.8466 71.017H14.5227V75.8466ZM28.7521 84.2557C28.0608 84.2557 27.4335 84.1255 26.87 83.8651C26.3066 83.5999 25.8591 83.2188 25.5277 82.7216C25.1963 82.2197 25.0305 81.6136 25.0305 80.9034C25.0305 80.2784 25.1536 79.7718 25.3999 79.3835C25.6461 78.9905 25.9751 78.6828 26.3871 78.4602C26.799 78.2377 27.2536 78.072 27.7507 77.9631C28.2526 77.8494 28.7569 77.7595 29.2635 77.6932C29.9264 77.608 30.4638 77.544 30.8757 77.5014C31.2924 77.4541 31.5954 77.3759 31.7848 77.267C31.9789 77.1581 32.076 76.9687 32.076 76.6989V76.642C32.076 75.9413 31.8842 75.3968 31.5007 75.0085C31.1219 74.6203 30.5466 74.4261 29.7749 74.4261C28.9747 74.4261 28.3473 74.6013 27.8928 74.9517C27.4382 75.3021 27.1186 75.6761 26.9339 76.0739L25.343 75.5057C25.6271 74.8428 26.0059 74.3267 26.4794 73.9574C26.9576 73.5833 27.4785 73.3229 28.0419 73.1761C28.6101 73.0246 29.1688 72.9489 29.718 72.9489C30.0684 72.9489 30.4709 72.9915 30.9254 73.0767C31.3847 73.1572 31.8274 73.3253 32.2536 73.581C32.6844 73.8366 33.0419 74.2225 33.326 74.7386C33.6101 75.2547 33.7521 75.946 33.7521 76.8125V84H32.076V82.5227H31.9908C31.8771 82.7595 31.6877 83.0128 31.4226 83.2827C31.1574 83.5526 30.8047 83.7822 30.3643 83.9716C29.924 84.161 29.3866 84.2557 28.7521 84.2557ZM29.0078 82.75C29.6707 82.75 30.2294 82.6198 30.6839 82.3594C31.1432 82.099 31.4889 81.7628 31.7209 81.3509C31.9576 80.9389 32.076 80.5057 32.076 80.0511V78.517C32.005 78.6023 31.8487 78.6804 31.6072 78.7514C31.3705 78.8177 31.0959 78.8769 30.7834 78.929C30.4756 78.9763 30.175 79.0189 29.8814 79.0568C29.5926 79.09 29.3582 79.1184 29.1783 79.142C28.7427 79.1989 28.3355 79.2912 27.9567 79.419C27.5826 79.5421 27.2796 79.7292 27.0476 79.9801C26.8203 80.2263 26.7067 80.5625 26.7067 80.9886C26.7067 81.571 26.9221 82.0114 27.353 82.3097C27.7886 82.6032 28.3402 82.75 29.0078 82.75ZM38.4876 69.4545V84H36.8114V69.4545H38.4876ZM43.2337 69.4545V84H41.5575V69.4545H43.2337ZM51.9002 84V82.7216L56.7013 77.4659C57.2648 76.8504 57.7288 76.3153 58.0934 75.8608C58.458 75.4015 58.7279 74.9706 58.9031 74.5682C59.083 74.161 59.1729 73.7348 59.1729 73.2898C59.1729 72.7784 59.0498 72.3357 58.8036 71.9616C58.5621 71.5876 58.2307 71.2988 57.8093 71.0952C57.3879 70.8916 56.9144 70.7898 56.3888 70.7898C55.8301 70.7898 55.3424 70.9058 54.9258 71.1378C54.5138 71.3651 54.1942 71.6847 53.967 72.0966C53.7444 72.5085 53.6332 72.9915 53.6332 73.5455H51.957C51.957 72.6932 52.1535 71.9451 52.5465 71.3011C52.9395 70.6572 53.4746 70.1553 54.1516 69.7955C54.8335 69.4356 55.5981 69.2557 56.4457 69.2557C57.2979 69.2557 58.0531 69.4356 58.7113 69.7955C59.3694 70.1553 59.8855 70.6406 60.2596 71.2514C60.6336 71.8622 60.8207 72.5417 60.8207 73.2898C60.8207 73.8248 60.7236 74.348 60.5295 74.8594C60.3401 75.366 60.0086 75.9318 59.5352 76.5568C59.0664 77.1771 58.4154 77.9347 57.582 78.8295L54.315 82.3239V82.4375H61.0763V84H51.9002Z" fill="white"/>
<path d="M12.7614 134V119.455H17.8466C18.8598 119.455 19.6955 119.63 20.3537 119.98C21.0118 120.326 21.5019 120.792 21.8239 121.379C22.1458 121.962 22.3068 122.608 22.3068 123.318C22.3068 123.943 22.1955 124.459 21.973 124.866C21.7552 125.274 21.4664 125.596 21.1065 125.832C20.7514 126.069 20.3655 126.244 19.9489 126.358V126.5C20.3939 126.528 20.8414 126.685 21.2912 126.969C21.741 127.253 22.1174 127.66 22.4205 128.19C22.7235 128.721 22.875 129.369 22.875 130.136C22.875 130.866 22.7093 131.521 22.3778 132.104C22.0464 132.686 21.5232 133.148 20.8082 133.489C20.0933 133.83 19.1629 134 18.017 134H12.7614ZM14.5227 132.438H18.017C19.1676 132.438 19.9844 132.215 20.4673 131.77C20.955 131.32 21.1989 130.776 21.1989 130.136C21.1989 129.644 21.0734 129.189 20.8224 128.773C20.5715 128.351 20.214 128.015 19.75 127.764C19.286 127.509 18.7367 127.381 18.1023 127.381H14.5227V132.438ZM14.5227 125.847H17.7898C18.3201 125.847 18.7983 125.742 19.2244 125.534C19.6553 125.326 19.9962 125.032 20.2472 124.653C20.5028 124.275 20.6307 123.83 20.6307 123.318C20.6307 122.679 20.4081 122.137 19.9631 121.692C19.518 121.242 18.8125 121.017 17.8466 121.017H14.5227V125.847ZM28.7521 134.256C28.0608 134.256 27.4335 134.125 26.87 133.865C26.3066 133.6 25.8591 133.219 25.5277 132.722C25.1963 132.22 25.0305 131.614 25.0305 130.903C25.0305 130.278 25.1536 129.772 25.3999 129.384C25.6461 128.991 25.9751 128.683 26.3871 128.46C26.799 128.238 27.2536 128.072 27.7507 127.963C28.2526 127.849 28.7569 127.759 29.2635 127.693C29.9264 127.608 30.4638 127.544 30.8757 127.501C31.2924 127.454 31.5954 127.376 31.7848 127.267C31.9789 127.158 32.076 126.969 32.076 126.699V126.642C32.076 125.941 31.8842 125.397 31.5007 125.009C31.1219 124.62 30.5466 124.426 29.7749 124.426C28.9747 124.426 28.3473 124.601 27.8928 124.952C27.4382 125.302 27.1186 125.676 26.9339 126.074L25.343 125.506C25.6271 124.843 26.0059 124.327 26.4794 123.957C26.9576 123.583 27.4785 123.323 28.0419 123.176C28.6101 123.025 29.1688 122.949 29.718 122.949C30.0684 122.949 30.4709 122.991 30.9254 123.077C31.3847 123.157 31.8274 123.325 32.2536 123.581C32.6844 123.837 33.0419 124.223 33.326 124.739C33.6101 125.255 33.7521 125.946 33.7521 126.812V134H32.076V132.523H31.9908C31.8771 132.759 31.6877 133.013 31.4226 133.283C31.1574 133.553 30.8047 133.782 30.3643 133.972C29.924 134.161 29.3866 134.256 28.7521 134.256ZM29.0078 132.75C29.6707 132.75 30.2294 132.62 30.6839 132.359C31.1432 132.099 31.4889 131.763 31.7209 131.351C31.9576 130.939 32.076 130.506 32.076 130.051V128.517C32.005 128.602 31.8487 128.68 31.6072 128.751C31.3705 128.818 31.0959 128.877 30.7834 128.929C30.4756 128.976 30.175 129.019 29.8814 129.057C29.5926 129.09 29.3582 129.118 29.1783 129.142C28.7427 129.199 28.3355 129.291 27.9567 129.419C27.5826 129.542 27.2796 129.729 27.0476 129.98C26.8203 130.226 26.7067 130.562 26.7067 130.989C26.7067 131.571 26.9221 132.011 27.353 132.31C27.7886 132.603 28.3402 132.75 29.0078 132.75ZM38.4876 119.455V134H36.8114V119.455H38.4876ZM43.2337 119.455V134H41.5575V119.455H43.2337ZM56.815 134.199C55.8775 134.199 55.0418 134.038 54.3079 133.716C53.5787 133.394 52.9987 132.946 52.5678 132.374C52.1417 131.796 51.9097 131.126 51.8718 130.364H53.6616C53.6995 130.832 53.8604 131.237 54.1445 131.578C54.4286 131.914 54.8003 132.175 55.2596 132.359C55.7189 132.544 56.2279 132.636 56.7866 132.636C57.4116 132.636 57.9656 132.527 58.4485 132.31C58.9315 132.092 59.3103 131.789 59.5849 131.401C59.8595 131.012 59.9968 130.562 59.9968 130.051C59.9968 129.516 59.8642 129.045 59.5991 128.638C59.3339 128.226 58.9457 127.904 58.4343 127.672C57.9229 127.44 57.2979 127.324 56.5593 127.324H55.3945V125.761H56.5593C57.137 125.761 57.6436 125.657 58.0792 125.449C58.5195 125.241 58.8628 124.947 59.109 124.568C59.36 124.189 59.4854 123.744 59.4854 123.233C59.4854 122.741 59.3765 122.312 59.1587 121.947C58.9409 121.583 58.6332 121.299 58.2354 121.095C57.8424 120.892 57.3784 120.79 56.8434 120.79C56.3415 120.79 55.868 120.882 55.4229 121.067C54.9826 121.247 54.6228 121.509 54.3434 121.855C54.064 122.196 53.9125 122.608 53.8888 123.091H52.1843C52.2127 122.329 52.4424 121.661 52.8732 121.088C53.3041 120.51 53.8675 120.061 54.5636 119.739C55.2643 119.417 56.0337 119.256 56.8718 119.256C57.7714 119.256 58.5432 119.438 59.1871 119.803C59.8311 120.162 60.3259 120.638 60.6715 121.23C61.0172 121.822 61.19 122.461 61.19 123.148C61.19 123.967 60.9746 124.665 60.5437 125.243C60.1175 125.821 59.5375 126.221 58.8036 126.443V126.557C59.7222 126.708 60.4395 127.099 60.9556 127.729C61.4717 128.354 61.7298 129.128 61.7298 130.051C61.7298 130.842 61.5143 131.552 61.0835 132.182C60.6573 132.807 60.0749 133.299 59.3363 133.659C58.5977 134.019 57.7572 134.199 56.815 134.199Z" fill="white"/>
<line x1="73.0012" y1="155.5" x2="103.072" y2="155.571" stroke="#57556B"/>
<line x1="1.99998" y1="101.5" x2="74" y2="101.5" stroke="#57556B"/>
<line x1="1.99998" y1="51.5" x2="74" y2="51.5" stroke="#57556B"/>
<line x1="2.5" y1="102" x2="2.50002" y2="52" stroke="#57556B"/>
<line x1="73.5" y1="52" x2="73.5" y2="3" stroke="#57556B"/>
<line x1="73" y1="2.5" x2="412" y2="2.5" stroke="#57556B"/>
<line x1="73.5" y1="102" x2="73.5" y2="155" stroke="#57556B"/>
</svg>
