<svg width="836" height="654" viewBox="0 0 836 654" fill="none" xmlns="http://www.w3.org/2000/svg">
<g clip-path="url(#clip0_2_1194)">
<rect width="836" height="654" fill="white"/>
<rect x="407" y="10" width="421" height="398" fill="#D9D9D9"/>
<rect width="836" height="654" fill="black"/>
<rect x="7" y="10" width="821" height="634" fill="#687169"/>
<path d="M7 10H407V410H7V10Z" fill="#25483B"/>
<rect x="12" y="15" width="390" height="390" fill="#31604F"/>
<line x1="7" y1="409.001" x2="828" y2="408.999" stroke="#515562" stroke-width="2"/>
<path d="M14.8182 441V417.727H22.6818C24.5 417.727 25.9924 418.038 27.1591 418.659C28.3258 419.273 29.1894 420.117 29.75 421.193C30.3106 422.269 30.5909 423.492 30.5909 424.864C30.5909 426.235 30.3106 427.451 29.75 428.511C29.1894 429.572 28.3295 430.405 27.1705 431.011C26.0114 431.61 24.5303 431.909 22.7273 431.909H16.3636V429.364H22.6364C23.8788 429.364 24.8788 429.182 25.6364 428.818C26.4015 428.455 26.9545 427.939 27.2955 427.273C27.6439 426.598 27.8182 425.795 27.8182 424.864C27.8182 423.932 27.6439 423.117 27.2955 422.42C26.947 421.723 26.3902 421.186 25.625 420.807C24.8598 420.42 23.8485 420.227 22.5909 420.227H17.6364V441H14.8182ZM25.7727 430.545L31.5 441H28.2273L22.5909 430.545H25.7727ZM42.054 441.364C40.3722 441.364 38.9214 440.992 37.7017 440.25C36.4896 439.5 35.554 438.455 34.8949 437.114C34.2434 435.765 33.9176 434.197 33.9176 432.409C33.9176 430.621 34.2434 429.045 34.8949 427.682C35.554 426.311 36.4706 425.242 37.6449 424.477C38.8267 423.705 40.2055 423.318 41.7812 423.318C42.6903 423.318 43.5881 423.47 44.4744 423.773C45.3608 424.076 46.1676 424.568 46.8949 425.25C47.6222 425.924 48.2017 426.818 48.6335 427.932C49.0653 429.045 49.2812 430.417 49.2812 432.045V433.182H35.8267V430.864H46.554C46.554 429.879 46.357 429 45.9631 428.227C45.5767 427.455 45.0237 426.845 44.304 426.398C43.5919 425.951 42.7509 425.727 41.7812 425.727C40.7131 425.727 39.7888 425.992 39.0085 426.523C38.2358 427.045 37.6411 427.727 37.2244 428.568C36.8078 429.409 36.5994 430.311 36.5994 431.273V432.818C36.5994 434.136 36.8267 435.254 37.2812 436.17C37.7434 437.08 38.3835 437.773 39.2017 438.25C40.0199 438.72 40.9706 438.955 42.054 438.955C42.7585 438.955 43.3949 438.856 43.9631 438.659C44.5388 438.455 45.035 438.152 45.4517 437.75C45.8684 437.341 46.1903 436.833 46.4176 436.227L49.0085 436.955C48.7358 437.833 48.2775 438.606 47.6335 439.273C46.9896 439.932 46.1941 440.447 45.2472 440.818C44.3002 441.182 43.2358 441.364 42.054 441.364ZM60.4062 447.909C59.1108 447.909 57.9972 447.742 57.0653 447.409C56.1335 447.083 55.357 446.652 54.7358 446.114C54.1222 445.583 53.6335 445.015 53.2699 444.409L55.4062 442.909C55.6487 443.227 55.9555 443.591 56.3267 444C56.6979 444.417 57.2055 444.777 57.8494 445.08C58.5009 445.39 59.3532 445.545 60.4062 445.545C61.8153 445.545 62.9782 445.205 63.8949 444.523C64.8116 443.841 65.2699 442.773 65.2699 441.318V437.773H65.0426C64.8456 438.091 64.5653 438.485 64.2017 438.955C63.8456 439.417 63.3305 439.83 62.6562 440.193C61.9896 440.549 61.0881 440.727 59.9517 440.727C58.5426 440.727 57.2775 440.394 56.1562 439.727C55.0426 439.061 54.16 438.091 53.5085 436.818C52.8646 435.545 52.5426 434 52.5426 432.182C52.5426 430.394 52.857 428.837 53.4858 427.511C54.1146 426.178 54.9896 425.148 56.1108 424.42C57.232 423.686 58.5275 423.318 59.9972 423.318C61.1335 423.318 62.035 423.508 62.7017 423.886C63.3759 424.258 63.8911 424.682 64.2472 425.159C64.6108 425.629 64.8911 426.015 65.0881 426.318H65.3608V423.545H67.9517V441.5C67.9517 443 67.6108 444.22 66.929 445.159C66.2547 446.106 65.3456 446.799 64.2017 447.239C63.0653 447.686 61.8002 447.909 60.4062 447.909ZM60.3153 438.318C61.3911 438.318 62.3002 438.072 63.0426 437.58C63.785 437.087 64.3494 436.379 64.7358 435.455C65.1222 434.53 65.3153 433.424 65.3153 432.136C65.3153 430.879 65.1259 429.769 64.7472 428.807C64.3684 427.845 63.8078 427.091 63.0653 426.545C62.3229 426 61.4063 425.727 60.3153 425.727C59.179 425.727 58.232 426.015 57.4744 426.591C56.7244 427.167 56.16 427.939 55.7812 428.909C55.41 429.879 55.2244 430.955 55.2244 432.136C55.2244 433.348 55.4138 434.42 55.7926 435.352C56.179 436.277 56.7472 437.004 57.4972 437.534C58.2547 438.057 59.1941 438.318 60.3153 438.318ZM72.8608 441V423.545H75.5426V441H72.8608ZM74.2244 420.636C73.7017 420.636 73.2509 420.458 72.8722 420.102C72.5009 419.746 72.3153 419.318 72.3153 418.818C72.3153 418.318 72.5009 417.89 72.8722 417.534C73.2509 417.178 73.7017 417 74.2244 417C74.7472 417 75.1941 417.178 75.5653 417.534C75.9441 417.89 76.1335 418.318 76.1335 418.818C76.1335 419.318 75.9441 419.746 75.5653 420.102C75.1941 420.458 74.7472 420.636 74.2244 420.636ZM87.5455 441.364C85.9697 441.364 84.5871 440.989 83.3977 440.239C82.2159 439.489 81.2917 438.439 80.625 437.091C79.9659 435.742 79.6364 434.167 79.6364 432.364C79.6364 430.545 79.9659 428.958 80.625 427.602C81.2917 426.246 82.2159 425.193 83.3977 424.443C84.5871 423.693 85.9697 423.318 87.5455 423.318C89.1212 423.318 90.5 423.693 91.6818 424.443C92.8712 425.193 93.7955 426.246 94.4545 427.602C95.1212 428.958 95.4545 430.545 95.4545 432.364C95.4545 434.167 95.1212 435.742 94.4545 437.091C93.7955 438.439 92.8712 439.489 91.6818 440.239C90.5 440.989 89.1212 441.364 87.5455 441.364ZM87.5455 438.955C88.7424 438.955 89.7273 438.648 90.5 438.034C91.2727 437.42 91.8447 436.614 92.2159 435.614C92.5871 434.614 92.7727 433.53 92.7727 432.364C92.7727 431.197 92.5871 430.11 92.2159 429.102C91.8447 428.095 91.2727 427.28 90.5 426.659C89.7273 426.038 88.7424 425.727 87.5455 425.727C86.3485 425.727 85.3636 426.038 84.5909 426.659C83.8182 427.28 83.2462 428.095 82.875 429.102C82.5038 430.11 82.3182 431.197 82.3182 432.364C82.3182 433.53 82.5038 434.614 82.875 435.614C83.2462 436.614 83.8182 437.42 84.5909 438.034C85.3636 438.648 86.3485 438.955 87.5455 438.955ZM102.23 430.5V441H99.5483V423.545H102.139V426.273H102.366C102.776 425.386 103.397 424.674 104.23 424.136C105.063 423.591 106.139 423.318 107.457 423.318C108.639 423.318 109.673 423.561 110.56 424.045C111.446 424.523 112.135 425.25 112.628 426.227C113.12 427.197 113.366 428.424 113.366 429.909V441H110.685V430.091C110.685 428.72 110.329 427.652 109.616 426.886C108.904 426.114 107.927 425.727 106.685 425.727C105.829 425.727 105.063 425.913 104.389 426.284C103.723 426.655 103.196 427.197 102.81 427.909C102.423 428.621 102.23 429.485 102.23 430.5ZM127.631 441V417.727H130.449V438.5H141.267V441H127.631ZM150.403 441.409C149.297 441.409 148.294 441.201 147.392 440.784C146.491 440.36 145.775 439.75 145.244 438.955C144.714 438.152 144.449 437.182 144.449 436.045C144.449 435.045 144.646 434.235 145.04 433.614C145.434 432.985 145.96 432.492 146.619 432.136C147.278 431.78 148.006 431.515 148.801 431.341C149.604 431.159 150.411 431.015 151.222 430.909C152.282 430.773 153.142 430.67 153.801 430.602C154.468 430.527 154.953 430.402 155.256 430.227C155.566 430.053 155.722 429.75 155.722 429.318V429.227C155.722 428.106 155.415 427.235 154.801 426.614C154.195 425.992 153.275 425.682 152.04 425.682C150.759 425.682 149.756 425.962 149.028 426.523C148.301 427.083 147.79 427.682 147.494 428.318L144.949 427.409C145.403 426.348 146.009 425.523 146.767 424.932C147.532 424.333 148.366 423.917 149.267 423.682C150.176 423.439 151.07 423.318 151.949 423.318C152.509 423.318 153.153 423.386 153.881 423.523C154.616 423.652 155.324 423.92 156.006 424.33C156.695 424.739 157.267 425.356 157.722 426.182C158.176 427.008 158.403 428.114 158.403 429.5V441H155.722V438.636H155.585C155.403 439.015 155.1 439.42 154.676 439.852C154.252 440.284 153.688 440.652 152.983 440.955C152.278 441.258 151.419 441.409 150.403 441.409ZM150.812 439C151.873 439 152.767 438.792 153.494 438.375C154.229 437.958 154.782 437.42 155.153 436.761C155.532 436.102 155.722 435.409 155.722 434.682V432.227C155.608 432.364 155.358 432.489 154.972 432.602C154.593 432.708 154.153 432.803 153.653 432.886C153.161 432.962 152.68 433.03 152.21 433.091C151.748 433.144 151.373 433.189 151.085 433.227C150.388 433.318 149.737 433.466 149.131 433.67C148.532 433.867 148.047 434.167 147.676 434.568C147.313 434.962 147.131 435.5 147.131 436.182C147.131 437.114 147.475 437.818 148.165 438.295C148.862 438.765 149.744 439 150.812 439ZM164.401 447.545C163.946 447.545 163.541 447.508 163.185 447.432C162.829 447.364 162.582 447.295 162.446 447.227L163.128 444.864C163.779 445.03 164.355 445.091 164.855 445.045C165.355 445 165.798 444.777 166.185 444.375C166.579 443.981 166.938 443.341 167.264 442.455L167.764 441.091L161.31 423.545H164.219L169.037 437.455H169.219L174.037 423.545H176.946L169.537 443.545C169.204 444.447 168.791 445.193 168.298 445.784C167.806 446.383 167.234 446.826 166.582 447.114C165.938 447.402 165.211 447.545 164.401 447.545ZM186.952 441.364C185.376 441.364 183.993 440.989 182.804 440.239C181.622 439.489 180.698 438.439 180.031 437.091C179.372 435.742 179.043 434.167 179.043 432.364C179.043 430.545 179.372 428.958 180.031 427.602C180.698 426.246 181.622 425.193 182.804 424.443C183.993 423.693 185.376 423.318 186.952 423.318C188.527 423.318 189.906 423.693 191.088 424.443C192.277 425.193 193.202 426.246 193.861 427.602C194.527 428.958 194.861 430.545 194.861 432.364C194.861 434.167 194.527 435.742 193.861 437.091C193.202 438.439 192.277 439.489 191.088 440.239C189.906 440.989 188.527 441.364 186.952 441.364ZM186.952 438.955C188.149 438.955 189.134 438.648 189.906 438.034C190.679 437.42 191.251 436.614 191.622 435.614C191.993 434.614 192.179 433.53 192.179 432.364C192.179 431.197 191.993 430.11 191.622 429.102C191.251 428.095 190.679 427.28 189.906 426.659C189.134 426.038 188.149 425.727 186.952 425.727C185.755 425.727 184.77 426.038 183.997 426.659C183.224 427.28 182.652 428.095 182.281 429.102C181.91 430.11 181.724 431.197 181.724 432.364C181.724 433.53 181.91 434.614 182.281 435.614C182.652 436.614 183.224 437.42 183.997 438.034C184.77 438.648 185.755 438.955 186.952 438.955ZM209.955 433.864V423.545H212.636V441H209.955V438.045H209.773C209.364 438.932 208.727 439.686 207.864 440.307C207 440.92 205.909 441.227 204.591 441.227C203.5 441.227 202.53 440.989 201.682 440.511C200.833 440.027 200.167 439.299 199.682 438.33C199.197 437.352 198.955 436.121 198.955 434.636V423.545H201.636V434.455C201.636 435.727 201.992 436.742 202.705 437.5C203.424 438.258 204.341 438.636 205.455 438.636C206.121 438.636 206.799 438.466 207.489 438.125C208.186 437.784 208.769 437.261 209.239 436.557C209.716 435.852 209.955 434.955 209.955 433.864ZM225.139 423.545V425.818H216.094V423.545H225.139ZM218.73 419.364H221.412V436C221.412 436.758 221.522 437.326 221.741 437.705C221.969 438.076 222.257 438.326 222.605 438.455C222.961 438.576 223.336 438.636 223.73 438.636C224.026 438.636 224.268 438.621 224.457 438.591C224.647 438.553 224.798 438.523 224.912 438.5L225.457 440.909C225.276 440.977 225.022 441.045 224.696 441.114C224.37 441.189 223.957 441.227 223.457 441.227C222.7 441.227 221.957 441.064 221.23 440.739C220.51 440.413 219.912 439.917 219.435 439.25C218.965 438.583 218.73 437.742 218.73 436.727V419.364Z" fill="white"/>
<path d="M419.818 417.727H423.182L431.091 437.045H431.364L439.273 417.727H442.636V441H440V423.318H439.773L432.5 441H429.955L422.682 423.318H422.455V441H419.818V417.727ZM451.105 417.727V441H448.287V417.727H451.105ZM463.938 441H456.756V417.727H464.256C466.513 417.727 468.445 418.193 470.051 419.125C471.657 420.049 472.888 421.379 473.744 423.114C474.6 424.841 475.028 426.909 475.028 429.318C475.028 431.742 474.597 433.83 473.733 435.58C472.869 437.322 471.612 438.663 469.96 439.602C468.309 440.534 466.301 441 463.938 441ZM459.574 438.5H463.756C465.68 438.5 467.275 438.129 468.54 437.386C469.805 436.644 470.748 435.587 471.369 434.216C471.991 432.845 472.301 431.212 472.301 429.318C472.301 427.439 471.994 425.822 471.381 424.466C470.767 423.102 469.85 422.057 468.631 421.33C467.411 420.595 465.892 420.227 464.074 420.227H459.574V438.5ZM482.574 417.727V441H479.756V417.727H482.574ZM516.861 429.364C516.861 431.818 516.418 433.939 515.531 435.727C514.645 437.515 513.429 438.894 511.884 439.864C510.338 440.833 508.573 441.318 506.588 441.318C504.603 441.318 502.838 440.833 501.293 439.864C499.747 438.894 498.531 437.515 497.645 435.727C496.759 433.939 496.315 431.818 496.315 429.364C496.315 426.909 496.759 424.788 497.645 423C498.531 421.212 499.747 419.833 501.293 418.864C502.838 417.894 504.603 417.409 506.588 417.409C508.573 417.409 510.338 417.894 511.884 418.864C513.429 419.833 514.645 421.212 515.531 423C516.418 424.788 516.861 426.909 516.861 429.364ZM514.134 429.364C514.134 427.348 513.796 425.648 513.122 424.261C512.455 422.875 511.55 421.826 510.406 421.114C509.27 420.402 507.997 420.045 506.588 420.045C505.179 420.045 503.902 420.402 502.759 421.114C501.622 421.826 500.717 422.875 500.043 424.261C499.376 425.648 499.043 427.348 499.043 429.364C499.043 431.379 499.376 433.08 500.043 434.466C500.717 435.852 501.622 436.902 502.759 437.614C503.902 438.326 505.179 438.682 506.588 438.682C507.997 438.682 509.27 438.326 510.406 437.614C511.55 436.902 512.455 435.852 513.122 434.466C513.796 433.08 514.134 431.379 514.134 429.364ZM532.236 433.864V423.545H534.918V441H532.236V438.045H532.054C531.645 438.932 531.009 439.686 530.145 440.307C529.281 440.92 528.19 441.227 526.872 441.227C525.781 441.227 524.812 440.989 523.963 440.511C523.115 440.027 522.448 439.299 521.963 438.33C521.478 437.352 521.236 436.121 521.236 434.636V423.545H523.918V434.455C523.918 435.727 524.274 436.742 524.986 437.5C525.705 438.258 526.622 438.636 527.736 438.636C528.402 438.636 529.08 438.466 529.77 438.125C530.467 437.784 531.05 437.261 531.52 436.557C531.997 435.852 532.236 434.955 532.236 433.864ZM547.42 423.545V425.818H538.375V423.545H547.42ZM541.011 419.364H543.693V436C543.693 436.758 543.803 437.326 544.023 437.705C544.25 438.076 544.538 438.326 544.886 438.455C545.242 438.576 545.617 438.636 546.011 438.636C546.307 438.636 546.549 438.621 546.739 438.591C546.928 438.553 547.08 438.523 547.193 438.5L547.739 440.909C547.557 440.977 547.303 441.045 546.977 441.114C546.652 441.189 546.239 441.227 545.739 441.227C544.981 441.227 544.239 441.064 543.511 440.739C542.792 440.413 542.193 439.917 541.716 439.25C541.246 438.583 541.011 437.742 541.011 436.727V419.364ZM551.455 447.545V423.545H554.045V426.318H554.364C554.561 426.015 554.833 425.629 555.182 425.159C555.538 424.682 556.045 424.258 556.705 423.886C557.371 423.508 558.273 423.318 559.409 423.318C560.879 423.318 562.174 423.686 563.295 424.42C564.417 425.155 565.292 426.197 565.92 427.545C566.549 428.894 566.864 430.485 566.864 432.318C566.864 434.167 566.549 435.769 565.92 437.125C565.292 438.473 564.42 439.519 563.307 440.261C562.193 440.996 560.909 441.364 559.455 441.364C558.333 441.364 557.436 441.178 556.761 440.807C556.087 440.428 555.568 440 555.205 439.523C554.841 439.038 554.561 438.636 554.364 438.318H554.136V447.545H551.455ZM554.091 432.273C554.091 433.591 554.284 434.754 554.67 435.761C555.057 436.761 555.621 437.545 556.364 438.114C557.106 438.674 558.015 438.955 559.091 438.955C560.212 438.955 561.148 438.659 561.898 438.068C562.655 437.47 563.223 436.667 563.602 435.659C563.989 434.644 564.182 433.515 564.182 432.273C564.182 431.045 563.992 429.939 563.614 428.955C563.242 427.962 562.678 427.178 561.92 426.602C561.17 426.019 560.227 425.727 559.091 425.727C558 425.727 557.083 426.004 556.341 426.557C555.598 427.102 555.038 427.867 554.659 428.852C554.28 429.83 554.091 430.97 554.091 432.273ZM581.955 433.864V423.545H584.636V441H581.955V438.045H581.773C581.364 438.932 580.727 439.686 579.864 440.307C579 440.92 577.909 441.227 576.591 441.227C575.5 441.227 574.53 440.989 573.682 440.511C572.833 440.027 572.167 439.299 571.682 438.33C571.197 437.352 570.955 436.121 570.955 434.636V423.545H573.636V434.455C573.636 435.727 573.992 436.742 574.705 437.5C575.424 438.258 576.341 438.636 577.455 438.636C578.121 438.636 578.799 438.466 579.489 438.125C580.186 437.784 580.769 437.261 581.239 436.557C581.716 435.852 581.955 434.955 581.955 433.864ZM597.139 423.545V425.818H588.094V423.545H597.139ZM590.73 419.364H593.412V436C593.412 436.758 593.522 437.326 593.741 437.705C593.969 438.076 594.257 438.326 594.605 438.455C594.961 438.576 595.336 438.636 595.73 438.636C596.026 438.636 596.268 438.621 596.457 438.591C596.647 438.553 596.798 438.523 596.912 438.5L597.457 440.909C597.276 440.977 597.022 441.045 596.696 441.114C596.37 441.189 595.957 441.227 595.457 441.227C594.7 441.227 593.957 441.064 593.23 440.739C592.51 440.413 591.912 439.917 591.435 439.25C590.965 438.583 590.73 437.742 590.73 436.727V419.364Z" fill="white"/>
<path d="M431.659 106.909C431.557 106.045 431.142 105.375 430.415 104.898C429.688 104.42 428.795 104.182 427.739 104.182C426.966 104.182 426.29 104.307 425.71 104.557C425.136 104.807 424.688 105.151 424.364 105.588C424.045 106.026 423.886 106.523 423.886 107.08C423.886 107.545 423.997 107.946 424.219 108.281C424.446 108.611 424.736 108.886 425.088 109.108C425.44 109.324 425.81 109.503 426.196 109.645C426.582 109.781 426.938 109.892 427.261 109.977L429.034 110.455C429.489 110.574 429.994 110.739 430.551 110.949C431.114 111.159 431.651 111.446 432.162 111.81C432.679 112.168 433.105 112.628 433.44 113.19C433.776 113.753 433.943 114.443 433.943 115.261C433.943 116.205 433.696 117.057 433.202 117.818C432.713 118.58 431.997 119.185 431.054 119.634C430.116 120.082 428.977 120.307 427.636 120.307C426.386 120.307 425.304 120.105 424.389 119.702C423.48 119.298 422.764 118.736 422.241 118.014C421.724 117.293 421.432 116.455 421.364 115.5H423.545C423.602 116.159 423.824 116.705 424.21 117.136C424.602 117.562 425.097 117.881 425.693 118.091C426.295 118.295 426.943 118.398 427.636 118.398C428.443 118.398 429.168 118.267 429.81 118.006C430.452 117.739 430.96 117.369 431.335 116.898C431.71 116.42 431.898 115.864 431.898 115.227C431.898 114.648 431.736 114.176 431.412 113.812C431.088 113.449 430.662 113.153 430.134 112.926C429.605 112.699 429.034 112.5 428.42 112.33L426.273 111.716C424.909 111.324 423.83 110.764 423.034 110.037C422.239 109.31 421.841 108.358 421.841 107.182C421.841 106.205 422.105 105.352 422.634 104.625C423.168 103.892 423.884 103.324 424.781 102.92C425.685 102.511 426.693 102.307 427.807 102.307C428.932 102.307 429.932 102.509 430.807 102.912C431.682 103.31 432.375 103.855 432.886 104.548C433.403 105.241 433.676 106.028 433.705 106.909H431.659ZM442.839 106.909V108.614H436.055V106.909H442.839ZM438.032 103.773H440.043V116.25C440.043 116.818 440.126 117.244 440.29 117.528C440.461 117.807 440.677 117.994 440.938 118.091C441.205 118.182 441.487 118.227 441.782 118.227C442.004 118.227 442.185 118.216 442.327 118.193C442.469 118.165 442.583 118.142 442.668 118.125L443.077 119.932C442.941 119.983 442.751 120.034 442.506 120.085C442.262 120.142 441.952 120.17 441.577 120.17C441.009 120.17 440.452 120.048 439.907 119.804C439.367 119.56 438.918 119.188 438.56 118.688C438.208 118.188 438.032 117.557 438.032 116.795V103.773ZM449.717 120.307C448.887 120.307 448.134 120.151 447.458 119.838C446.782 119.52 446.245 119.062 445.847 118.466C445.45 117.864 445.251 117.136 445.251 116.284C445.251 115.534 445.398 114.926 445.694 114.46C445.989 113.989 446.384 113.619 446.879 113.352C447.373 113.085 447.918 112.886 448.515 112.756C449.117 112.619 449.722 112.511 450.33 112.432C451.126 112.33 451.771 112.253 452.265 112.202C452.765 112.145 453.129 112.051 453.356 111.92C453.589 111.79 453.705 111.562 453.705 111.239V111.17C453.705 110.33 453.475 109.676 453.015 109.21C452.56 108.744 451.87 108.511 450.944 108.511C449.984 108.511 449.231 108.722 448.685 109.142C448.14 109.562 447.756 110.011 447.535 110.489L445.626 109.807C445.967 109.011 446.421 108.392 446.989 107.949C447.563 107.5 448.188 107.187 448.864 107.011C449.546 106.83 450.217 106.739 450.876 106.739C451.296 106.739 451.779 106.79 452.325 106.892C452.876 106.989 453.407 107.19 453.918 107.497C454.435 107.804 454.864 108.267 455.205 108.886C455.546 109.506 455.717 110.335 455.717 111.375V120H453.705V118.227H453.603C453.467 118.511 453.239 118.815 452.921 119.139C452.603 119.463 452.18 119.739 451.651 119.966C451.123 120.193 450.478 120.307 449.717 120.307ZM450.023 118.5C450.819 118.5 451.489 118.344 452.035 118.031C452.586 117.719 453.001 117.315 453.279 116.821C453.563 116.327 453.705 115.807 453.705 115.261V113.42C453.62 113.523 453.433 113.616 453.143 113.702C452.859 113.781 452.529 113.852 452.154 113.915C451.785 113.972 451.424 114.023 451.072 114.068C450.725 114.108 450.444 114.142 450.228 114.17C449.705 114.239 449.217 114.349 448.762 114.503C448.313 114.651 447.95 114.875 447.671 115.176C447.398 115.472 447.262 115.875 447.262 116.386C447.262 117.085 447.521 117.614 448.038 117.972C448.56 118.324 449.222 118.5 450.023 118.5ZM459.388 120V106.909H461.331V108.886H461.467C461.706 108.239 462.138 107.713 462.763 107.31C463.388 106.906 464.092 106.705 464.876 106.705C465.024 106.705 465.209 106.707 465.43 106.713C465.652 106.719 465.82 106.727 465.933 106.739V108.784C465.865 108.767 465.709 108.741 465.464 108.707C465.226 108.668 464.973 108.648 464.706 108.648C464.07 108.648 463.501 108.781 463.001 109.048C462.507 109.31 462.115 109.673 461.825 110.139C461.541 110.599 461.399 111.125 461.399 111.716V120H459.388ZM474.831 106.909V108.614H468.047V106.909H474.831ZM470.024 103.773H472.036V116.25C472.036 116.818 472.118 117.244 472.283 117.528C472.453 117.807 472.669 117.994 472.93 118.091C473.197 118.182 473.479 118.227 473.774 118.227C473.996 118.227 474.178 118.216 474.32 118.193C474.462 118.165 474.575 118.142 474.661 118.125L475.07 119.932C474.933 119.983 474.743 120.034 474.499 120.085C474.254 120.142 473.945 120.17 473.57 120.17C473.001 120.17 472.445 120.048 471.899 119.804C471.359 119.56 470.911 119.188 470.553 118.688C470.2 118.188 470.024 117.557 470.024 116.795V103.773ZM477.857 120V106.909H479.868V120H477.857ZM478.879 104.727C478.487 104.727 478.149 104.594 477.865 104.327C477.587 104.06 477.447 103.739 477.447 103.364C477.447 102.989 477.587 102.668 477.865 102.401C478.149 102.134 478.487 102 478.879 102C479.271 102 479.607 102.134 479.885 102.401C480.169 102.668 480.311 102.989 480.311 103.364C480.311 103.739 480.169 104.06 479.885 104.327C479.607 104.594 479.271 104.727 478.879 104.727ZM485.563 112.125V120H483.552V106.909H485.495V108.955H485.665C485.972 108.29 486.438 107.756 487.063 107.352C487.688 106.943 488.495 106.739 489.484 106.739C490.37 106.739 491.146 106.92 491.81 107.284C492.475 107.642 492.992 108.188 493.362 108.92C493.731 109.648 493.915 110.568 493.915 111.682V120H491.904V111.818C491.904 110.79 491.637 109.989 491.103 109.415C490.569 108.835 489.836 108.545 488.904 108.545C488.262 108.545 487.688 108.685 487.183 108.963C486.683 109.241 486.288 109.648 485.998 110.182C485.708 110.716 485.563 111.364 485.563 112.125ZM502.875 125.182C501.903 125.182 501.068 125.057 500.369 124.807C499.67 124.562 499.088 124.239 498.622 123.835C498.162 123.438 497.795 123.011 497.523 122.557L499.125 121.432C499.307 121.67 499.537 121.943 499.815 122.25C500.094 122.562 500.474 122.832 500.957 123.06C501.446 123.293 502.085 123.409 502.875 123.409C503.932 123.409 504.804 123.153 505.491 122.642C506.179 122.131 506.523 121.33 506.523 120.239V117.58H506.352C506.205 117.818 505.994 118.114 505.722 118.466C505.455 118.812 505.068 119.122 504.562 119.395C504.062 119.662 503.386 119.795 502.534 119.795C501.477 119.795 500.528 119.545 499.688 119.045C498.852 118.545 498.19 117.818 497.702 116.864C497.219 115.909 496.977 114.75 496.977 113.386C496.977 112.045 497.213 110.878 497.685 109.884C498.156 108.884 498.813 108.111 499.653 107.565C500.494 107.014 501.466 106.739 502.568 106.739C503.42 106.739 504.097 106.881 504.597 107.165C505.102 107.443 505.489 107.761 505.756 108.119C506.028 108.472 506.239 108.761 506.386 108.989H506.591V106.909H508.534V120.375C508.534 121.5 508.278 122.415 507.767 123.119C507.261 123.83 506.58 124.349 505.722 124.679C504.869 125.014 503.92 125.182 502.875 125.182ZM502.807 117.989C503.614 117.989 504.295 117.804 504.852 117.435C505.409 117.065 505.832 116.534 506.122 115.841C506.412 115.148 506.557 114.318 506.557 113.352C506.557 112.409 506.415 111.577 506.131 110.855C505.847 110.134 505.426 109.568 504.869 109.159C504.313 108.75 503.625 108.545 502.807 108.545C501.955 108.545 501.244 108.761 500.676 109.193C500.114 109.625 499.69 110.205 499.406 110.932C499.128 111.659 498.989 112.466 498.989 113.352C498.989 114.261 499.131 115.065 499.415 115.764C499.705 116.457 500.131 117.003 500.693 117.401C501.261 117.793 501.966 117.989 502.807 117.989ZM519.239 120V102.545H525.136C526.506 102.545 527.625 102.793 528.494 103.287C529.369 103.776 530.017 104.438 530.438 105.273C530.858 106.108 531.068 107.04 531.068 108.068C531.068 109.097 530.858 110.031 530.438 110.872C530.023 111.713 529.381 112.384 528.511 112.884C527.642 113.378 526.528 113.625 525.17 113.625H520.943V111.75H525.102C526.04 111.75 526.793 111.588 527.361 111.264C527.929 110.94 528.341 110.503 528.597 109.952C528.858 109.395 528.989 108.767 528.989 108.068C528.989 107.369 528.858 106.744 528.597 106.193C528.341 105.642 527.926 105.21 527.352 104.898C526.778 104.58 526.017 104.42 525.068 104.42H521.352V120H519.239ZM539.378 120.273C538.196 120.273 537.159 119.991 536.267 119.429C535.381 118.866 534.688 118.08 534.188 117.068C533.693 116.057 533.446 114.875 533.446 113.523C533.446 112.159 533.693 110.969 534.188 109.952C534.688 108.935 535.381 108.145 536.267 107.582C537.159 107.02 538.196 106.739 539.378 106.739C540.56 106.739 541.594 107.02 542.48 107.582C543.372 108.145 544.065 108.935 544.56 109.952C545.06 110.969 545.31 112.159 545.31 113.523C545.31 114.875 545.06 116.057 544.56 117.068C544.065 118.08 543.372 118.866 542.48 119.429C541.594 119.991 540.56 120.273 539.378 120.273ZM539.378 118.466C540.276 118.466 541.014 118.236 541.594 117.776C542.173 117.315 542.602 116.71 542.881 115.96C543.159 115.21 543.298 114.398 543.298 113.523C543.298 112.648 543.159 111.832 542.881 111.077C542.602 110.321 542.173 109.71 541.594 109.244C541.014 108.778 540.276 108.545 539.378 108.545C538.48 108.545 537.741 108.778 537.162 109.244C536.582 109.71 536.153 110.321 535.875 111.077C535.597 111.832 535.457 112.648 535.457 113.523C535.457 114.398 535.597 115.21 535.875 115.96C536.153 116.71 536.582 117.315 537.162 117.776C537.741 118.236 538.48 118.466 539.378 118.466ZM557.653 109.841L555.846 110.352C555.732 110.051 555.565 109.759 555.343 109.474C555.127 109.185 554.832 108.946 554.457 108.759C554.082 108.571 553.602 108.477 553.016 108.477C552.215 108.477 551.548 108.662 551.013 109.031C550.485 109.395 550.221 109.858 550.221 110.42C550.221 110.92 550.403 111.315 550.766 111.605C551.13 111.895 551.698 112.136 552.471 112.33L554.414 112.807C555.585 113.091 556.457 113.526 557.031 114.111C557.604 114.69 557.891 115.437 557.891 116.352C557.891 117.102 557.675 117.773 557.244 118.364C556.817 118.955 556.221 119.42 555.454 119.761C554.687 120.102 553.795 120.273 552.778 120.273C551.442 120.273 550.337 119.983 549.462 119.403C548.587 118.824 548.033 117.977 547.8 116.864L549.71 116.386C549.891 117.091 550.235 117.619 550.741 117.972C551.252 118.324 551.92 118.5 552.744 118.5C553.681 118.5 554.425 118.301 554.977 117.903C555.533 117.5 555.812 117.017 555.812 116.455C555.812 116 555.653 115.619 555.335 115.312C555.016 115 554.528 114.767 553.869 114.614L551.687 114.102C550.488 113.818 549.607 113.378 549.045 112.781C548.488 112.179 548.21 111.426 548.21 110.523C548.21 109.784 548.417 109.131 548.832 108.562C549.252 107.994 549.823 107.548 550.545 107.224C551.272 106.901 552.096 106.739 553.016 106.739C554.312 106.739 555.329 107.023 556.067 107.591C556.812 108.159 557.34 108.909 557.653 109.841ZM560.919 120V106.909H562.93V120H560.919ZM561.942 104.727C561.55 104.727 561.212 104.594 560.928 104.327C560.649 104.06 560.51 103.739 560.51 103.364C560.51 102.989 560.649 102.668 560.928 102.401C561.212 102.134 561.55 102 561.942 102C562.334 102 562.669 102.134 562.947 102.401C563.232 102.668 563.374 102.989 563.374 103.364C563.374 103.739 563.232 104.06 562.947 104.327C562.669 104.594 562.334 104.727 561.942 104.727ZM572.308 106.909V108.614H565.523V106.909H572.308ZM567.501 103.773H569.512V116.25C569.512 116.818 569.594 117.244 569.759 117.528C569.93 117.807 570.146 117.994 570.407 118.091C570.674 118.182 570.955 118.227 571.251 118.227C571.472 118.227 571.654 118.216 571.796 118.193C571.938 118.165 572.052 118.142 572.137 118.125L572.546 119.932C572.41 119.983 572.219 120.034 571.975 120.085C571.731 120.142 571.421 120.17 571.046 120.17C570.478 120.17 569.921 120.048 569.376 119.804C568.836 119.56 568.387 119.188 568.029 118.688C567.677 118.188 567.501 117.557 567.501 116.795V103.773ZM575.333 120V106.909H577.344V120H575.333ZM576.356 104.727C575.964 104.727 575.626 104.594 575.342 104.327C575.063 104.06 574.924 103.739 574.924 103.364C574.924 102.989 575.063 102.668 575.342 102.401C575.626 102.134 575.964 102 576.356 102C576.748 102 577.083 102.134 577.362 102.401C577.646 102.668 577.788 102.989 577.788 103.364C577.788 103.739 577.646 104.06 577.362 104.327C577.083 104.594 576.748 104.727 576.356 104.727ZM586.347 120.273C585.165 120.273 584.128 119.991 583.236 119.429C582.349 118.866 581.656 118.08 581.156 117.068C580.662 116.057 580.415 114.875 580.415 113.523C580.415 112.159 580.662 110.969 581.156 109.952C581.656 108.935 582.349 108.145 583.236 107.582C584.128 107.02 585.165 106.739 586.347 106.739C587.528 106.739 588.563 107.02 589.449 107.582C590.341 108.145 591.034 108.935 591.528 109.952C592.028 110.969 592.278 112.159 592.278 113.523C592.278 114.875 592.028 116.057 591.528 117.068C591.034 118.08 590.341 118.866 589.449 119.429C588.563 119.991 587.528 120.273 586.347 120.273ZM586.347 118.466C587.244 118.466 587.983 118.236 588.562 117.776C589.142 117.315 589.571 116.71 589.849 115.96C590.128 115.21 590.267 114.398 590.267 113.523C590.267 112.648 590.128 111.832 589.849 111.077C589.571 110.321 589.142 109.71 588.562 109.244C587.983 108.778 587.244 108.545 586.347 108.545C585.449 108.545 584.71 108.778 584.131 109.244C583.551 109.71 583.122 110.321 582.844 111.077C582.565 111.832 582.426 112.648 582.426 113.523C582.426 114.398 582.565 115.21 582.844 115.96C583.122 116.71 583.551 117.315 584.131 117.776C584.71 118.236 585.449 118.466 586.347 118.466ZM597.36 112.125V120H595.349V106.909H597.292V108.955H597.462C597.769 108.29 598.235 107.756 598.86 107.352C599.485 106.943 600.292 106.739 601.281 106.739C602.167 106.739 602.942 106.92 603.607 107.284C604.272 107.642 604.789 108.188 605.158 108.92C605.528 109.648 605.712 110.568 605.712 111.682V120H603.701V111.818C603.701 110.79 603.434 109.989 602.9 109.415C602.366 108.835 601.633 108.545 600.701 108.545C600.059 108.545 599.485 108.685 598.979 108.963C598.479 109.241 598.085 109.648 597.795 110.182C597.505 110.716 597.36 111.364 597.36 112.125Z" fill="white"/>
<path d="M427.5 164H422.114V146.545H427.739C429.432 146.545 430.881 146.895 432.085 147.594C433.29 148.287 434.213 149.284 434.855 150.585C435.497 151.881 435.818 153.432 435.818 155.239C435.818 157.057 435.494 158.622 434.847 159.935C434.199 161.241 433.256 162.247 432.017 162.952C430.778 163.651 429.273 164 427.5 164ZM424.227 162.125H427.364C428.807 162.125 430.003 161.847 430.952 161.29C431.901 160.733 432.608 159.94 433.074 158.912C433.54 157.884 433.773 156.659 433.773 155.239C433.773 153.83 433.543 152.616 433.082 151.599C432.622 150.577 431.935 149.793 431.02 149.247C430.105 148.696 428.966 148.42 427.602 148.42H424.227V162.125ZM439.091 164V150.909H441.102V164H439.091ZM440.114 148.727C439.722 148.727 439.384 148.594 439.099 148.327C438.821 148.06 438.682 147.739 438.682 147.364C438.682 146.989 438.821 146.668 439.099 146.401C439.384 146.134 439.722 146 440.114 146C440.506 146 440.841 146.134 441.119 146.401C441.403 146.668 441.545 146.989 441.545 147.364C441.545 147.739 441.403 148.06 441.119 148.327C440.841 148.594 440.506 148.727 440.114 148.727ZM444.786 164V150.909H446.729V152.886H446.866C447.104 152.239 447.536 151.713 448.161 151.31C448.786 150.906 449.491 150.705 450.275 150.705C450.423 150.705 450.607 150.707 450.829 150.713C451.05 150.719 451.218 150.727 451.332 150.739V152.784C451.263 152.767 451.107 152.741 450.863 152.707C450.624 152.668 450.371 152.648 450.104 152.648C449.468 152.648 448.9 152.781 448.4 153.048C447.906 153.31 447.513 153.673 447.224 154.139C446.94 154.599 446.798 155.125 446.798 155.716V164H444.786ZM458.806 164.273C457.545 164.273 456.457 163.994 455.542 163.438C454.633 162.875 453.931 162.091 453.437 161.085C452.948 160.074 452.704 158.898 452.704 157.557C452.704 156.216 452.948 155.034 453.437 154.011C453.931 152.983 454.619 152.182 455.499 151.608C456.386 151.028 457.42 150.739 458.602 150.739C459.283 150.739 459.957 150.852 460.621 151.08C461.286 151.307 461.891 151.676 462.437 152.188C462.982 152.693 463.417 153.364 463.741 154.199C464.065 155.034 464.227 156.062 464.227 157.284V158.136H454.136V156.398H462.181C462.181 155.659 462.033 155 461.738 154.42C461.448 153.841 461.033 153.384 460.494 153.048C459.96 152.713 459.329 152.545 458.602 152.545C457.8 152.545 457.107 152.744 456.522 153.142C455.942 153.534 455.496 154.045 455.184 154.676C454.871 155.307 454.715 155.983 454.715 156.705V157.864C454.715 158.852 454.886 159.69 455.227 160.378C455.573 161.06 456.053 161.58 456.667 161.938C457.281 162.29 457.994 162.466 458.806 162.466C459.335 162.466 459.812 162.392 460.238 162.244C460.67 162.091 461.042 161.864 461.354 161.562C461.667 161.256 461.908 160.875 462.079 160.42L464.022 160.966C463.817 161.625 463.474 162.205 462.991 162.705C462.508 163.199 461.911 163.585 461.201 163.864C460.491 164.136 459.692 164.273 458.806 164.273ZM472.604 164.273C471.377 164.273 470.32 163.983 469.434 163.403C468.548 162.824 467.866 162.026 467.388 161.009C466.911 159.991 466.673 158.83 466.673 157.523C466.673 156.193 466.917 155.02 467.406 154.003C467.9 152.98 468.587 152.182 469.468 151.608C470.354 151.028 471.388 150.739 472.57 150.739C473.491 150.739 474.32 150.909 475.059 151.25C475.798 151.591 476.403 152.068 476.874 152.682C477.346 153.295 477.638 154.011 477.752 154.83H475.741C475.587 154.233 475.246 153.705 474.718 153.244C474.195 152.778 473.491 152.545 472.604 152.545C471.82 152.545 471.133 152.75 470.542 153.159C469.957 153.562 469.499 154.134 469.17 154.872C468.846 155.605 468.684 156.466 468.684 157.455C468.684 158.466 468.843 159.347 469.161 160.097C469.485 160.847 469.94 161.429 470.525 161.844C471.116 162.259 471.809 162.466 472.604 162.466C473.127 162.466 473.602 162.375 474.028 162.193C474.454 162.011 474.815 161.75 475.11 161.409C475.406 161.068 475.616 160.659 475.741 160.182H477.752C477.638 160.955 477.357 161.651 476.908 162.27C476.465 162.884 475.877 163.372 475.144 163.736C474.417 164.094 473.57 164.273 472.604 164.273ZM486.386 150.909V152.614H479.602V150.909H486.386ZM481.579 147.773H483.59V160.25C483.59 160.818 483.673 161.244 483.837 161.528C484.008 161.807 484.224 161.994 484.485 162.091C484.752 162.182 485.033 162.227 485.329 162.227C485.55 162.227 485.732 162.216 485.874 162.193C486.016 162.165 486.13 162.142 486.215 162.125L486.624 163.932C486.488 163.983 486.298 164.034 486.053 164.085C485.809 164.142 485.499 164.17 485.124 164.17C484.556 164.17 483.999 164.048 483.454 163.804C482.914 163.56 482.465 163.188 482.107 162.688C481.755 162.188 481.579 161.557 481.579 160.795V147.773ZM489.411 164V150.909H491.423V164H489.411ZM490.434 148.727C490.042 148.727 489.704 148.594 489.42 148.327C489.141 148.06 489.002 147.739 489.002 147.364C489.002 146.989 489.141 146.668 489.42 146.401C489.704 146.134 490.042 146 490.434 146C490.826 146 491.161 146.134 491.44 146.401C491.724 146.668 491.866 146.989 491.866 147.364C491.866 147.739 491.724 148.06 491.44 148.327C491.161 148.594 490.826 148.727 490.434 148.727ZM500.425 164.273C499.243 164.273 498.206 163.991 497.314 163.429C496.428 162.866 495.734 162.08 495.234 161.068C494.74 160.057 494.493 158.875 494.493 157.523C494.493 156.159 494.74 154.969 495.234 153.952C495.734 152.935 496.428 152.145 497.314 151.582C498.206 151.02 499.243 150.739 500.425 150.739C501.607 150.739 502.641 151.02 503.527 151.582C504.419 152.145 505.112 152.935 505.607 153.952C506.107 154.969 506.357 156.159 506.357 157.523C506.357 158.875 506.107 160.057 505.607 161.068C505.112 162.08 504.419 162.866 503.527 163.429C502.641 163.991 501.607 164.273 500.425 164.273ZM500.425 162.466C501.322 162.466 502.061 162.236 502.641 161.776C503.22 161.315 503.649 160.71 503.928 159.96C504.206 159.21 504.345 158.398 504.345 157.523C504.345 156.648 504.206 155.832 503.928 155.077C503.649 154.321 503.22 153.71 502.641 153.244C502.061 152.778 501.322 152.545 500.425 152.545C499.527 152.545 498.788 152.778 498.209 153.244C497.629 153.71 497.2 154.321 496.922 155.077C496.643 155.832 496.504 156.648 496.504 157.523C496.504 158.398 496.643 159.21 496.922 159.96C497.2 160.71 497.629 161.315 498.209 161.776C498.788 162.236 499.527 162.466 500.425 162.466ZM511.438 156.125V164H509.427V150.909H511.37V152.955H511.54C511.847 152.29 512.313 151.756 512.938 151.352C513.563 150.943 514.37 150.739 515.359 150.739C516.245 150.739 517.021 150.92 517.685 151.284C518.35 151.642 518.867 152.188 519.237 152.92C519.606 153.648 519.79 154.568 519.79 155.682V164H517.779V155.818C517.779 154.79 517.512 153.989 516.978 153.415C516.444 152.835 515.711 152.545 514.779 152.545C514.137 152.545 513.563 152.685 513.058 152.963C512.558 153.241 512.163 153.648 511.873 154.182C511.583 154.716 511.438 155.364 511.438 156.125Z" fill="white"/>
<path d="M431.659 198.909C431.557 198.045 431.142 197.375 430.415 196.898C429.688 196.42 428.795 196.182 427.739 196.182C426.966 196.182 426.29 196.307 425.71 196.557C425.136 196.807 424.688 197.151 424.364 197.588C424.045 198.026 423.886 198.523 423.886 199.08C423.886 199.545 423.997 199.946 424.219 200.281C424.446 200.611 424.736 200.886 425.088 201.108C425.44 201.324 425.81 201.503 426.196 201.645C426.582 201.781 426.938 201.892 427.261 201.977L429.034 202.455C429.489 202.574 429.994 202.739 430.551 202.949C431.114 203.159 431.651 203.446 432.162 203.81C432.679 204.168 433.105 204.628 433.44 205.19C433.776 205.753 433.943 206.443 433.943 207.261C433.943 208.205 433.696 209.057 433.202 209.818C432.713 210.58 431.997 211.185 431.054 211.634C430.116 212.082 428.977 212.307 427.636 212.307C426.386 212.307 425.304 212.105 424.389 211.702C423.48 211.298 422.764 210.736 422.241 210.014C421.724 209.293 421.432 208.455 421.364 207.5H423.545C423.602 208.159 423.824 208.705 424.21 209.136C424.602 209.562 425.097 209.881 425.693 210.091C426.295 210.295 426.943 210.398 427.636 210.398C428.443 210.398 429.168 210.267 429.81 210.006C430.452 209.739 430.96 209.369 431.335 208.898C431.71 208.42 431.898 207.864 431.898 207.227C431.898 206.648 431.736 206.176 431.412 205.812C431.088 205.449 430.662 205.153 430.134 204.926C429.605 204.699 429.034 204.5 428.42 204.33L426.273 203.716C424.909 203.324 423.83 202.764 423.034 202.037C422.239 201.31 421.841 200.358 421.841 199.182C421.841 198.205 422.105 197.352 422.634 196.625C423.168 195.892 423.884 195.324 424.781 194.92C425.685 194.511 426.693 194.307 427.807 194.307C428.932 194.307 429.932 194.509 430.807 194.912C431.682 195.31 432.375 195.855 432.886 196.548C433.403 197.241 433.676 198.028 433.705 198.909H431.659ZM437.146 216.909V198.909H439.089V200.989H439.327C439.475 200.761 439.68 200.472 439.941 200.119C440.208 199.761 440.589 199.443 441.083 199.165C441.583 198.881 442.259 198.739 443.112 198.739C444.214 198.739 445.185 199.014 446.026 199.565C446.867 200.116 447.523 200.898 447.995 201.909C448.467 202.92 448.702 204.114 448.702 205.489C448.702 206.875 448.467 208.077 447.995 209.094C447.523 210.105 446.87 210.889 446.035 211.446C445.2 211.997 444.237 212.273 443.146 212.273C442.305 212.273 441.631 212.134 441.126 211.855C440.62 211.571 440.231 211.25 439.958 210.892C439.685 210.528 439.475 210.227 439.327 209.989H439.157V216.909H437.146ZM439.123 205.455C439.123 206.443 439.268 207.315 439.558 208.071C439.847 208.821 440.271 209.409 440.827 209.835C441.384 210.256 442.066 210.466 442.873 210.466C443.714 210.466 444.415 210.244 444.978 209.801C445.546 209.352 445.972 208.75 446.256 207.994C446.546 207.233 446.691 206.386 446.691 205.455C446.691 204.534 446.549 203.705 446.265 202.966C445.987 202.222 445.563 201.634 444.995 201.202C444.433 200.764 443.725 200.545 442.873 200.545C442.055 200.545 441.367 200.753 440.81 201.168C440.254 201.577 439.833 202.151 439.549 202.889C439.265 203.622 439.123 204.477 439.123 205.455ZM457.259 212.273C455.998 212.273 454.91 211.994 453.995 211.438C453.086 210.875 452.384 210.091 451.89 209.085C451.401 208.074 451.157 206.898 451.157 205.557C451.157 204.216 451.401 203.034 451.89 202.011C452.384 200.983 453.072 200.182 453.952 199.608C454.839 199.028 455.873 198.739 457.055 198.739C457.737 198.739 458.41 198.852 459.075 199.08C459.739 199.307 460.344 199.676 460.89 200.188C461.435 200.693 461.87 201.364 462.194 202.199C462.518 203.034 462.68 204.062 462.68 205.284V206.136H452.589V204.398H460.634C460.634 203.659 460.487 203 460.191 202.42C459.901 201.841 459.487 201.384 458.947 201.048C458.413 200.713 457.782 200.545 457.055 200.545C456.254 200.545 455.56 200.744 454.975 201.142C454.396 201.534 453.95 202.045 453.637 202.676C453.325 203.307 453.168 203.983 453.168 204.705V205.864C453.168 206.852 453.339 207.69 453.68 208.378C454.026 209.06 454.506 209.58 455.12 209.938C455.734 210.29 456.447 210.466 457.259 210.466C457.788 210.466 458.265 210.392 458.691 210.244C459.123 210.091 459.495 209.864 459.808 209.562C460.12 209.256 460.362 208.875 460.532 208.42L462.475 208.966C462.271 209.625 461.927 210.205 461.444 210.705C460.961 211.199 460.364 211.585 459.654 211.864C458.944 212.136 458.146 212.273 457.259 212.273ZM471.228 212.273C469.967 212.273 468.879 211.994 467.964 211.438C467.055 210.875 466.353 210.091 465.859 209.085C465.37 208.074 465.126 206.898 465.126 205.557C465.126 204.216 465.37 203.034 465.859 202.011C466.353 200.983 467.04 200.182 467.921 199.608C468.808 199.028 469.842 198.739 471.023 198.739C471.705 198.739 472.379 198.852 473.043 199.08C473.708 199.307 474.313 199.676 474.859 200.188C475.404 200.693 475.839 201.364 476.163 202.199C476.487 203.034 476.648 204.062 476.648 205.284V206.136H466.558V204.398H474.603C474.603 203.659 474.455 203 474.16 202.42C473.87 201.841 473.455 201.384 472.915 201.048C472.381 200.713 471.751 200.545 471.023 200.545C470.222 200.545 469.529 200.744 468.944 201.142C468.364 201.534 467.918 202.045 467.606 202.676C467.293 203.307 467.137 203.983 467.137 204.705V205.864C467.137 206.852 467.308 207.69 467.648 208.378C467.995 209.06 468.475 209.58 469.089 209.938C469.702 210.29 470.415 210.466 471.228 210.466C471.756 210.466 472.234 210.392 472.66 210.244C473.092 210.091 473.464 209.864 473.776 209.562C474.089 209.256 474.33 208.875 474.501 208.42L476.444 208.966C476.239 209.625 475.896 210.205 475.413 210.705C474.93 211.199 474.333 211.585 473.623 211.864C472.913 212.136 472.114 212.273 471.228 212.273ZM484.651 212.273C483.56 212.273 482.597 211.997 481.762 211.446C480.927 210.889 480.273 210.105 479.802 209.094C479.33 208.077 479.094 206.875 479.094 205.489C479.094 204.114 479.33 202.92 479.802 201.909C480.273 200.898 480.93 200.116 481.771 199.565C482.612 199.014 483.583 198.739 484.685 198.739C485.538 198.739 486.211 198.881 486.705 199.165C487.205 199.443 487.586 199.761 487.847 200.119C488.114 200.472 488.322 200.761 488.469 200.989H488.64V194.545H490.651V212H488.708V209.989H488.469C488.322 210.227 488.112 210.528 487.839 210.892C487.566 211.25 487.177 211.571 486.671 211.855C486.165 212.134 485.492 212.273 484.651 212.273ZM484.924 210.466C485.731 210.466 486.413 210.256 486.969 209.835C487.526 209.409 487.95 208.821 488.239 208.071C488.529 207.315 488.674 206.443 488.674 205.455C488.674 204.477 488.532 203.622 488.248 202.889C487.964 202.151 487.543 201.577 486.987 201.168C486.43 200.753 485.742 200.545 484.924 200.545C484.072 200.545 483.362 200.764 482.793 201.202C482.231 201.634 481.808 202.222 481.523 202.966C481.245 203.705 481.106 204.534 481.106 205.455C481.106 206.386 481.248 207.233 481.532 207.994C481.822 208.75 482.248 209.352 482.81 209.801C483.379 210.244 484.083 210.466 484.924 210.466Z" fill="white"/>
<path d="M422.114 260V242.545H428.011C429.375 242.545 430.494 242.778 431.369 243.244C432.244 243.705 432.892 244.338 433.312 245.145C433.733 245.952 433.943 246.869 433.943 247.898C433.943 248.926 433.733 249.838 433.312 250.634C432.892 251.429 432.247 252.054 431.378 252.509C430.509 252.957 429.398 253.182 428.045 253.182H423.273V251.273H427.977C428.909 251.273 429.659 251.136 430.227 250.864C430.801 250.591 431.216 250.205 431.472 249.705C431.733 249.199 431.864 248.597 431.864 247.898C431.864 247.199 431.733 246.588 431.472 246.065C431.21 245.543 430.793 245.139 430.219 244.855C429.645 244.565 428.886 244.42 427.943 244.42H424.227V260H422.114ZM430.33 252.159L434.625 260H432.17L427.943 252.159H430.33ZM441.045 260.307C440.215 260.307 439.462 260.151 438.786 259.838C438.11 259.52 437.573 259.062 437.175 258.466C436.778 257.864 436.579 257.136 436.579 256.284C436.579 255.534 436.727 254.926 437.022 254.46C437.317 253.989 437.712 253.619 438.207 253.352C438.701 253.085 439.246 252.886 439.843 252.756C440.445 252.619 441.05 252.511 441.658 252.432C442.454 252.33 443.099 252.253 443.593 252.202C444.093 252.145 444.457 252.051 444.684 251.92C444.917 251.79 445.033 251.562 445.033 251.239V251.17C445.033 250.33 444.803 249.676 444.343 249.21C443.888 248.744 443.198 248.511 442.272 248.511C441.312 248.511 440.559 248.722 440.013 249.142C439.468 249.562 439.085 250.011 438.863 250.489L436.954 249.807C437.295 249.011 437.749 248.392 438.317 247.949C438.891 247.5 439.516 247.187 440.192 247.011C440.874 246.83 441.545 246.739 442.204 246.739C442.624 246.739 443.107 246.79 443.653 246.892C444.204 246.989 444.735 247.19 445.246 247.497C445.763 247.804 446.192 248.267 446.533 248.886C446.874 249.506 447.045 250.335 447.045 251.375V260H445.033V258.227H444.931C444.795 258.511 444.567 258.815 444.249 259.139C443.931 259.463 443.508 259.739 442.979 259.966C442.451 260.193 441.806 260.307 441.045 260.307ZM441.352 258.5C442.147 258.5 442.817 258.344 443.363 258.031C443.914 257.719 444.329 257.315 444.607 256.821C444.891 256.327 445.033 255.807 445.033 255.261V253.42C444.948 253.523 444.761 253.616 444.471 253.702C444.187 253.781 443.857 253.852 443.482 253.915C443.113 253.972 442.752 254.023 442.4 254.068C442.053 254.108 441.772 254.142 441.556 254.17C441.033 254.239 440.545 254.349 440.09 254.503C439.641 254.651 439.278 254.875 438.999 255.176C438.727 255.472 438.59 255.875 438.59 256.386C438.59 257.085 438.849 257.614 439.366 257.972C439.888 258.324 440.55 258.5 441.352 258.5ZM455.659 260.273C454.568 260.273 453.605 259.997 452.77 259.446C451.935 258.889 451.281 258.105 450.81 257.094C450.338 256.077 450.102 254.875 450.102 253.489C450.102 252.114 450.338 250.92 450.81 249.909C451.281 248.898 451.938 248.116 452.778 247.565C453.619 247.014 454.591 246.739 455.693 246.739C456.545 246.739 457.219 246.881 457.713 247.165C458.213 247.443 458.594 247.761 458.855 248.119C459.122 248.472 459.33 248.761 459.477 248.989H459.648V242.545H461.659V260H459.716V257.989H459.477C459.33 258.227 459.119 258.528 458.847 258.892C458.574 259.25 458.185 259.571 457.679 259.855C457.173 260.134 456.5 260.273 455.659 260.273ZM455.932 258.466C456.739 258.466 457.42 258.256 457.977 257.835C458.534 257.409 458.957 256.821 459.247 256.071C459.537 255.315 459.682 254.443 459.682 253.455C459.682 252.477 459.54 251.622 459.256 250.889C458.972 250.151 458.551 249.577 457.994 249.168C457.438 248.753 456.75 248.545 455.932 248.545C455.08 248.545 454.369 248.764 453.801 249.202C453.239 249.634 452.815 250.222 452.531 250.966C452.253 251.705 452.114 252.534 452.114 253.455C452.114 254.386 452.256 255.233 452.54 255.994C452.83 256.75 453.256 257.352 453.818 257.801C454.386 258.244 455.091 258.466 455.932 258.466ZM465.622 260V246.909H467.634V260H465.622ZM466.645 244.727C466.253 244.727 465.915 244.594 465.631 244.327C465.352 244.06 465.213 243.739 465.213 243.364C465.213 242.989 465.352 242.668 465.631 242.401C465.915 242.134 466.253 242 466.645 242C467.037 242 467.372 242.134 467.651 242.401C467.935 242.668 468.077 242.989 468.077 243.364C468.077 243.739 467.935 244.06 467.651 244.327C467.372 244.594 467.037 244.727 466.645 244.727ZM479.567 254.648V246.909H481.579V260H479.567V257.784H479.431C479.124 258.449 478.647 259.014 477.999 259.48C477.352 259.94 476.533 260.17 475.545 260.17C474.727 260.17 473.999 259.991 473.363 259.634C472.727 259.27 472.227 258.724 471.863 257.997C471.499 257.264 471.317 256.341 471.317 255.227V246.909H473.329V255.091C473.329 256.045 473.596 256.807 474.13 257.375C474.67 257.943 475.357 258.227 476.192 258.227C476.692 258.227 477.201 258.099 477.718 257.844C478.241 257.588 478.678 257.196 479.031 256.668C479.388 256.139 479.567 255.466 479.567 254.648ZM494.536 249.841L492.729 250.352C492.615 250.051 492.447 249.759 492.226 249.474C492.01 249.185 491.714 248.946 491.339 248.759C490.964 248.571 490.484 248.477 489.899 248.477C489.098 248.477 488.43 248.662 487.896 249.031C487.368 249.395 487.104 249.858 487.104 250.42C487.104 250.92 487.286 251.315 487.649 251.605C488.013 251.895 488.581 252.136 489.354 252.33L491.297 252.807C492.467 253.091 493.339 253.526 493.913 254.111C494.487 254.69 494.774 255.437 494.774 256.352C494.774 257.102 494.558 257.773 494.126 258.364C493.7 258.955 493.104 259.42 492.337 259.761C491.57 260.102 490.678 260.273 489.661 260.273C488.325 260.273 487.22 259.983 486.345 259.403C485.47 258.824 484.916 257.977 484.683 256.864L486.592 256.386C486.774 257.091 487.118 257.619 487.624 257.972C488.135 258.324 488.803 258.5 489.626 258.5C490.564 258.5 491.308 258.301 491.859 257.903C492.416 257.5 492.695 257.017 492.695 256.455C492.695 256 492.536 255.619 492.217 255.312C491.899 255 491.411 254.767 490.751 254.614L488.57 254.102C487.371 253.818 486.49 253.378 485.928 252.781C485.371 252.179 485.092 251.426 485.092 250.523C485.092 249.784 485.3 249.131 485.714 248.562C486.135 247.994 486.706 247.548 487.428 247.224C488.155 246.901 488.979 246.739 489.899 246.739C491.195 246.739 492.212 247.023 492.95 247.591C493.695 248.159 494.223 248.909 494.536 249.841Z" fill="white"/>
<path d="M30.1136 499V481.545H36.0114C37.3807 481.545 38.5 481.793 39.3693 482.287C40.2443 482.776 40.892 483.438 41.3125 484.273C41.733 485.108 41.9432 486.04 41.9432 487.068C41.9432 488.097 41.733 489.031 41.3125 489.872C40.8977 490.713 40.2557 491.384 39.3864 491.884C38.517 492.378 37.4034 492.625 36.0455 492.625H31.8182V490.75H35.9773C36.9148 490.75 37.6676 490.588 38.2358 490.264C38.804 489.94 39.2159 489.503 39.4716 488.952C39.733 488.395 39.8636 487.767 39.8636 487.068C39.8636 486.369 39.733 485.744 39.4716 485.193C39.2159 484.642 38.8011 484.21 38.2273 483.898C37.6534 483.58 36.892 483.42 35.9432 483.42H32.2273V499H30.1136ZM47.0866 491.125V499H45.0753V481.545H47.0866V487.955H47.2571C47.5639 487.278 48.0241 486.741 48.6378 486.344C49.2571 485.94 50.081 485.739 51.1094 485.739C52.0014 485.739 52.7827 485.918 53.4531 486.276C54.1236 486.628 54.6435 487.17 55.0128 487.903C55.3878 488.631 55.5753 489.557 55.5753 490.682V499H53.5639V490.818C53.5639 489.778 53.294 488.974 52.7543 488.406C52.2202 487.832 51.4787 487.545 50.5298 487.545C49.8707 487.545 49.2798 487.685 48.7571 487.963C48.2401 488.241 47.831 488.648 47.5298 489.182C47.2344 489.716 47.0866 490.364 47.0866 491.125ZM63.1072 499.307C62.2777 499.307 61.5249 499.151 60.8487 498.838C60.1726 498.52 59.6357 498.062 59.2379 497.466C58.8402 496.864 58.6413 496.136 58.6413 495.284C58.6413 494.534 58.7891 493.926 59.0845 493.46C59.38 492.989 59.7749 492.619 60.2692 492.352C60.7635 492.085 61.3089 491.886 61.9055 491.756C62.5078 491.619 63.1129 491.511 63.7209 491.432C64.5163 491.33 65.1612 491.253 65.6555 491.202C66.1555 491.145 66.5192 491.051 66.7464 490.92C66.9794 490.79 67.0959 490.562 67.0959 490.239V490.17C67.0959 489.33 66.8658 488.676 66.4055 488.21C65.951 487.744 65.2607 487.511 64.3345 487.511C63.3743 487.511 62.6214 487.722 62.076 488.142C61.5305 488.562 61.147 489.011 60.9254 489.489L59.0163 488.807C59.3572 488.011 59.8118 487.392 60.38 486.949C60.9538 486.5 61.5788 486.187 62.255 486.011C62.9368 485.83 63.6072 485.739 64.2663 485.739C64.6868 485.739 65.1697 485.79 65.7152 485.892C66.2663 485.989 66.7976 486.19 67.3089 486.497C67.826 486.804 68.255 487.267 68.5959 487.886C68.9368 488.506 69.1072 489.335 69.1072 490.375V499H67.0959V497.227H66.9936C66.8572 497.511 66.63 497.815 66.3118 498.139C65.9936 498.463 65.5703 498.739 65.0419 498.966C64.5135 499.193 63.8686 499.307 63.1072 499.307ZM63.4141 497.5C64.2095 497.5 64.88 497.344 65.4254 497.031C65.9766 496.719 66.3913 496.315 66.6697 495.821C66.9538 495.327 67.0959 494.807 67.0959 494.261V492.42C67.0107 492.523 66.8232 492.616 66.5334 492.702C66.2493 492.781 65.9197 492.852 65.5447 492.915C65.1754 492.972 64.8146 493.023 64.4624 493.068C64.1158 493.108 63.8345 493.142 63.6186 493.17C63.0959 493.239 62.6072 493.349 62.1527 493.503C61.7038 493.651 61.3402 493.875 61.0618 494.176C60.7891 494.472 60.6527 494.875 60.6527 495.386C60.6527 496.085 60.9112 496.614 61.4283 496.972C61.951 497.324 62.6129 497.5 63.4141 497.5ZM82.0511 488.841L80.2443 489.352C80.1307 489.051 79.9631 488.759 79.7415 488.474C79.5256 488.185 79.2301 487.946 78.8551 487.759C78.4801 487.571 78 487.477 77.4148 487.477C76.6136 487.477 75.946 487.662 75.4119 488.031C74.8835 488.395 74.6193 488.858 74.6193 489.42C74.6193 489.92 74.8011 490.315 75.1648 490.605C75.5284 490.895 76.0966 491.136 76.8693 491.33L78.8125 491.807C79.983 492.091 80.8551 492.526 81.429 493.111C82.0028 493.69 82.2898 494.437 82.2898 495.352C82.2898 496.102 82.0739 496.773 81.642 497.364C81.2159 497.955 80.6193 498.42 79.8523 498.761C79.0852 499.102 78.1932 499.273 77.1761 499.273C75.8409 499.273 74.7358 498.983 73.8608 498.403C72.9858 497.824 72.4318 496.977 72.1989 495.864L74.108 495.386C74.2898 496.091 74.6335 496.619 75.1392 496.972C75.6506 497.324 76.3182 497.5 77.142 497.5C78.0795 497.5 78.8239 497.301 79.375 496.903C79.9318 496.5 80.2102 496.017 80.2102 495.455C80.2102 495 80.0511 494.619 79.733 494.312C79.4148 494 78.9261 493.767 78.267 493.614L76.0852 493.102C74.8864 492.818 74.0057 492.378 73.4432 491.781C72.8864 491.179 72.608 490.426 72.608 489.523C72.608 488.784 72.8153 488.131 73.2301 487.562C73.6506 486.994 74.2216 486.548 74.9432 486.224C75.6705 485.901 76.4943 485.739 77.4148 485.739C78.7102 485.739 79.7273 486.023 80.4659 486.591C81.2102 487.159 81.7386 487.909 82.0511 488.841ZM90.8061 499.273C89.5447 499.273 88.4567 498.994 87.5419 498.438C86.6328 497.875 85.9311 497.091 85.4368 496.085C84.9482 495.074 84.7038 493.898 84.7038 492.557C84.7038 491.216 84.9482 490.034 85.4368 489.011C85.9311 487.983 86.6186 487.182 87.4993 486.608C88.3857 486.028 89.4197 485.739 90.6016 485.739C91.2834 485.739 91.9567 485.852 92.6214 486.08C93.2862 486.307 93.8913 486.676 94.4368 487.188C94.9822 487.693 95.4169 488.364 95.7408 489.199C96.0646 490.034 96.2266 491.062 96.2266 492.284V493.136H86.1357V491.398H94.1811C94.1811 490.659 94.0334 490 93.7379 489.42C93.4482 488.841 93.0334 488.384 92.4936 488.048C91.9595 487.713 91.3288 487.545 90.6016 487.545C89.8004 487.545 89.1072 487.744 88.522 488.142C87.9425 488.534 87.4964 489.045 87.1839 489.676C86.8714 490.307 86.7152 490.983 86.7152 491.705V492.864C86.7152 493.852 86.8857 494.69 87.2266 495.378C87.5732 496.06 88.0533 496.58 88.6669 496.938C89.2805 497.29 89.9936 497.466 90.8061 497.466C91.3345 497.466 91.8118 497.392 92.2379 497.244C92.6697 497.091 93.0419 496.864 93.3544 496.562C93.6669 496.256 93.9084 495.875 94.0788 495.42L96.022 495.966C95.8175 496.625 95.4737 497.205 94.9908 497.705C94.5078 498.199 93.9112 498.585 93.201 498.864C92.4908 499.136 91.6925 499.273 90.8061 499.273Z" fill="white"/>
<path d="M43.9545 540.545V558H41.9091L32.3977 544.295H32.2273V558H30.1136V540.545H32.1591L41.7045 554.284H41.875V540.545H43.9545ZM56.1612 552.648V544.909H58.1726V558H56.1612V555.784H56.0249C55.718 556.449 55.2408 557.014 54.593 557.48C53.9453 557.94 53.1271 558.17 52.1385 558.17C51.3203 558.17 50.593 557.991 49.9567 557.634C49.3203 557.27 48.8203 556.724 48.4567 555.997C48.093 555.264 47.9112 554.341 47.9112 553.227V544.909H49.9226V553.091C49.9226 554.045 50.1896 554.807 50.7237 555.375C51.2635 555.943 51.951 556.227 52.7862 556.227C53.2862 556.227 53.7947 556.099 54.3118 555.844C54.8345 555.588 55.272 555.196 55.6243 554.668C55.9822 554.139 56.1612 553.466 56.1612 552.648ZM61.8565 558V544.909H63.7997V546.955H63.9702C64.2429 546.256 64.6832 545.713 65.2912 545.327C65.8991 544.935 66.6293 544.739 67.4815 544.739C68.3452 544.739 69.0639 544.935 69.6378 545.327C70.2173 545.713 70.669 546.256 70.9929 546.955H71.1293C71.4645 546.278 71.9673 545.741 72.6378 545.344C73.3082 544.94 74.1122 544.739 75.0497 544.739C76.2202 544.739 77.1776 545.105 77.9219 545.838C78.6662 546.565 79.0384 547.699 79.0384 549.239V558H77.027V549.239C77.027 548.273 76.7628 547.582 76.2344 547.168C75.706 546.753 75.0838 546.545 74.3679 546.545C73.4474 546.545 72.7344 546.824 72.2287 547.381C71.723 547.932 71.4702 548.631 71.4702 549.477V558H69.4247V549.034C69.4247 548.29 69.1832 547.69 68.7003 547.236C68.2173 546.776 67.5952 546.545 66.8338 546.545C66.3111 546.545 65.8224 546.685 65.3679 546.963C64.919 547.241 64.5554 547.628 64.277 548.122C64.0043 548.611 63.8679 549.176 63.8679 549.818V558H61.8565ZM88.2045 558.273C86.9432 558.273 85.8551 557.994 84.9403 557.438C84.0312 556.875 83.3295 556.091 82.8352 555.085C82.3466 554.074 82.1023 552.898 82.1023 551.557C82.1023 550.216 82.3466 549.034 82.8352 548.011C83.3295 546.983 84.017 546.182 84.8977 545.608C85.7841 545.028 86.8182 544.739 88 544.739C88.6818 544.739 89.3551 544.852 90.0199 545.08C90.6847 545.307 91.2898 545.676 91.8352 546.188C92.3807 546.693 92.8153 547.364 93.1392 548.199C93.4631 549.034 93.625 550.062 93.625 551.284V552.136H83.5341V550.398H91.5795C91.5795 549.659 91.4318 549 91.1364 548.42C90.8466 547.841 90.4318 547.384 89.892 547.048C89.358 546.713 88.7273 546.545 88 546.545C87.1989 546.545 86.5057 546.744 85.9205 547.142C85.3409 547.534 84.8949 548.045 84.5824 548.676C84.2699 549.307 84.1136 549.983 84.1136 550.705V551.864C84.1136 552.852 84.2841 553.69 84.625 554.378C84.9716 555.06 85.4517 555.58 86.0653 555.938C86.679 556.29 87.392 556.466 88.2045 556.466C88.733 556.466 89.2102 556.392 89.6364 556.244C90.0682 556.091 90.4403 555.864 90.7528 555.562C91.0653 555.256 91.3068 554.875 91.4773 554.42L93.4205 554.966C93.2159 555.625 92.8722 556.205 92.3892 556.705C91.9063 557.199 91.3097 557.585 90.5994 557.864C89.8892 558.136 89.0909 558.273 88.2045 558.273ZM96.6847 558V544.909H98.6278V546.886H98.7642C99.0028 546.239 99.4347 545.713 100.06 545.31C100.685 544.906 101.389 544.705 102.173 544.705C102.321 544.705 102.506 544.707 102.727 544.713C102.949 544.719 103.116 544.727 103.23 544.739V546.784C103.162 546.767 103.006 546.741 102.761 546.707C102.523 546.668 102.27 546.648 102.003 546.648C101.366 546.648 100.798 546.781 100.298 547.048C99.804 547.31 99.4119 547.673 99.1222 548.139C98.8381 548.599 98.696 549.125 98.696 549.716V558H96.6847ZM109.467 558.307C108.637 558.307 107.884 558.151 107.208 557.838C106.532 557.52 105.995 557.062 105.597 556.466C105.2 555.864 105.001 555.136 105.001 554.284C105.001 553.534 105.148 552.926 105.444 552.46C105.739 551.989 106.134 551.619 106.629 551.352C107.123 551.085 107.668 550.886 108.265 550.756C108.867 550.619 109.472 550.511 110.08 550.432C110.876 550.33 111.521 550.253 112.015 550.202C112.515 550.145 112.879 550.051 113.106 549.92C113.339 549.79 113.455 549.562 113.455 549.239V549.17C113.455 548.33 113.225 547.676 112.765 547.21C112.31 546.744 111.62 546.511 110.694 546.511C109.734 546.511 108.981 546.722 108.435 547.142C107.89 547.562 107.506 548.011 107.285 548.489L105.376 547.807C105.717 547.011 106.171 546.392 106.739 545.949C107.313 545.5 107.938 545.187 108.614 545.011C109.296 544.83 109.967 544.739 110.626 544.739C111.046 544.739 111.529 544.79 112.075 544.892C112.626 544.989 113.157 545.19 113.668 545.497C114.185 545.804 114.614 546.267 114.955 546.886C115.296 547.506 115.467 548.335 115.467 549.375V558H113.455V556.227H113.353C113.217 556.511 112.989 556.815 112.671 557.139C112.353 557.463 111.93 557.739 111.401 557.966C110.873 558.193 110.228 558.307 109.467 558.307ZM109.773 556.5C110.569 556.5 111.239 556.344 111.785 556.031C112.336 555.719 112.751 555.315 113.029 554.821C113.313 554.327 113.455 553.807 113.455 553.261V551.42C113.37 551.523 113.183 551.616 112.893 551.702C112.609 551.781 112.279 551.852 111.904 551.915C111.535 551.972 111.174 552.023 110.822 552.068C110.475 552.108 110.194 552.142 109.978 552.17C109.455 552.239 108.967 552.349 108.512 552.503C108.063 552.651 107.7 552.875 107.421 553.176C107.148 553.472 107.012 553.875 107.012 554.386C107.012 555.085 107.271 555.614 107.788 555.972C108.31 556.324 108.972 556.5 109.773 556.5ZM124.831 544.909V546.614H118.047V544.909H124.831ZM120.024 541.773H122.036V554.25C122.036 554.818 122.118 555.244 122.283 555.528C122.453 555.807 122.669 555.994 122.93 556.091C123.197 556.182 123.479 556.227 123.774 556.227C123.996 556.227 124.178 556.216 124.32 556.193C124.462 556.165 124.575 556.142 124.661 556.125L125.07 557.932C124.933 557.983 124.743 558.034 124.499 558.085C124.254 558.142 123.945 558.17 123.57 558.17C123.001 558.17 122.445 558.048 121.899 557.804C121.359 557.56 120.911 557.188 120.553 556.688C120.2 556.188 120.024 555.557 120.024 554.795V541.773ZM133.034 558.273C131.852 558.273 130.815 557.991 129.923 557.429C129.037 556.866 128.344 556.08 127.844 555.068C127.349 554.057 127.102 552.875 127.102 551.523C127.102 550.159 127.349 548.969 127.844 547.952C128.344 546.935 129.037 546.145 129.923 545.582C130.815 545.02 131.852 544.739 133.034 544.739C134.216 544.739 135.25 545.02 136.136 545.582C137.028 546.145 137.722 546.935 138.216 547.952C138.716 548.969 138.966 550.159 138.966 551.523C138.966 552.875 138.716 554.057 138.216 555.068C137.722 556.08 137.028 556.866 136.136 557.429C135.25 557.991 134.216 558.273 133.034 558.273ZM133.034 556.466C133.932 556.466 134.67 556.236 135.25 555.776C135.83 555.315 136.259 554.71 136.537 553.96C136.815 553.21 136.955 552.398 136.955 551.523C136.955 550.648 136.815 549.832 136.537 549.077C136.259 548.321 135.83 547.71 135.25 547.244C134.67 546.778 133.932 546.545 133.034 546.545C132.136 546.545 131.398 546.778 130.818 547.244C130.239 547.71 129.81 548.321 129.531 549.077C129.253 549.832 129.114 550.648 129.114 551.523C129.114 552.398 129.253 553.21 129.531 553.96C129.81 554.71 130.239 555.315 130.818 555.776C131.398 556.236 132.136 556.466 133.034 556.466ZM142.036 558V544.909H143.979V546.886H144.116C144.354 546.239 144.786 545.713 145.411 545.31C146.036 544.906 146.741 544.705 147.525 544.705C147.673 544.705 147.857 544.707 148.079 544.713C148.3 544.719 148.468 544.727 148.582 544.739V546.784C148.513 546.767 148.357 546.741 148.113 546.707C147.874 546.668 147.621 546.648 147.354 546.648C146.718 546.648 146.15 546.781 145.65 547.048C145.156 547.31 144.763 547.673 144.474 548.139C144.19 548.599 144.048 549.125 144.048 549.716V558H142.036Z" fill="white"/>
<path d="M432.114 499V481.545H434.227V490.205H434.432L442.273 481.545H445.034L437.705 489.42L445.034 499H442.477L436.409 490.886L434.227 493.341V499H432.114ZM452.025 499.273C450.763 499.273 449.675 498.994 448.761 498.438C447.852 497.875 447.15 497.091 446.656 496.085C446.167 495.074 445.923 493.898 445.923 492.557C445.923 491.216 446.167 490.034 446.656 489.011C447.15 487.983 447.837 487.182 448.718 486.608C449.604 486.028 450.638 485.739 451.82 485.739C452.502 485.739 453.175 485.852 453.84 486.08C454.505 486.307 455.11 486.676 455.656 487.188C456.201 487.693 456.636 488.364 456.96 489.199C457.283 490.034 457.445 491.062 457.445 492.284V493.136H447.354V491.398H455.4C455.4 490.659 455.252 490 454.957 489.42C454.667 488.841 454.252 488.384 453.712 488.048C453.178 487.713 452.548 487.545 451.82 487.545C451.019 487.545 450.326 487.744 449.741 488.142C449.161 488.534 448.715 489.045 448.403 489.676C448.09 490.307 447.934 490.983 447.934 491.705V492.864C447.934 493.852 448.104 494.69 448.445 495.378C448.792 496.06 449.272 496.58 449.886 496.938C450.499 497.29 451.212 497.466 452.025 497.466C452.553 497.466 453.031 497.392 453.457 497.244C453.888 497.091 454.261 496.864 454.573 496.562C454.886 496.256 455.127 495.875 455.298 495.42L457.241 495.966C457.036 496.625 456.692 497.205 456.21 497.705C455.727 498.199 455.13 498.585 454.42 498.864C453.71 499.136 452.911 499.273 452.025 499.273ZM461.402 503.909C461.061 503.909 460.757 503.881 460.49 503.824C460.223 503.773 460.038 503.722 459.936 503.67L460.447 501.898C460.936 502.023 461.368 502.068 461.743 502.034C462.118 502 462.45 501.832 462.74 501.531C463.036 501.236 463.305 500.756 463.55 500.091L463.925 499.068L459.084 485.909H461.266L464.879 496.341H465.016L468.629 485.909H470.811L465.254 500.909C465.004 501.585 464.695 502.145 464.325 502.588C463.956 503.037 463.527 503.369 463.038 503.585C462.555 503.801 462.01 503.909 461.402 503.909Z" fill="white"/>
<path d="M432.114 558V540.545H438.011C439.375 540.545 440.494 540.778 441.369 541.244C442.244 541.705 442.892 542.338 443.312 543.145C443.733 543.952 443.943 544.869 443.943 545.898C443.943 546.926 443.733 547.838 443.312 548.634C442.892 549.429 442.247 550.054 441.378 550.509C440.509 550.957 439.398 551.182 438.045 551.182H433.273V549.273H437.977C438.909 549.273 439.659 549.136 440.227 548.864C440.801 548.591 441.216 548.205 441.472 547.705C441.733 547.199 441.864 546.597 441.864 545.898C441.864 545.199 441.733 544.588 441.472 544.065C441.21 543.543 440.793 543.139 440.219 542.855C439.645 542.565 438.886 542.42 437.943 542.42H434.227V558H432.114ZM440.33 550.159L444.625 558H442.17L437.943 550.159H440.33ZM451.045 558.307C450.215 558.307 449.462 558.151 448.786 557.838C448.11 557.52 447.573 557.062 447.175 556.466C446.778 555.864 446.579 555.136 446.579 554.284C446.579 553.534 446.727 552.926 447.022 552.46C447.317 551.989 447.712 551.619 448.207 551.352C448.701 551.085 449.246 550.886 449.843 550.756C450.445 550.619 451.05 550.511 451.658 550.432C452.454 550.33 453.099 550.253 453.593 550.202C454.093 550.145 454.457 550.051 454.684 549.92C454.917 549.79 455.033 549.562 455.033 549.239V549.17C455.033 548.33 454.803 547.676 454.343 547.21C453.888 546.744 453.198 546.511 452.272 546.511C451.312 546.511 450.559 546.722 450.013 547.142C449.468 547.562 449.085 548.011 448.863 548.489L446.954 547.807C447.295 547.011 447.749 546.392 448.317 545.949C448.891 545.5 449.516 545.187 450.192 545.011C450.874 544.83 451.545 544.739 452.204 544.739C452.624 544.739 453.107 544.79 453.653 544.892C454.204 544.989 454.735 545.19 455.246 545.497C455.763 545.804 456.192 546.267 456.533 546.886C456.874 547.506 457.045 548.335 457.045 549.375V558H455.033V556.227H454.931C454.795 556.511 454.567 556.815 454.249 557.139C453.931 557.463 453.508 557.739 452.979 557.966C452.451 558.193 451.806 558.307 451.045 558.307ZM451.352 556.5C452.147 556.5 452.817 556.344 453.363 556.031C453.914 555.719 454.329 555.315 454.607 554.821C454.891 554.327 455.033 553.807 455.033 553.261V551.42C454.948 551.523 454.761 551.616 454.471 551.702C454.187 551.781 453.857 551.852 453.482 551.915C453.113 551.972 452.752 552.023 452.4 552.068C452.053 552.108 451.772 552.142 451.556 552.17C451.033 552.239 450.545 552.349 450.09 552.503C449.641 552.651 449.278 552.875 448.999 553.176C448.727 553.472 448.59 553.875 448.59 554.386C448.59 555.085 448.849 555.614 449.366 555.972C449.888 556.324 450.55 556.5 451.352 556.5ZM462.727 550.125V558H460.716V544.909H462.659V546.955H462.83C463.136 546.29 463.602 545.756 464.227 545.352C464.852 544.943 465.659 544.739 466.648 544.739C467.534 544.739 468.31 544.92 468.974 545.284C469.639 545.642 470.156 546.188 470.526 546.92C470.895 547.648 471.08 548.568 471.08 549.682V558H469.068V549.818C469.068 548.79 468.801 547.989 468.267 547.415C467.733 546.835 467 546.545 466.068 546.545C465.426 546.545 464.852 546.685 464.347 546.963C463.847 547.241 463.452 547.648 463.162 548.182C462.872 548.716 462.727 549.364 462.727 550.125ZM480.039 563.182C479.067 563.182 478.232 563.057 477.533 562.807C476.835 562.562 476.252 562.239 475.786 561.835C475.326 561.438 474.96 561.011 474.687 560.557L476.289 559.432C476.471 559.67 476.701 559.943 476.979 560.25C477.258 560.562 477.638 560.832 478.121 561.06C478.61 561.293 479.249 561.409 480.039 561.409C481.096 561.409 481.968 561.153 482.656 560.642C483.343 560.131 483.687 559.33 483.687 558.239V555.58H483.516C483.369 555.818 483.158 556.114 482.886 556.466C482.619 556.812 482.232 557.122 481.727 557.395C481.227 557.662 480.55 557.795 479.698 557.795C478.641 557.795 477.692 557.545 476.852 557.045C476.016 556.545 475.354 555.818 474.866 554.864C474.383 553.909 474.141 552.75 474.141 551.386C474.141 550.045 474.377 548.878 474.849 547.884C475.32 546.884 475.977 546.111 476.817 545.565C477.658 545.014 478.63 544.739 479.732 544.739C480.585 544.739 481.261 544.881 481.761 545.165C482.266 545.443 482.653 545.761 482.92 546.119C483.192 546.472 483.403 546.761 483.55 546.989H483.755V544.909H485.698V558.375C485.698 559.5 485.442 560.415 484.931 561.119C484.425 561.83 483.744 562.349 482.886 562.679C482.033 563.014 481.085 563.182 480.039 563.182ZM479.971 555.989C480.778 555.989 481.46 555.804 482.016 555.435C482.573 555.065 482.996 554.534 483.286 553.841C483.576 553.148 483.721 552.318 483.721 551.352C483.721 550.409 483.579 549.577 483.295 548.855C483.011 548.134 482.59 547.568 482.033 547.159C481.477 546.75 480.789 546.545 479.971 546.545C479.119 546.545 478.408 546.761 477.84 547.193C477.278 547.625 476.854 548.205 476.57 548.932C476.292 549.659 476.153 550.466 476.153 551.352C476.153 552.261 476.295 553.065 476.579 553.764C476.869 554.457 477.295 555.003 477.857 555.401C478.425 555.793 479.13 555.989 479.971 555.989ZM494.869 558.273C493.607 558.273 492.519 557.994 491.604 557.438C490.695 556.875 489.994 556.091 489.499 555.085C489.011 554.074 488.766 552.898 488.766 551.557C488.766 550.216 489.011 549.034 489.499 548.011C489.994 546.983 490.681 546.182 491.562 545.608C492.448 545.028 493.482 544.739 494.664 544.739C495.346 544.739 496.019 544.852 496.684 545.08C497.349 545.307 497.954 545.676 498.499 546.188C499.045 546.693 499.479 547.364 499.803 548.199C500.127 549.034 500.289 550.062 500.289 551.284V552.136H490.198V550.398H498.244C498.244 549.659 498.096 549 497.8 548.42C497.511 547.841 497.096 547.384 496.556 547.048C496.022 546.713 495.391 546.545 494.664 546.545C493.863 546.545 493.17 546.744 492.585 547.142C492.005 547.534 491.559 548.045 491.246 548.676C490.934 549.307 490.778 549.983 490.778 550.705V551.864C490.778 552.852 490.948 553.69 491.289 554.378C491.636 555.06 492.116 555.58 492.729 555.938C493.343 556.29 494.056 556.466 494.869 556.466C495.397 556.466 495.874 556.392 496.3 556.244C496.732 556.091 497.104 555.864 497.417 555.562C497.729 555.256 497.971 554.875 498.141 554.42L500.085 554.966C499.88 555.625 499.536 556.205 499.053 556.705C498.57 557.199 497.974 557.585 497.263 557.864C496.553 558.136 495.755 558.273 494.869 558.273Z" fill="white"/>
<path d="M432.114 617V599.545H438.011C439.375 599.545 440.494 599.778 441.369 600.244C442.244 600.705 442.892 601.338 443.312 602.145C443.733 602.952 443.943 603.869 443.943 604.898C443.943 605.926 443.733 606.838 443.312 607.634C442.892 608.429 442.247 609.054 441.378 609.509C440.509 609.957 439.398 610.182 438.045 610.182H433.273V608.273H437.977C438.909 608.273 439.659 608.136 440.227 607.864C440.801 607.591 441.216 607.205 441.472 606.705C441.733 606.199 441.864 605.597 441.864 604.898C441.864 604.199 441.733 603.588 441.472 603.065C441.21 602.543 440.793 602.139 440.219 601.855C439.645 601.565 438.886 601.42 437.943 601.42H434.227V617H432.114ZM440.33 609.159L444.625 617H442.17L437.943 609.159H440.33ZM452.37 617.273C451.188 617.273 450.151 616.991 449.259 616.429C448.373 615.866 447.68 615.08 447.18 614.068C446.685 613.057 446.438 611.875 446.438 610.523C446.438 609.159 446.685 607.969 447.18 606.952C447.68 605.935 448.373 605.145 449.259 604.582C450.151 604.02 451.188 603.739 452.37 603.739C453.552 603.739 454.586 604.02 455.472 604.582C456.364 605.145 457.058 605.935 457.552 606.952C458.052 607.969 458.302 609.159 458.302 610.523C458.302 611.875 458.052 613.057 457.552 614.068C457.058 615.08 456.364 615.866 455.472 616.429C454.586 616.991 453.552 617.273 452.37 617.273ZM452.37 615.466C453.268 615.466 454.006 615.236 454.586 614.776C455.165 614.315 455.594 613.71 455.873 612.96C456.151 612.21 456.29 611.398 456.29 610.523C456.29 609.648 456.151 608.832 455.873 608.077C455.594 607.321 455.165 606.71 454.586 606.244C454.006 605.778 453.268 605.545 452.37 605.545C451.472 605.545 450.734 605.778 450.154 606.244C449.575 606.71 449.146 607.321 448.867 608.077C448.589 608.832 448.45 609.648 448.45 610.523C448.45 611.398 448.589 612.21 448.867 612.96C449.146 613.71 449.575 614.315 450.154 614.776C450.734 615.236 451.472 615.466 452.37 615.466ZM466.69 617.273C465.509 617.273 464.472 616.991 463.58 616.429C462.693 615.866 462 615.08 461.5 614.068C461.006 613.057 460.759 611.875 460.759 610.523C460.759 609.159 461.006 607.969 461.5 606.952C462 605.935 462.693 605.145 463.58 604.582C464.472 604.02 465.509 603.739 466.69 603.739C467.872 603.739 468.906 604.02 469.793 604.582C470.685 605.145 471.378 605.935 471.872 606.952C472.372 607.969 472.622 609.159 472.622 610.523C472.622 611.875 472.372 613.057 471.872 614.068C471.378 615.08 470.685 615.866 469.793 616.429C468.906 616.991 467.872 617.273 466.69 617.273ZM466.69 615.466C467.588 615.466 468.327 615.236 468.906 614.776C469.486 614.315 469.915 613.71 470.193 612.96C470.472 612.21 470.611 611.398 470.611 610.523C470.611 609.648 470.472 608.832 470.193 608.077C469.915 607.321 469.486 606.71 468.906 606.244C468.327 605.778 467.588 605.545 466.69 605.545C465.793 605.545 465.054 605.778 464.474 606.244C463.895 606.71 463.466 607.321 463.188 608.077C462.909 608.832 462.77 609.648 462.77 610.523C462.77 611.398 462.909 612.21 463.188 612.96C463.466 613.71 463.895 614.315 464.474 614.776C465.054 615.236 465.793 615.466 466.69 615.466ZM481.386 603.909V605.614H474.602V603.909H481.386ZM476.579 600.773H478.59V613.25C478.59 613.818 478.673 614.244 478.837 614.528C479.008 614.807 479.224 614.994 479.485 615.091C479.752 615.182 480.033 615.227 480.329 615.227C480.55 615.227 480.732 615.216 480.874 615.193C481.016 615.165 481.13 615.142 481.215 615.125L481.624 616.932C481.488 616.983 481.298 617.034 481.053 617.085C480.809 617.142 480.499 617.17 480.124 617.17C479.556 617.17 478.999 617.048 478.454 616.804C477.914 616.56 477.465 616.188 477.107 615.688C476.755 615.188 476.579 614.557 476.579 613.795V600.773ZM505.275 599.545V617H503.229L493.718 603.295H493.548V617H491.434V599.545H493.479L503.025 613.284H503.195V599.545H505.275ZM514.55 617.273C513.368 617.273 512.331 616.991 511.439 616.429C510.553 615.866 509.859 615.08 509.359 614.068C508.865 613.057 508.618 611.875 508.618 610.523C508.618 609.159 508.865 607.969 509.359 606.952C509.859 605.935 510.553 605.145 511.439 604.582C512.331 604.02 513.368 603.739 514.55 603.739C515.732 603.739 516.766 604.02 517.652 604.582C518.544 605.145 519.237 605.935 519.732 606.952C520.232 607.969 520.482 609.159 520.482 610.523C520.482 611.875 520.232 613.057 519.732 614.068C519.237 615.08 518.544 615.866 517.652 616.429C516.766 616.991 515.732 617.273 514.55 617.273ZM514.55 615.466C515.447 615.466 516.186 615.236 516.766 614.776C517.345 614.315 517.774 613.71 518.053 612.96C518.331 612.21 518.47 611.398 518.47 610.523C518.47 609.648 518.331 608.832 518.053 608.077C517.774 607.321 517.345 606.71 516.766 606.244C516.186 605.778 515.447 605.545 514.55 605.545C513.652 605.545 512.913 605.778 512.334 606.244C511.754 606.71 511.325 607.321 511.047 608.077C510.768 608.832 510.629 609.648 510.629 610.523C510.629 611.398 510.768 612.21 511.047 612.96C511.325 613.71 511.754 614.315 512.334 614.776C512.913 615.236 513.652 615.466 514.55 615.466ZM529.245 603.909V605.614H522.461V603.909H529.245ZM524.438 600.773H526.45V613.25C526.45 613.818 526.532 614.244 526.697 614.528C526.867 614.807 527.083 614.994 527.344 615.091C527.612 615.182 527.893 615.227 528.188 615.227C528.41 615.227 528.592 615.216 528.734 615.193C528.876 615.165 528.989 615.142 529.075 615.125L529.484 616.932C529.347 616.983 529.157 617.034 528.913 617.085C528.668 617.142 528.359 617.17 527.984 617.17C527.415 617.17 526.859 617.048 526.313 616.804C525.773 616.56 525.325 616.188 524.967 615.688C524.614 615.188 524.438 614.557 524.438 613.795V600.773ZM537.619 617.273C536.357 617.273 535.269 616.994 534.354 616.438C533.445 615.875 532.744 615.091 532.249 614.085C531.761 613.074 531.516 611.898 531.516 610.557C531.516 609.216 531.761 608.034 532.249 607.011C532.744 605.983 533.431 605.182 534.312 604.608C535.198 604.028 536.232 603.739 537.414 603.739C538.096 603.739 538.769 603.852 539.434 604.08C540.099 604.307 540.704 604.676 541.249 605.188C541.795 605.693 542.229 606.364 542.553 607.199C542.877 608.034 543.039 609.062 543.039 610.284V611.136H532.948V609.398H540.994C540.994 608.659 540.846 608 540.55 607.42C540.261 606.841 539.846 606.384 539.306 606.048C538.772 605.713 538.141 605.545 537.414 605.545C536.613 605.545 535.92 605.744 535.335 606.142C534.755 606.534 534.309 607.045 533.996 607.676C533.684 608.307 533.528 608.983 533.528 609.705V610.864C533.528 611.852 533.698 612.69 534.039 613.378C534.386 614.06 534.866 614.58 535.479 614.938C536.093 615.29 536.806 615.466 537.619 615.466C538.147 615.466 538.624 615.392 539.05 615.244C539.482 615.091 539.854 614.864 540.167 614.562C540.479 614.256 540.721 613.875 540.891 613.42L542.835 613.966C542.63 614.625 542.286 615.205 541.803 615.705C541.32 616.199 540.724 616.585 540.013 616.864C539.303 617.136 538.505 617.273 537.619 617.273Z" fill="white"/>
<line x1="406" y1="410" x2="406" y2="644" stroke="#515562" stroke-width="2"/>
<line x1="406" y1="10" x2="406" y2="410" stroke="#515562" stroke-width="2"/>
<path d="M207 405L207 15" stroke="#274B4C" stroke-width="2"/>
<path d="M12 210L402 210" stroke="#274B4C" stroke-width="2"/>
<path d="M12 110L402 110" stroke="#274B4C" stroke-width="2"/>
<path d="M12 61L402 61" stroke="#274B4C" stroke-opacity="0.34" stroke-width="2"/>
<path d="M12 159L402 159" stroke="#274B4C" stroke-opacity="0.34" stroke-width="2"/>
<path d="M12 256H402" stroke="#274B4C" stroke-opacity="0.34" stroke-width="2"/>
<path d="M12 354H402" stroke="#274B4C" stroke-opacity="0.34" stroke-width="2"/>
<path d="M12 305H402" stroke="#274B4C" stroke-width="2"/>
<path d="M110 405L110 15" stroke="#274B4C" stroke-width="2"/>
<path d="M61 405L61 15" stroke="#274B4C" stroke-opacity="0.34" stroke-width="2"/>
<path d="M159 405L159 15" stroke="#274B4C" stroke-opacity="0.34" stroke-width="2"/>
<path d="M256 405L256 15" stroke="#274B4C" stroke-opacity="0.34" stroke-width="2"/>
<path d="M353 405L353 15" stroke="#274B4C" stroke-opacity="0.34" stroke-width="2"/>
<path d="M305 405L305 15" stroke="#274B4C" stroke-width="2"/>
</g>
<defs>
<clipPath id="clip0_2_1194">
<rect width="836" height="654" fill="white"/>
</clipPath>
</defs>
</svg>
