<svg width="836" height="654" viewBox="0 0 836 654" fill="none" xmlns="http://www.w3.org/2000/svg">
<g clip-path="url(#clip0_2_1194)">
<rect width="836" height="654" fill="white"/>
<rect x="407" y="10" width="421" height="398" fill="#D9D9D9"/>
<rect width="836" height="654" fill="black"/>
<rect x="7" y="10" width="821" height="634" fill="#687169"/>
<path d="M7 10H407V410H7V10Z" fill="#25483B"/>
<rect x="12" y="15" width="390" height="390" fill="#31604F"/>
<line x1="7" y1="409.001" x2="828" y2="408.999" stroke="#515562" stroke-width="2"/>
<path d="M14.8182 441V417.727H28.8636V420.227H17.6364V428.091H28.1364V430.591H17.6364V438.5H29.0455V441H14.8182ZM40.1705 441.364C38.7159 441.364 37.4318 440.996 36.3182 440.261C35.2045 439.519 34.3333 438.473 33.7045 437.125C33.0758 435.769 32.7614 434.167 32.7614 432.318C32.7614 430.485 33.0758 428.894 33.7045 427.545C34.3333 426.197 35.2083 425.155 36.3295 424.42C37.4508 423.686 38.7462 423.318 40.2159 423.318C41.3523 423.318 42.25 423.508 42.9091 423.886C43.5758 424.258 44.0833 424.682 44.4318 425.159C44.7879 425.629 45.0644 426.015 45.2614 426.318H45.4886V417.727H48.1705V441H45.5795V438.318H45.2614C45.0644 438.636 44.7841 439.038 44.4205 439.523C44.0568 440 43.5379 440.428 42.8636 440.807C42.1894 441.178 41.2917 441.364 40.1705 441.364ZM40.5341 438.955C41.6098 438.955 42.5189 438.674 43.2614 438.114C44.0038 437.545 44.5682 436.761 44.9545 435.761C45.3409 434.754 45.5341 433.591 45.5341 432.273C45.5341 430.97 45.3447 429.83 44.9659 428.852C44.5871 427.867 44.0265 427.102 43.2841 426.557C42.5417 426.004 41.625 425.727 40.5341 425.727C39.3977 425.727 38.4508 426.019 37.6932 426.602C36.9432 427.178 36.3788 427.962 36 428.955C35.6288 429.939 35.4432 431.045 35.4432 432.273C35.4432 433.515 35.6326 434.644 36.0114 435.659C36.3977 436.667 36.9659 437.47 37.7159 438.068C38.4735 438.659 39.4129 438.955 40.5341 438.955ZM60.5 447.909C59.2045 447.909 58.0909 447.742 57.1591 447.409C56.2273 447.083 55.4508 446.652 54.8295 446.114C54.2159 445.583 53.7273 445.015 53.3636 444.409L55.5 442.909C55.7424 443.227 56.0492 443.591 56.4205 444C56.7917 444.417 57.2992 444.777 57.9432 445.08C58.5947 445.39 59.447 445.545 60.5 445.545C61.9091 445.545 63.072 445.205 63.9886 444.523C64.9053 443.841 65.3636 442.773 65.3636 441.318V437.773H65.1364C64.9394 438.091 64.6591 438.485 64.2955 438.955C63.9394 439.417 63.4242 439.83 62.75 440.193C62.0833 440.549 61.1818 440.727 60.0455 440.727C58.6364 440.727 57.3712 440.394 56.25 439.727C55.1364 439.061 54.2538 438.091 53.6023 436.818C52.9583 435.545 52.6364 434 52.6364 432.182C52.6364 430.394 52.9508 428.837 53.5795 427.511C54.2083 426.178 55.0833 425.148 56.2045 424.42C57.3258 423.686 58.6212 423.318 60.0909 423.318C61.2273 423.318 62.1288 423.508 62.7955 423.886C63.4697 424.258 63.9848 424.682 64.3409 425.159C64.7045 425.629 64.9848 426.015 65.1818 426.318H65.4545V423.545H68.0455V441.5C68.0455 443 67.7045 444.22 67.0227 445.159C66.3485 446.106 65.4394 446.799 64.2955 447.239C63.1591 447.686 61.8939 447.909 60.5 447.909ZM60.4091 438.318C61.4848 438.318 62.3939 438.072 63.1364 437.58C63.8788 437.087 64.4432 436.379 64.8295 435.455C65.2159 434.53 65.4091 433.424 65.4091 432.136C65.4091 430.879 65.2197 429.769 64.8409 428.807C64.4621 427.845 63.9015 427.091 63.1591 426.545C62.4167 426 61.5 425.727 60.4091 425.727C59.2727 425.727 58.3258 426.015 57.5682 426.591C56.8182 427.167 56.2538 427.939 55.875 428.909C55.5038 429.879 55.3182 430.955 55.3182 432.136C55.3182 433.348 55.5076 434.42 55.8864 435.352C56.2727 436.277 56.8409 437.004 57.5909 437.534C58.3485 438.057 59.2879 438.318 60.4091 438.318ZM80.2727 441.364C78.5909 441.364 77.1402 440.992 75.9205 440.25C74.7083 439.5 73.7727 438.455 73.1136 437.114C72.4621 435.765 72.1364 434.197 72.1364 432.409C72.1364 430.621 72.4621 429.045 73.1136 427.682C73.7727 426.311 74.6894 425.242 75.8636 424.477C77.0455 423.705 78.4242 423.318 80 423.318C80.9091 423.318 81.8068 423.47 82.6932 423.773C83.5795 424.076 84.3864 424.568 85.1136 425.25C85.8409 425.924 86.4205 426.818 86.8523 427.932C87.2841 429.045 87.5 430.417 87.5 432.045V433.182H74.0455V430.864H84.7727C84.7727 429.879 84.5758 429 84.1818 428.227C83.7955 427.455 83.2424 426.845 82.5227 426.398C81.8106 425.951 80.9697 425.727 80 425.727C78.9318 425.727 78.0076 425.992 77.2273 426.523C76.4545 427.045 75.8598 427.727 75.4432 428.568C75.0265 429.409 74.8182 430.311 74.8182 431.273V432.818C74.8182 434.136 75.0455 435.254 75.5 436.17C75.9621 437.08 76.6023 437.773 77.4205 438.25C78.2386 438.72 79.1894 438.955 80.2727 438.955C80.9773 438.955 81.6136 438.856 82.1818 438.659C82.7576 438.455 83.2538 438.152 83.6705 437.75C84.0871 437.341 84.4091 436.833 84.6364 436.227L87.2273 436.955C86.9545 437.833 86.4962 438.606 85.8523 439.273C85.2083 439.932 84.4129 440.447 83.4659 440.818C82.5189 441.182 81.4545 441.364 80.2727 441.364ZM100.943 441V417.727H103.761V438.5H114.58V441H100.943ZM123.716 441.409C122.61 441.409 121.606 441.201 120.705 440.784C119.803 440.36 119.087 439.75 118.557 438.955C118.027 438.152 117.761 437.182 117.761 436.045C117.761 435.045 117.958 434.235 118.352 433.614C118.746 432.985 119.273 432.492 119.932 432.136C120.591 431.78 121.318 431.515 122.114 431.341C122.917 431.159 123.723 431.015 124.534 430.909C125.595 430.773 126.455 430.67 127.114 430.602C127.78 430.527 128.265 430.402 128.568 430.227C128.879 430.053 129.034 429.75 129.034 429.318V429.227C129.034 428.106 128.727 427.235 128.114 426.614C127.508 425.992 126.587 425.682 125.352 425.682C124.072 425.682 123.068 425.962 122.341 426.523C121.614 427.083 121.102 427.682 120.807 428.318L118.261 427.409C118.716 426.348 119.322 425.523 120.08 424.932C120.845 424.333 121.678 423.917 122.58 423.682C123.489 423.439 124.383 423.318 125.261 423.318C125.822 423.318 126.466 423.386 127.193 423.523C127.928 423.652 128.636 423.92 129.318 424.33C130.008 424.739 130.58 425.356 131.034 426.182C131.489 427.008 131.716 428.114 131.716 429.5V441H129.034V438.636H128.898C128.716 439.015 128.413 439.42 127.989 439.852C127.564 440.284 127 440.652 126.295 440.955C125.591 441.258 124.731 441.409 123.716 441.409ZM124.125 439C125.186 439 126.08 438.792 126.807 438.375C127.542 437.958 128.095 437.42 128.466 436.761C128.845 436.102 129.034 435.409 129.034 434.682V432.227C128.92 432.364 128.67 432.489 128.284 432.602C127.905 432.708 127.466 432.803 126.966 432.886C126.473 432.962 125.992 433.03 125.523 433.091C125.061 433.144 124.686 433.189 124.398 433.227C123.701 433.318 123.049 433.466 122.443 433.67C121.845 433.867 121.36 434.167 120.989 434.568C120.625 434.962 120.443 435.5 120.443 436.182C120.443 437.114 120.788 437.818 121.477 438.295C122.174 438.765 123.057 439 124.125 439ZM137.713 447.545C137.259 447.545 136.853 447.508 136.497 447.432C136.141 447.364 135.895 447.295 135.759 447.227L136.44 444.864C137.092 445.03 137.668 445.091 138.168 445.045C138.668 445 139.111 444.777 139.497 444.375C139.891 443.981 140.251 443.341 140.577 442.455L141.077 441.091L134.622 423.545H137.531L142.349 437.455H142.531L147.349 423.545H150.259L142.849 443.545C142.516 444.447 142.103 445.193 141.611 445.784C141.118 446.383 140.546 446.826 139.895 447.114C139.251 447.402 138.524 447.545 137.713 447.545ZM160.264 441.364C158.688 441.364 157.306 440.989 156.116 440.239C154.935 439.489 154.01 438.439 153.344 437.091C152.685 435.742 152.355 434.167 152.355 432.364C152.355 430.545 152.685 428.958 153.344 427.602C154.01 426.246 154.935 425.193 156.116 424.443C157.306 423.693 158.688 423.318 160.264 423.318C161.84 423.318 163.219 423.693 164.401 424.443C165.59 425.193 166.514 426.246 167.173 427.602C167.84 428.958 168.173 430.545 168.173 432.364C168.173 434.167 167.84 435.742 167.173 437.091C166.514 438.439 165.59 439.489 164.401 440.239C163.219 440.989 161.84 441.364 160.264 441.364ZM160.264 438.955C161.461 438.955 162.446 438.648 163.219 438.034C163.991 437.42 164.563 436.614 164.935 435.614C165.306 434.614 165.491 433.53 165.491 432.364C165.491 431.197 165.306 430.11 164.935 429.102C164.563 428.095 163.991 427.28 163.219 426.659C162.446 426.038 161.461 425.727 160.264 425.727C159.067 425.727 158.082 426.038 157.31 426.659C156.537 427.28 155.965 428.095 155.594 429.102C155.223 430.11 155.037 431.197 155.037 432.364C155.037 433.53 155.223 434.614 155.594 435.614C155.965 436.614 156.537 437.42 157.31 438.034C158.082 438.648 159.067 438.955 160.264 438.955ZM183.267 433.864V423.545H185.949V441H183.267V438.045H183.085C182.676 438.932 182.04 439.686 181.176 440.307C180.313 440.92 179.222 441.227 177.903 441.227C176.812 441.227 175.843 440.989 174.994 440.511C174.146 440.027 173.479 439.299 172.994 438.33C172.509 437.352 172.267 436.121 172.267 434.636V423.545H174.949V434.455C174.949 435.727 175.305 436.742 176.017 437.5C176.737 438.258 177.653 438.636 178.767 438.636C179.434 438.636 180.112 438.466 180.801 438.125C181.498 437.784 182.081 437.261 182.551 436.557C183.028 435.852 183.267 434.955 183.267 433.864ZM198.452 423.545V425.818H189.406V423.545H198.452ZM192.043 419.364H194.724V436C194.724 436.758 194.834 437.326 195.054 437.705C195.281 438.076 195.569 438.326 195.918 438.455C196.274 438.576 196.649 438.636 197.043 438.636C197.338 438.636 197.58 438.621 197.77 438.591C197.959 438.553 198.111 438.523 198.224 438.5L198.77 440.909C198.588 440.977 198.334 441.045 198.009 441.114C197.683 441.189 197.27 441.227 196.77 441.227C196.012 441.227 195.27 441.064 194.543 440.739C193.823 440.413 193.224 439.917 192.747 439.25C192.277 438.583 192.043 437.742 192.043 436.727V419.364Z" fill="white"/>
<path d="M419.818 417.727H423.182L431.091 437.045H431.364L439.273 417.727H442.636V441H440V423.318H439.773L432.5 441H429.955L422.682 423.318H422.455V441H419.818V417.727ZM451.105 417.727V441H448.287V417.727H451.105ZM463.938 441H456.756V417.727H464.256C466.513 417.727 468.445 418.193 470.051 419.125C471.657 420.049 472.888 421.379 473.744 423.114C474.6 424.841 475.028 426.909 475.028 429.318C475.028 431.742 474.597 433.83 473.733 435.58C472.869 437.322 471.612 438.663 469.96 439.602C468.309 440.534 466.301 441 463.938 441ZM459.574 438.5H463.756C465.68 438.5 467.275 438.129 468.54 437.386C469.805 436.644 470.748 435.587 471.369 434.216C471.991 432.845 472.301 431.212 472.301 429.318C472.301 427.439 471.994 425.822 471.381 424.466C470.767 423.102 469.85 422.057 468.631 421.33C467.411 420.595 465.892 420.227 464.074 420.227H459.574V438.5ZM482.574 417.727V441H479.756V417.727H482.574ZM516.861 429.364C516.861 431.818 516.418 433.939 515.531 435.727C514.645 437.515 513.429 438.894 511.884 439.864C510.338 440.833 508.573 441.318 506.588 441.318C504.603 441.318 502.838 440.833 501.293 439.864C499.747 438.894 498.531 437.515 497.645 435.727C496.759 433.939 496.315 431.818 496.315 429.364C496.315 426.909 496.759 424.788 497.645 423C498.531 421.212 499.747 419.833 501.293 418.864C502.838 417.894 504.603 417.409 506.588 417.409C508.573 417.409 510.338 417.894 511.884 418.864C513.429 419.833 514.645 421.212 515.531 423C516.418 424.788 516.861 426.909 516.861 429.364ZM514.134 429.364C514.134 427.348 513.796 425.648 513.122 424.261C512.455 422.875 511.55 421.826 510.406 421.114C509.27 420.402 507.997 420.045 506.588 420.045C505.179 420.045 503.902 420.402 502.759 421.114C501.622 421.826 500.717 422.875 500.043 424.261C499.376 425.648 499.043 427.348 499.043 429.364C499.043 431.379 499.376 433.08 500.043 434.466C500.717 435.852 501.622 436.902 502.759 437.614C503.902 438.326 505.179 438.682 506.588 438.682C507.997 438.682 509.27 438.326 510.406 437.614C511.55 436.902 512.455 435.852 513.122 434.466C513.796 433.08 514.134 431.379 514.134 429.364ZM532.236 433.864V423.545H534.918V441H532.236V438.045H532.054C531.645 438.932 531.009 439.686 530.145 440.307C529.281 440.92 528.19 441.227 526.872 441.227C525.781 441.227 524.812 440.989 523.963 440.511C523.115 440.027 522.448 439.299 521.963 438.33C521.478 437.352 521.236 436.121 521.236 434.636V423.545H523.918V434.455C523.918 435.727 524.274 436.742 524.986 437.5C525.705 438.258 526.622 438.636 527.736 438.636C528.402 438.636 529.08 438.466 529.77 438.125C530.467 437.784 531.05 437.261 531.52 436.557C531.997 435.852 532.236 434.955 532.236 433.864ZM547.42 423.545V425.818H538.375V423.545H547.42ZM541.011 419.364H543.693V436C543.693 436.758 543.803 437.326 544.023 437.705C544.25 438.076 544.538 438.326 544.886 438.455C545.242 438.576 545.617 438.636 546.011 438.636C546.307 438.636 546.549 438.621 546.739 438.591C546.928 438.553 547.08 438.523 547.193 438.5L547.739 440.909C547.557 440.977 547.303 441.045 546.977 441.114C546.652 441.189 546.239 441.227 545.739 441.227C544.981 441.227 544.239 441.064 543.511 440.739C542.792 440.413 542.193 439.917 541.716 439.25C541.246 438.583 541.011 437.742 541.011 436.727V419.364ZM551.455 447.545V423.545H554.045V426.318H554.364C554.561 426.015 554.833 425.629 555.182 425.159C555.538 424.682 556.045 424.258 556.705 423.886C557.371 423.508 558.273 423.318 559.409 423.318C560.879 423.318 562.174 423.686 563.295 424.42C564.417 425.155 565.292 426.197 565.92 427.545C566.549 428.894 566.864 430.485 566.864 432.318C566.864 434.167 566.549 435.769 565.92 437.125C565.292 438.473 564.42 439.519 563.307 440.261C562.193 440.996 560.909 441.364 559.455 441.364C558.333 441.364 557.436 441.178 556.761 440.807C556.087 440.428 555.568 440 555.205 439.523C554.841 439.038 554.561 438.636 554.364 438.318H554.136V447.545H551.455ZM554.091 432.273C554.091 433.591 554.284 434.754 554.67 435.761C555.057 436.761 555.621 437.545 556.364 438.114C557.106 438.674 558.015 438.955 559.091 438.955C560.212 438.955 561.148 438.659 561.898 438.068C562.655 437.47 563.223 436.667 563.602 435.659C563.989 434.644 564.182 433.515 564.182 432.273C564.182 431.045 563.992 429.939 563.614 428.955C563.242 427.962 562.678 427.178 561.92 426.602C561.17 426.019 560.227 425.727 559.091 425.727C558 425.727 557.083 426.004 556.341 426.557C555.598 427.102 555.038 427.867 554.659 428.852C554.28 429.83 554.091 430.97 554.091 432.273ZM581.955 433.864V423.545H584.636V441H581.955V438.045H581.773C581.364 438.932 580.727 439.686 579.864 440.307C579 440.92 577.909 441.227 576.591 441.227C575.5 441.227 574.53 440.989 573.682 440.511C572.833 440.027 572.167 439.299 571.682 438.33C571.197 437.352 570.955 436.121 570.955 434.636V423.545H573.636V434.455C573.636 435.727 573.992 436.742 574.705 437.5C575.424 438.258 576.341 438.636 577.455 438.636C578.121 438.636 578.799 438.466 579.489 438.125C580.186 437.784 580.769 437.261 581.239 436.557C581.716 435.852 581.955 434.955 581.955 433.864ZM597.139 423.545V425.818H588.094V423.545H597.139ZM590.73 419.364H593.412V436C593.412 436.758 593.522 437.326 593.741 437.705C593.969 438.076 594.257 438.326 594.605 438.455C594.961 438.576 595.336 438.636 595.73 438.636C596.026 438.636 596.268 438.621 596.457 438.591C596.647 438.553 596.798 438.523 596.912 438.5L597.457 440.909C597.276 440.977 597.022 441.045 596.696 441.114C596.37 441.189 595.957 441.227 595.457 441.227C594.7 441.227 593.957 441.064 593.23 440.739C592.51 440.413 591.912 439.917 591.435 439.25C590.965 438.583 590.73 437.742 590.73 436.727V419.364Z" fill="white"/>
<path d="M431.659 106.909C431.557 106.045 431.142 105.375 430.415 104.898C429.688 104.42 428.795 104.182 427.739 104.182C426.966 104.182 426.29 104.307 425.71 104.557C425.136 104.807 424.688 105.151 424.364 105.588C424.045 106.026 423.886 106.523 423.886 107.08C423.886 107.545 423.997 107.946 424.219 108.281C424.446 108.611 424.736 108.886 425.088 109.108C425.44 109.324 425.81 109.503 426.196 109.645C426.582 109.781 426.938 109.892 427.261 109.977L429.034 110.455C429.489 110.574 429.994 110.739 430.551 110.949C431.114 111.159 431.651 111.446 432.162 111.81C432.679 112.168 433.105 112.628 433.44 113.19C433.776 113.753 433.943 114.443 433.943 115.261C433.943 116.205 433.696 117.057 433.202 117.818C432.713 118.58 431.997 119.185 431.054 119.634C430.116 120.082 428.977 120.307 427.636 120.307C426.386 120.307 425.304 120.105 424.389 119.702C423.48 119.298 422.764 118.736 422.241 118.014C421.724 117.293 421.432 116.455 421.364 115.5H423.545C423.602 116.159 423.824 116.705 424.21 117.136C424.602 117.562 425.097 117.881 425.693 118.091C426.295 118.295 426.943 118.398 427.636 118.398C428.443 118.398 429.168 118.267 429.81 118.006C430.452 117.739 430.96 117.369 431.335 116.898C431.71 116.42 431.898 115.864 431.898 115.227C431.898 114.648 431.736 114.176 431.412 113.812C431.088 113.449 430.662 113.153 430.134 112.926C429.605 112.699 429.034 112.5 428.42 112.33L426.273 111.716C424.909 111.324 423.83 110.764 423.034 110.037C422.239 109.31 421.841 108.358 421.841 107.182C421.841 106.205 422.105 105.352 422.634 104.625C423.168 103.892 423.884 103.324 424.781 102.92C425.685 102.511 426.693 102.307 427.807 102.307C428.932 102.307 429.932 102.509 430.807 102.912C431.682 103.31 432.375 103.855 432.886 104.548C433.403 105.241 433.676 106.028 433.705 106.909H431.659ZM442.839 106.909V108.614H436.055V106.909H442.839ZM438.032 103.773H440.043V116.25C440.043 116.818 440.126 117.244 440.29 117.528C440.461 117.807 440.677 117.994 440.938 118.091C441.205 118.182 441.487 118.227 441.782 118.227C442.004 118.227 442.185 118.216 442.327 118.193C442.469 118.165 442.583 118.142 442.668 118.125L443.077 119.932C442.941 119.983 442.751 120.034 442.506 120.085C442.262 120.142 441.952 120.17 441.577 120.17C441.009 120.17 440.452 120.048 439.907 119.804C439.367 119.56 438.918 119.188 438.56 118.688C438.208 118.188 438.032 117.557 438.032 116.795V103.773ZM449.717 120.307C448.887 120.307 448.134 120.151 447.458 119.838C446.782 119.52 446.245 119.062 445.847 118.466C445.45 117.864 445.251 117.136 445.251 116.284C445.251 115.534 445.398 114.926 445.694 114.46C445.989 113.989 446.384 113.619 446.879 113.352C447.373 113.085 447.918 112.886 448.515 112.756C449.117 112.619 449.722 112.511 450.33 112.432C451.126 112.33 451.771 112.253 452.265 112.202C452.765 112.145 453.129 112.051 453.356 111.92C453.589 111.79 453.705 111.562 453.705 111.239V111.17C453.705 110.33 453.475 109.676 453.015 109.21C452.56 108.744 451.87 108.511 450.944 108.511C449.984 108.511 449.231 108.722 448.685 109.142C448.14 109.562 447.756 110.011 447.535 110.489L445.626 109.807C445.967 109.011 446.421 108.392 446.989 107.949C447.563 107.5 448.188 107.187 448.864 107.011C449.546 106.83 450.217 106.739 450.876 106.739C451.296 106.739 451.779 106.79 452.325 106.892C452.876 106.989 453.407 107.19 453.918 107.497C454.435 107.804 454.864 108.267 455.205 108.886C455.546 109.506 455.717 110.335 455.717 111.375V120H453.705V118.227H453.603C453.467 118.511 453.239 118.815 452.921 119.139C452.603 119.463 452.18 119.739 451.651 119.966C451.123 120.193 450.478 120.307 449.717 120.307ZM450.023 118.5C450.819 118.5 451.489 118.344 452.035 118.031C452.586 117.719 453.001 117.315 453.279 116.821C453.563 116.327 453.705 115.807 453.705 115.261V113.42C453.62 113.523 453.433 113.616 453.143 113.702C452.859 113.781 452.529 113.852 452.154 113.915C451.785 113.972 451.424 114.023 451.072 114.068C450.725 114.108 450.444 114.142 450.228 114.17C449.705 114.239 449.217 114.349 448.762 114.503C448.313 114.651 447.95 114.875 447.671 115.176C447.398 115.472 447.262 115.875 447.262 116.386C447.262 117.085 447.521 117.614 448.038 117.972C448.56 118.324 449.222 118.5 450.023 118.5ZM459.388 120V106.909H461.331V108.886H461.467C461.706 108.239 462.138 107.713 462.763 107.31C463.388 106.906 464.092 106.705 464.876 106.705C465.024 106.705 465.209 106.707 465.43 106.713C465.652 106.719 465.82 106.727 465.933 106.739V108.784C465.865 108.767 465.709 108.741 465.464 108.707C465.226 108.668 464.973 108.648 464.706 108.648C464.07 108.648 463.501 108.781 463.001 109.048C462.507 109.31 462.115 109.673 461.825 110.139C461.541 110.599 461.399 111.125 461.399 111.716V120H459.388ZM474.831 106.909V108.614H468.047V106.909H474.831ZM470.024 103.773H472.036V116.25C472.036 116.818 472.118 117.244 472.283 117.528C472.453 117.807 472.669 117.994 472.93 118.091C473.197 118.182 473.479 118.227 473.774 118.227C473.996 118.227 474.178 118.216 474.32 118.193C474.462 118.165 474.575 118.142 474.661 118.125L475.07 119.932C474.933 119.983 474.743 120.034 474.499 120.085C474.254 120.142 473.945 120.17 473.57 120.17C473.001 120.17 472.445 120.048 471.899 119.804C471.359 119.56 470.911 119.188 470.553 118.688C470.2 118.188 470.024 117.557 470.024 116.795V103.773ZM477.857 120V106.909H479.868V120H477.857ZM478.879 104.727C478.487 104.727 478.149 104.594 477.865 104.327C477.587 104.06 477.447 103.739 477.447 103.364C477.447 102.989 477.587 102.668 477.865 102.401C478.149 102.134 478.487 102 478.879 102C479.271 102 479.607 102.134 479.885 102.401C480.169 102.668 480.311 102.989 480.311 103.364C480.311 103.739 480.169 104.06 479.885 104.327C479.607 104.594 479.271 104.727 478.879 104.727ZM485.563 112.125V120H483.552V106.909H485.495V108.955H485.665C485.972 108.29 486.438 107.756 487.063 107.352C487.688 106.943 488.495 106.739 489.484 106.739C490.37 106.739 491.146 106.92 491.81 107.284C492.475 107.642 492.992 108.188 493.362 108.92C493.731 109.648 493.915 110.568 493.915 111.682V120H491.904V111.818C491.904 110.79 491.637 109.989 491.103 109.415C490.569 108.835 489.836 108.545 488.904 108.545C488.262 108.545 487.688 108.685 487.183 108.963C486.683 109.241 486.288 109.648 485.998 110.182C485.708 110.716 485.563 111.364 485.563 112.125ZM502.875 125.182C501.903 125.182 501.068 125.057 500.369 124.807C499.67 124.562 499.088 124.239 498.622 123.835C498.162 123.438 497.795 123.011 497.523 122.557L499.125 121.432C499.307 121.67 499.537 121.943 499.815 122.25C500.094 122.562 500.474 122.832 500.957 123.06C501.446 123.293 502.085 123.409 502.875 123.409C503.932 123.409 504.804 123.153 505.491 122.642C506.179 122.131 506.523 121.33 506.523 120.239V117.58H506.352C506.205 117.818 505.994 118.114 505.722 118.466C505.455 118.812 505.068 119.122 504.562 119.395C504.062 119.662 503.386 119.795 502.534 119.795C501.477 119.795 500.528 119.545 499.688 119.045C498.852 118.545 498.19 117.818 497.702 116.864C497.219 115.909 496.977 114.75 496.977 113.386C496.977 112.045 497.213 110.878 497.685 109.884C498.156 108.884 498.813 108.111 499.653 107.565C500.494 107.014 501.466 106.739 502.568 106.739C503.42 106.739 504.097 106.881 504.597 107.165C505.102 107.443 505.489 107.761 505.756 108.119C506.028 108.472 506.239 108.761 506.386 108.989H506.591V106.909H508.534V120.375C508.534 121.5 508.278 122.415 507.767 123.119C507.261 123.83 506.58 124.349 505.722 124.679C504.869 125.014 503.92 125.182 502.875 125.182ZM502.807 117.989C503.614 117.989 504.295 117.804 504.852 117.435C505.409 117.065 505.832 116.534 506.122 115.841C506.412 115.148 506.557 114.318 506.557 113.352C506.557 112.409 506.415 111.577 506.131 110.855C505.847 110.134 505.426 109.568 504.869 109.159C504.313 108.75 503.625 108.545 502.807 108.545C501.955 108.545 501.244 108.761 500.676 109.193C500.114 109.625 499.69 110.205 499.406 110.932C499.128 111.659 498.989 112.466 498.989 113.352C498.989 114.261 499.131 115.065 499.415 115.764C499.705 116.457 500.131 117.003 500.693 117.401C501.261 117.793 501.966 117.989 502.807 117.989ZM519.239 120V102.545H525.136C526.506 102.545 527.625 102.793 528.494 103.287C529.369 103.776 530.017 104.438 530.438 105.273C530.858 106.108 531.068 107.04 531.068 108.068C531.068 109.097 530.858 110.031 530.438 110.872C530.023 111.713 529.381 112.384 528.511 112.884C527.642 113.378 526.528 113.625 525.17 113.625H520.943V111.75H525.102C526.04 111.75 526.793 111.588 527.361 111.264C527.929 110.94 528.341 110.503 528.597 109.952C528.858 109.395 528.989 108.767 528.989 108.068C528.989 107.369 528.858 106.744 528.597 106.193C528.341 105.642 527.926 105.21 527.352 104.898C526.778 104.58 526.017 104.42 525.068 104.42H521.352V120H519.239ZM539.378 120.273C538.196 120.273 537.159 119.991 536.267 119.429C535.381 118.866 534.688 118.08 534.188 117.068C533.693 116.057 533.446 114.875 533.446 113.523C533.446 112.159 533.693 110.969 534.188 109.952C534.688 108.935 535.381 108.145 536.267 107.582C537.159 107.02 538.196 106.739 539.378 106.739C540.56 106.739 541.594 107.02 542.48 107.582C543.372 108.145 544.065 108.935 544.56 109.952C545.06 110.969 545.31 112.159 545.31 113.523C545.31 114.875 545.06 116.057 544.56 117.068C544.065 118.08 543.372 118.866 542.48 119.429C541.594 119.991 540.56 120.273 539.378 120.273ZM539.378 118.466C540.276 118.466 541.014 118.236 541.594 117.776C542.173 117.315 542.602 116.71 542.881 115.96C543.159 115.21 543.298 114.398 543.298 113.523C543.298 112.648 543.159 111.832 542.881 111.077C542.602 110.321 542.173 109.71 541.594 109.244C541.014 108.778 540.276 108.545 539.378 108.545C538.48 108.545 537.741 108.778 537.162 109.244C536.582 109.71 536.153 110.321 535.875 111.077C535.597 111.832 535.457 112.648 535.457 113.523C535.457 114.398 535.597 115.21 535.875 115.96C536.153 116.71 536.582 117.315 537.162 117.776C537.741 118.236 538.48 118.466 539.378 118.466ZM557.653 109.841L555.846 110.352C555.732 110.051 555.565 109.759 555.343 109.474C555.127 109.185 554.832 108.946 554.457 108.759C554.082 108.571 553.602 108.477 553.016 108.477C552.215 108.477 551.548 108.662 551.013 109.031C550.485 109.395 550.221 109.858 550.221 110.42C550.221 110.92 550.403 111.315 550.766 111.605C551.13 111.895 551.698 112.136 552.471 112.33L554.414 112.807C555.585 113.091 556.457 113.526 557.031 114.111C557.604 114.69 557.891 115.437 557.891 116.352C557.891 117.102 557.675 117.773 557.244 118.364C556.817 118.955 556.221 119.42 555.454 119.761C554.687 120.102 553.795 120.273 552.778 120.273C551.442 120.273 550.337 119.983 549.462 119.403C548.587 118.824 548.033 117.977 547.8 116.864L549.71 116.386C549.891 117.091 550.235 117.619 550.741 117.972C551.252 118.324 551.92 118.5 552.744 118.5C553.681 118.5 554.425 118.301 554.977 117.903C555.533 117.5 555.812 117.017 555.812 116.455C555.812 116 555.653 115.619 555.335 115.312C555.016 115 554.528 114.767 553.869 114.614L551.687 114.102C550.488 113.818 549.607 113.378 549.045 112.781C548.488 112.179 548.21 111.426 548.21 110.523C548.21 109.784 548.417 109.131 548.832 108.562C549.252 107.994 549.823 107.548 550.545 107.224C551.272 106.901 552.096 106.739 553.016 106.739C554.312 106.739 555.329 107.023 556.067 107.591C556.812 108.159 557.34 108.909 557.653 109.841ZM560.919 120V106.909H562.93V120H560.919ZM561.942 104.727C561.55 104.727 561.212 104.594 560.928 104.327C560.649 104.06 560.51 103.739 560.51 103.364C560.51 102.989 560.649 102.668 560.928 102.401C561.212 102.134 561.55 102 561.942 102C562.334 102 562.669 102.134 562.947 102.401C563.232 102.668 563.374 102.989 563.374 103.364C563.374 103.739 563.232 104.06 562.947 104.327C562.669 104.594 562.334 104.727 561.942 104.727ZM572.308 106.909V108.614H565.523V106.909H572.308ZM567.501 103.773H569.512V116.25C569.512 116.818 569.594 117.244 569.759 117.528C569.93 117.807 570.146 117.994 570.407 118.091C570.674 118.182 570.955 118.227 571.251 118.227C571.472 118.227 571.654 118.216 571.796 118.193C571.938 118.165 572.052 118.142 572.137 118.125L572.546 119.932C572.41 119.983 572.219 120.034 571.975 120.085C571.731 120.142 571.421 120.17 571.046 120.17C570.478 120.17 569.921 120.048 569.376 119.804C568.836 119.56 568.387 119.188 568.029 118.688C567.677 118.188 567.501 117.557 567.501 116.795V103.773ZM575.333 120V106.909H577.344V120H575.333ZM576.356 104.727C575.964 104.727 575.626 104.594 575.342 104.327C575.063 104.06 574.924 103.739 574.924 103.364C574.924 102.989 575.063 102.668 575.342 102.401C575.626 102.134 575.964 102 576.356 102C576.748 102 577.083 102.134 577.362 102.401C577.646 102.668 577.788 102.989 577.788 103.364C577.788 103.739 577.646 104.06 577.362 104.327C577.083 104.594 576.748 104.727 576.356 104.727ZM586.347 120.273C585.165 120.273 584.128 119.991 583.236 119.429C582.349 118.866 581.656 118.08 581.156 117.068C580.662 116.057 580.415 114.875 580.415 113.523C580.415 112.159 580.662 110.969 581.156 109.952C581.656 108.935 582.349 108.145 583.236 107.582C584.128 107.02 585.165 106.739 586.347 106.739C587.528 106.739 588.563 107.02 589.449 107.582C590.341 108.145 591.034 108.935 591.528 109.952C592.028 110.969 592.278 112.159 592.278 113.523C592.278 114.875 592.028 116.057 591.528 117.068C591.034 118.08 590.341 118.866 589.449 119.429C588.563 119.991 587.528 120.273 586.347 120.273ZM586.347 118.466C587.244 118.466 587.983 118.236 588.562 117.776C589.142 117.315 589.571 116.71 589.849 115.96C590.128 115.21 590.267 114.398 590.267 113.523C590.267 112.648 590.128 111.832 589.849 111.077C589.571 110.321 589.142 109.71 588.562 109.244C587.983 108.778 587.244 108.545 586.347 108.545C585.449 108.545 584.71 108.778 584.131 109.244C583.551 109.71 583.122 110.321 582.844 111.077C582.565 111.832 582.426 112.648 582.426 113.523C582.426 114.398 582.565 115.21 582.844 115.96C583.122 116.71 583.551 117.315 584.131 117.776C584.71 118.236 585.449 118.466 586.347 118.466ZM597.36 112.125V120H595.349V106.909H597.292V108.955H597.462C597.769 108.29 598.235 107.756 598.86 107.352C599.485 106.943 600.292 106.739 601.281 106.739C602.167 106.739 602.942 106.92 603.607 107.284C604.272 107.642 604.789 108.188 605.158 108.92C605.528 109.648 605.712 110.568 605.712 111.682V120H603.701V111.818C603.701 110.79 603.434 109.989 602.9 109.415C602.366 108.835 601.633 108.545 600.701 108.545C600.059 108.545 599.485 108.685 598.979 108.963C598.479 109.241 598.085 109.648 597.795 110.182C597.505 110.716 597.36 111.364 597.36 112.125Z" fill="white"/>
<path d="M427.5 164H422.114V146.545H427.739C429.432 146.545 430.881 146.895 432.085 147.594C433.29 148.287 434.213 149.284 434.855 150.585C435.497 151.881 435.818 153.432 435.818 155.239C435.818 157.057 435.494 158.622 434.847 159.935C434.199 161.241 433.256 162.247 432.017 162.952C430.778 163.651 429.273 164 427.5 164ZM424.227 162.125H427.364C428.807 162.125 430.003 161.847 430.952 161.29C431.901 160.733 432.608 159.94 433.074 158.912C433.54 157.884 433.773 156.659 433.773 155.239C433.773 153.83 433.543 152.616 433.082 151.599C432.622 150.577 431.935 149.793 431.02 149.247C430.105 148.696 428.966 148.42 427.602 148.42H424.227V162.125ZM439.091 164V150.909H441.102V164H439.091ZM440.114 148.727C439.722 148.727 439.384 148.594 439.099 148.327C438.821 148.06 438.682 147.739 438.682 147.364C438.682 146.989 438.821 146.668 439.099 146.401C439.384 146.134 439.722 146 440.114 146C440.506 146 440.841 146.134 441.119 146.401C441.403 146.668 441.545 146.989 441.545 147.364C441.545 147.739 441.403 148.06 441.119 148.327C440.841 148.594 440.506 148.727 440.114 148.727ZM444.786 164V150.909H446.729V152.886H446.866C447.104 152.239 447.536 151.713 448.161 151.31C448.786 150.906 449.491 150.705 450.275 150.705C450.423 150.705 450.607 150.707 450.829 150.713C451.05 150.719 451.218 150.727 451.332 150.739V152.784C451.263 152.767 451.107 152.741 450.863 152.707C450.624 152.668 450.371 152.648 450.104 152.648C449.468 152.648 448.9 152.781 448.4 153.048C447.906 153.31 447.513 153.673 447.224 154.139C446.94 154.599 446.798 155.125 446.798 155.716V164H444.786ZM458.806 164.273C457.545 164.273 456.457 163.994 455.542 163.438C454.633 162.875 453.931 162.091 453.437 161.085C452.948 160.074 452.704 158.898 452.704 157.557C452.704 156.216 452.948 155.034 453.437 154.011C453.931 152.983 454.619 152.182 455.499 151.608C456.386 151.028 457.42 150.739 458.602 150.739C459.283 150.739 459.957 150.852 460.621 151.08C461.286 151.307 461.891 151.676 462.437 152.188C462.982 152.693 463.417 153.364 463.741 154.199C464.065 155.034 464.227 156.062 464.227 157.284V158.136H454.136V156.398H462.181C462.181 155.659 462.033 155 461.738 154.42C461.448 153.841 461.033 153.384 460.494 153.048C459.96 152.713 459.329 152.545 458.602 152.545C457.8 152.545 457.107 152.744 456.522 153.142C455.942 153.534 455.496 154.045 455.184 154.676C454.871 155.307 454.715 155.983 454.715 156.705V157.864C454.715 158.852 454.886 159.69 455.227 160.378C455.573 161.06 456.053 161.58 456.667 161.938C457.281 162.29 457.994 162.466 458.806 162.466C459.335 162.466 459.812 162.392 460.238 162.244C460.67 162.091 461.042 161.864 461.354 161.562C461.667 161.256 461.908 160.875 462.079 160.42L464.022 160.966C463.817 161.625 463.474 162.205 462.991 162.705C462.508 163.199 461.911 163.585 461.201 163.864C460.491 164.136 459.692 164.273 458.806 164.273ZM472.604 164.273C471.377 164.273 470.32 163.983 469.434 163.403C468.548 162.824 467.866 162.026 467.388 161.009C466.911 159.991 466.673 158.83 466.673 157.523C466.673 156.193 466.917 155.02 467.406 154.003C467.9 152.98 468.587 152.182 469.468 151.608C470.354 151.028 471.388 150.739 472.57 150.739C473.491 150.739 474.32 150.909 475.059 151.25C475.798 151.591 476.403 152.068 476.874 152.682C477.346 153.295 477.638 154.011 477.752 154.83H475.741C475.587 154.233 475.246 153.705 474.718 153.244C474.195 152.778 473.491 152.545 472.604 152.545C471.82 152.545 471.133 152.75 470.542 153.159C469.957 153.562 469.499 154.134 469.17 154.872C468.846 155.605 468.684 156.466 468.684 157.455C468.684 158.466 468.843 159.347 469.161 160.097C469.485 160.847 469.94 161.429 470.525 161.844C471.116 162.259 471.809 162.466 472.604 162.466C473.127 162.466 473.602 162.375 474.028 162.193C474.454 162.011 474.815 161.75 475.11 161.409C475.406 161.068 475.616 160.659 475.741 160.182H477.752C477.638 160.955 477.357 161.651 476.908 162.27C476.465 162.884 475.877 163.372 475.144 163.736C474.417 164.094 473.57 164.273 472.604 164.273ZM486.386 150.909V152.614H479.602V150.909H486.386ZM481.579 147.773H483.59V160.25C483.59 160.818 483.673 161.244 483.837 161.528C484.008 161.807 484.224 161.994 484.485 162.091C484.752 162.182 485.033 162.227 485.329 162.227C485.55 162.227 485.732 162.216 485.874 162.193C486.016 162.165 486.13 162.142 486.215 162.125L486.624 163.932C486.488 163.983 486.298 164.034 486.053 164.085C485.809 164.142 485.499 164.17 485.124 164.17C484.556 164.17 483.999 164.048 483.454 163.804C482.914 163.56 482.465 163.188 482.107 162.688C481.755 162.188 481.579 161.557 481.579 160.795V147.773ZM489.411 164V150.909H491.423V164H489.411ZM490.434 148.727C490.042 148.727 489.704 148.594 489.42 148.327C489.141 148.06 489.002 147.739 489.002 147.364C489.002 146.989 489.141 146.668 489.42 146.401C489.704 146.134 490.042 146 490.434 146C490.826 146 491.161 146.134 491.44 146.401C491.724 146.668 491.866 146.989 491.866 147.364C491.866 147.739 491.724 148.06 491.44 148.327C491.161 148.594 490.826 148.727 490.434 148.727ZM500.425 164.273C499.243 164.273 498.206 163.991 497.314 163.429C496.428 162.866 495.734 162.08 495.234 161.068C494.74 160.057 494.493 158.875 494.493 157.523C494.493 156.159 494.74 154.969 495.234 153.952C495.734 152.935 496.428 152.145 497.314 151.582C498.206 151.02 499.243 150.739 500.425 150.739C501.607 150.739 502.641 151.02 503.527 151.582C504.419 152.145 505.112 152.935 505.607 153.952C506.107 154.969 506.357 156.159 506.357 157.523C506.357 158.875 506.107 160.057 505.607 161.068C505.112 162.08 504.419 162.866 503.527 163.429C502.641 163.991 501.607 164.273 500.425 164.273ZM500.425 162.466C501.322 162.466 502.061 162.236 502.641 161.776C503.22 161.315 503.649 160.71 503.928 159.96C504.206 159.21 504.345 158.398 504.345 157.523C504.345 156.648 504.206 155.832 503.928 155.077C503.649 154.321 503.22 153.71 502.641 153.244C502.061 152.778 501.322 152.545 500.425 152.545C499.527 152.545 498.788 152.778 498.209 153.244C497.629 153.71 497.2 154.321 496.922 155.077C496.643 155.832 496.504 156.648 496.504 157.523C496.504 158.398 496.643 159.21 496.922 159.96C497.2 160.71 497.629 161.315 498.209 161.776C498.788 162.236 499.527 162.466 500.425 162.466ZM511.438 156.125V164H509.427V150.909H511.37V152.955H511.54C511.847 152.29 512.313 151.756 512.938 151.352C513.563 150.943 514.37 150.739 515.359 150.739C516.245 150.739 517.021 150.92 517.685 151.284C518.35 151.642 518.867 152.188 519.237 152.92C519.606 153.648 519.79 154.568 519.79 155.682V164H517.779V155.818C517.779 154.79 517.512 153.989 516.978 153.415C516.444 152.835 515.711 152.545 514.779 152.545C514.137 152.545 513.563 152.685 513.058 152.963C512.558 153.241 512.163 153.648 511.873 154.182C511.583 154.716 511.438 155.364 511.438 156.125Z" fill="white"/>
<path d="M431.659 198.909C431.557 198.045 431.142 197.375 430.415 196.898C429.688 196.42 428.795 196.182 427.739 196.182C426.966 196.182 426.29 196.307 425.71 196.557C425.136 196.807 424.688 197.151 424.364 197.588C424.045 198.026 423.886 198.523 423.886 199.08C423.886 199.545 423.997 199.946 424.219 200.281C424.446 200.611 424.736 200.886 425.088 201.108C425.44 201.324 425.81 201.503 426.196 201.645C426.582 201.781 426.938 201.892 427.261 201.977L429.034 202.455C429.489 202.574 429.994 202.739 430.551 202.949C431.114 203.159 431.651 203.446 432.162 203.81C432.679 204.168 433.105 204.628 433.44 205.19C433.776 205.753 433.943 206.443 433.943 207.261C433.943 208.205 433.696 209.057 433.202 209.818C432.713 210.58 431.997 211.185 431.054 211.634C430.116 212.082 428.977 212.307 427.636 212.307C426.386 212.307 425.304 212.105 424.389 211.702C423.48 211.298 422.764 210.736 422.241 210.014C421.724 209.293 421.432 208.455 421.364 207.5H423.545C423.602 208.159 423.824 208.705 424.21 209.136C424.602 209.562 425.097 209.881 425.693 210.091C426.295 210.295 426.943 210.398 427.636 210.398C428.443 210.398 429.168 210.267 429.81 210.006C430.452 209.739 430.96 209.369 431.335 208.898C431.71 208.42 431.898 207.864 431.898 207.227C431.898 206.648 431.736 206.176 431.412 205.812C431.088 205.449 430.662 205.153 430.134 204.926C429.605 204.699 429.034 204.5 428.42 204.33L426.273 203.716C424.909 203.324 423.83 202.764 423.034 202.037C422.239 201.31 421.841 200.358 421.841 199.182C421.841 198.205 422.105 197.352 422.634 196.625C423.168 195.892 423.884 195.324 424.781 194.92C425.685 194.511 426.693 194.307 427.807 194.307C428.932 194.307 429.932 194.509 430.807 194.912C431.682 195.31 432.375 195.855 432.886 196.548C433.403 197.241 433.676 198.028 433.705 198.909H431.659ZM437.146 216.909V198.909H439.089V200.989H439.327C439.475 200.761 439.68 200.472 439.941 200.119C440.208 199.761 440.589 199.443 441.083 199.165C441.583 198.881 442.259 198.739 443.112 198.739C444.214 198.739 445.185 199.014 446.026 199.565C446.867 200.116 447.523 200.898 447.995 201.909C448.467 202.92 448.702 204.114 448.702 205.489C448.702 206.875 448.467 208.077 447.995 209.094C447.523 210.105 446.87 210.889 446.035 211.446C445.2 211.997 444.237 212.273 443.146 212.273C442.305 212.273 441.631 212.134 441.126 211.855C440.62 211.571 440.231 211.25 439.958 210.892C439.685 210.528 439.475 210.227 439.327 209.989H439.157V216.909H437.146ZM439.123 205.455C439.123 206.443 439.268 207.315 439.558 208.071C439.847 208.821 440.271 209.409 440.827 209.835C441.384 210.256 442.066 210.466 442.873 210.466C443.714 210.466 444.415 210.244 444.978 209.801C445.546 209.352 445.972 208.75 446.256 207.994C446.546 207.233 446.691 206.386 446.691 205.455C446.691 204.534 446.549 203.705 446.265 202.966C445.987 202.222 445.563 201.634 444.995 201.202C444.433 200.764 443.725 200.545 442.873 200.545C442.055 200.545 441.367 200.753 440.81 201.168C440.254 201.577 439.833 202.151 439.549 202.889C439.265 203.622 439.123 204.477 439.123 205.455ZM457.259 212.273C455.998 212.273 454.91 211.994 453.995 211.438C453.086 210.875 452.384 210.091 451.89 209.085C451.401 208.074 451.157 206.898 451.157 205.557C451.157 204.216 451.401 203.034 451.89 202.011C452.384 200.983 453.072 200.182 453.952 199.608C454.839 199.028 455.873 198.739 457.055 198.739C457.737 198.739 458.41 198.852 459.075 199.08C459.739 199.307 460.344 199.676 460.89 200.188C461.435 200.693 461.87 201.364 462.194 202.199C462.518 203.034 462.68 204.062 462.68 205.284V206.136H452.589V204.398H460.634C460.634 203.659 460.487 203 460.191 202.42C459.901 201.841 459.487 201.384 458.947 201.048C458.413 200.713 457.782 200.545 457.055 200.545C456.254 200.545 455.56 200.744 454.975 201.142C454.396 201.534 453.95 202.045 453.637 202.676C453.325 203.307 453.168 203.983 453.168 204.705V205.864C453.168 206.852 453.339 207.69 453.68 208.378C454.026 209.06 454.506 209.58 455.12 209.938C455.734 210.29 456.447 210.466 457.259 210.466C457.788 210.466 458.265 210.392 458.691 210.244C459.123 210.091 459.495 209.864 459.808 209.562C460.12 209.256 460.362 208.875 460.532 208.42L462.475 208.966C462.271 209.625 461.927 210.205 461.444 210.705C460.961 211.199 460.364 211.585 459.654 211.864C458.944 212.136 458.146 212.273 457.259 212.273ZM471.228 212.273C469.967 212.273 468.879 211.994 467.964 211.438C467.055 210.875 466.353 210.091 465.859 209.085C465.37 208.074 465.126 206.898 465.126 205.557C465.126 204.216 465.37 203.034 465.859 202.011C466.353 200.983 467.04 200.182 467.921 199.608C468.808 199.028 469.842 198.739 471.023 198.739C471.705 198.739 472.379 198.852 473.043 199.08C473.708 199.307 474.313 199.676 474.859 200.188C475.404 200.693 475.839 201.364 476.163 202.199C476.487 203.034 476.648 204.062 476.648 205.284V206.136H466.558V204.398H474.603C474.603 203.659 474.455 203 474.16 202.42C473.87 201.841 473.455 201.384 472.915 201.048C472.381 200.713 471.751 200.545 471.023 200.545C470.222 200.545 469.529 200.744 468.944 201.142C468.364 201.534 467.918 202.045 467.606 202.676C467.293 203.307 467.137 203.983 467.137 204.705V205.864C467.137 206.852 467.308 207.69 467.648 208.378C467.995 209.06 468.475 209.58 469.089 209.938C469.702 210.29 470.415 210.466 471.228 210.466C471.756 210.466 472.234 210.392 472.66 210.244C473.092 210.091 473.464 209.864 473.776 209.562C474.089 209.256 474.33 208.875 474.501 208.42L476.444 208.966C476.239 209.625 475.896 210.205 475.413 210.705C474.93 211.199 474.333 211.585 473.623 211.864C472.913 212.136 472.114 212.273 471.228 212.273ZM484.651 212.273C483.56 212.273 482.597 211.997 481.762 211.446C480.927 210.889 480.273 210.105 479.802 209.094C479.33 208.077 479.094 206.875 479.094 205.489C479.094 204.114 479.33 202.92 479.802 201.909C480.273 200.898 480.93 200.116 481.771 199.565C482.612 199.014 483.583 198.739 484.685 198.739C485.538 198.739 486.211 198.881 486.705 199.165C487.205 199.443 487.586 199.761 487.847 200.119C488.114 200.472 488.322 200.761 488.469 200.989H488.64V194.545H490.651V212H488.708V209.989H488.469C488.322 210.227 488.112 210.528 487.839 210.892C487.566 211.25 487.177 211.571 486.671 211.855C486.165 212.134 485.492 212.273 484.651 212.273ZM484.924 210.466C485.731 210.466 486.413 210.256 486.969 209.835C487.526 209.409 487.95 208.821 488.239 208.071C488.529 207.315 488.674 206.443 488.674 205.455C488.674 204.477 488.532 203.622 488.248 202.889C487.964 202.151 487.543 201.577 486.987 201.168C486.43 200.753 485.742 200.545 484.924 200.545C484.072 200.545 483.362 200.764 482.793 201.202C482.231 201.634 481.808 202.222 481.523 202.966C481.245 203.705 481.106 204.534 481.106 205.455C481.106 206.386 481.248 207.233 481.532 207.994C481.822 208.75 482.248 209.352 482.81 209.801C483.379 210.244 484.083 210.466 484.924 210.466Z" fill="white"/>
<path d="M422.114 260V242.545H428.011C429.375 242.545 430.494 242.778 431.369 243.244C432.244 243.705 432.892 244.338 433.312 245.145C433.733 245.952 433.943 246.869 433.943 247.898C433.943 248.926 433.733 249.838 433.312 250.634C432.892 251.429 432.247 252.054 431.378 252.509C430.509 252.957 429.398 253.182 428.045 253.182H423.273V251.273H427.977C428.909 251.273 429.659 251.136 430.227 250.864C430.801 250.591 431.216 250.205 431.472 249.705C431.733 249.199 431.864 248.597 431.864 247.898C431.864 247.199 431.733 246.588 431.472 246.065C431.21 245.543 430.793 245.139 430.219 244.855C429.645 244.565 428.886 244.42 427.943 244.42H424.227V260H422.114ZM430.33 252.159L434.625 260H432.17L427.943 252.159H430.33ZM441.045 260.307C440.215 260.307 439.462 260.151 438.786 259.838C438.11 259.52 437.573 259.062 437.175 258.466C436.778 257.864 436.579 257.136 436.579 256.284C436.579 255.534 436.727 254.926 437.022 254.46C437.317 253.989 437.712 253.619 438.207 253.352C438.701 253.085 439.246 252.886 439.843 252.756C440.445 252.619 441.05 252.511 441.658 252.432C442.454 252.33 443.099 252.253 443.593 252.202C444.093 252.145 444.457 252.051 444.684 251.92C444.917 251.79 445.033 251.562 445.033 251.239V251.17C445.033 250.33 444.803 249.676 444.343 249.21C443.888 248.744 443.198 248.511 442.272 248.511C441.312 248.511 440.559 248.722 440.013 249.142C439.468 249.562 439.085 250.011 438.863 250.489L436.954 249.807C437.295 249.011 437.749 248.392 438.317 247.949C438.891 247.5 439.516 247.187 440.192 247.011C440.874 246.83 441.545 246.739 442.204 246.739C442.624 246.739 443.107 246.79 443.653 246.892C444.204 246.989 444.735 247.19 445.246 247.497C445.763 247.804 446.192 248.267 446.533 248.886C446.874 249.506 447.045 250.335 447.045 251.375V260H445.033V258.227H444.931C444.795 258.511 444.567 258.815 444.249 259.139C443.931 259.463 443.508 259.739 442.979 259.966C442.451 260.193 441.806 260.307 441.045 260.307ZM441.352 258.5C442.147 258.5 442.817 258.344 443.363 258.031C443.914 257.719 444.329 257.315 444.607 256.821C444.891 256.327 445.033 255.807 445.033 255.261V253.42C444.948 253.523 444.761 253.616 444.471 253.702C444.187 253.781 443.857 253.852 443.482 253.915C443.113 253.972 442.752 254.023 442.4 254.068C442.053 254.108 441.772 254.142 441.556 254.17C441.033 254.239 440.545 254.349 440.09 254.503C439.641 254.651 439.278 254.875 438.999 255.176C438.727 255.472 438.59 255.875 438.59 256.386C438.59 257.085 438.849 257.614 439.366 257.972C439.888 258.324 440.55 258.5 441.352 258.5ZM455.659 260.273C454.568 260.273 453.605 259.997 452.77 259.446C451.935 258.889 451.281 258.105 450.81 257.094C450.338 256.077 450.102 254.875 450.102 253.489C450.102 252.114 450.338 250.92 450.81 249.909C451.281 248.898 451.938 248.116 452.778 247.565C453.619 247.014 454.591 246.739 455.693 246.739C456.545 246.739 457.219 246.881 457.713 247.165C458.213 247.443 458.594 247.761 458.855 248.119C459.122 248.472 459.33 248.761 459.477 248.989H459.648V242.545H461.659V260H459.716V257.989H459.477C459.33 258.227 459.119 258.528 458.847 258.892C458.574 259.25 458.185 259.571 457.679 259.855C457.173 260.134 456.5 260.273 455.659 260.273ZM455.932 258.466C456.739 258.466 457.42 258.256 457.977 257.835C458.534 257.409 458.957 256.821 459.247 256.071C459.537 255.315 459.682 254.443 459.682 253.455C459.682 252.477 459.54 251.622 459.256 250.889C458.972 250.151 458.551 249.577 457.994 249.168C457.438 248.753 456.75 248.545 455.932 248.545C455.08 248.545 454.369 248.764 453.801 249.202C453.239 249.634 452.815 250.222 452.531 250.966C452.253 251.705 452.114 252.534 452.114 253.455C452.114 254.386 452.256 255.233 452.54 255.994C452.83 256.75 453.256 257.352 453.818 257.801C454.386 258.244 455.091 258.466 455.932 258.466ZM465.622 260V246.909H467.634V260H465.622ZM466.645 244.727C466.253 244.727 465.915 244.594 465.631 244.327C465.352 244.06 465.213 243.739 465.213 243.364C465.213 242.989 465.352 242.668 465.631 242.401C465.915 242.134 466.253 242 466.645 242C467.037 242 467.372 242.134 467.651 242.401C467.935 242.668 468.077 242.989 468.077 243.364C468.077 243.739 467.935 244.06 467.651 244.327C467.372 244.594 467.037 244.727 466.645 244.727ZM479.567 254.648V246.909H481.579V260H479.567V257.784H479.431C479.124 258.449 478.647 259.014 477.999 259.48C477.352 259.94 476.533 260.17 475.545 260.17C474.727 260.17 473.999 259.991 473.363 259.634C472.727 259.27 472.227 258.724 471.863 257.997C471.499 257.264 471.317 256.341 471.317 255.227V246.909H473.329V255.091C473.329 256.045 473.596 256.807 474.13 257.375C474.67 257.943 475.357 258.227 476.192 258.227C476.692 258.227 477.201 258.099 477.718 257.844C478.241 257.588 478.678 257.196 479.031 256.668C479.388 256.139 479.567 255.466 479.567 254.648ZM494.536 249.841L492.729 250.352C492.615 250.051 492.447 249.759 492.226 249.474C492.01 249.185 491.714 248.946 491.339 248.759C490.964 248.571 490.484 248.477 489.899 248.477C489.098 248.477 488.43 248.662 487.896 249.031C487.368 249.395 487.104 249.858 487.104 250.42C487.104 250.92 487.286 251.315 487.649 251.605C488.013 251.895 488.581 252.136 489.354 252.33L491.297 252.807C492.467 253.091 493.339 253.526 493.913 254.111C494.487 254.69 494.774 255.437 494.774 256.352C494.774 257.102 494.558 257.773 494.126 258.364C493.7 258.955 493.104 259.42 492.337 259.761C491.57 260.102 490.678 260.273 489.661 260.273C488.325 260.273 487.22 259.983 486.345 259.403C485.47 258.824 484.916 257.977 484.683 256.864L486.592 256.386C486.774 257.091 487.118 257.619 487.624 257.972C488.135 258.324 488.803 258.5 489.626 258.5C490.564 258.5 491.308 258.301 491.859 257.903C492.416 257.5 492.695 257.017 492.695 256.455C492.695 256 492.536 255.619 492.217 255.312C491.899 255 491.411 254.767 490.751 254.614L488.57 254.102C487.371 253.818 486.49 253.378 485.928 252.781C485.371 252.179 485.092 251.426 485.092 250.523C485.092 249.784 485.3 249.131 485.714 248.562C486.135 247.994 486.706 247.548 487.428 247.224C488.155 246.901 488.979 246.739 489.899 246.739C491.195 246.739 492.212 247.023 492.95 247.591C493.695 248.159 494.223 248.909 494.536 249.841Z" fill="white"/>
<path d="M30.1136 493V475.545H36.0114C37.3807 475.545 38.5 475.793 39.3693 476.287C40.2443 476.776 40.892 477.438 41.3125 478.273C41.733 479.108 41.9432 480.04 41.9432 481.068C41.9432 482.097 41.733 483.031 41.3125 483.872C40.8977 484.713 40.2557 485.384 39.3864 485.884C38.517 486.378 37.4034 486.625 36.0455 486.625H31.8182V484.75H35.9773C36.9148 484.75 37.6676 484.588 38.2358 484.264C38.804 483.94 39.2159 483.503 39.4716 482.952C39.733 482.395 39.8636 481.767 39.8636 481.068C39.8636 480.369 39.733 479.744 39.4716 479.193C39.2159 478.642 38.8011 478.21 38.2273 477.898C37.6534 477.58 36.892 477.42 35.9432 477.42H32.2273V493H30.1136ZM47.0866 485.125V493H45.0753V475.545H47.0866V481.955H47.2571C47.5639 481.278 48.0241 480.741 48.6378 480.344C49.2571 479.94 50.081 479.739 51.1094 479.739C52.0014 479.739 52.7827 479.918 53.4531 480.276C54.1236 480.628 54.6435 481.17 55.0128 481.903C55.3878 482.631 55.5753 483.557 55.5753 484.682V493H53.5639V484.818C53.5639 483.778 53.294 482.974 52.7543 482.406C52.2202 481.832 51.4787 481.545 50.5298 481.545C49.8707 481.545 49.2798 481.685 48.7571 481.963C48.2401 482.241 47.831 482.648 47.5298 483.182C47.2344 483.716 47.0866 484.364 47.0866 485.125ZM63.1072 493.307C62.2777 493.307 61.5249 493.151 60.8487 492.838C60.1726 492.52 59.6357 492.062 59.2379 491.466C58.8402 490.864 58.6413 490.136 58.6413 489.284C58.6413 488.534 58.7891 487.926 59.0845 487.46C59.38 486.989 59.7749 486.619 60.2692 486.352C60.7635 486.085 61.3089 485.886 61.9055 485.756C62.5078 485.619 63.1129 485.511 63.7209 485.432C64.5163 485.33 65.1612 485.253 65.6555 485.202C66.1555 485.145 66.5192 485.051 66.7464 484.92C66.9794 484.79 67.0959 484.562 67.0959 484.239V484.17C67.0959 483.33 66.8658 482.676 66.4055 482.21C65.951 481.744 65.2607 481.511 64.3345 481.511C63.3743 481.511 62.6214 481.722 62.076 482.142C61.5305 482.562 61.147 483.011 60.9254 483.489L59.0163 482.807C59.3572 482.011 59.8118 481.392 60.38 480.949C60.9538 480.5 61.5788 480.187 62.255 480.011C62.9368 479.83 63.6072 479.739 64.2663 479.739C64.6868 479.739 65.1697 479.79 65.7152 479.892C66.2663 479.989 66.7976 480.19 67.3089 480.497C67.826 480.804 68.255 481.267 68.5959 481.886C68.9368 482.506 69.1072 483.335 69.1072 484.375V493H67.0959V491.227H66.9936C66.8572 491.511 66.63 491.815 66.3118 492.139C65.9936 492.463 65.5703 492.739 65.0419 492.966C64.5135 493.193 63.8686 493.307 63.1072 493.307ZM63.4141 491.5C64.2095 491.5 64.88 491.344 65.4254 491.031C65.9766 490.719 66.3913 490.315 66.6697 489.821C66.9538 489.327 67.0959 488.807 67.0959 488.261V486.42C67.0107 486.523 66.8232 486.616 66.5334 486.702C66.2493 486.781 65.9197 486.852 65.5447 486.915C65.1754 486.972 64.8146 487.023 64.4624 487.068C64.1158 487.108 63.8345 487.142 63.6186 487.17C63.0959 487.239 62.6072 487.349 62.1527 487.503C61.7038 487.651 61.3402 487.875 61.0618 488.176C60.7891 488.472 60.6527 488.875 60.6527 489.386C60.6527 490.085 60.9112 490.614 61.4283 490.972C61.951 491.324 62.6129 491.5 63.4141 491.5ZM82.0511 482.841L80.2443 483.352C80.1307 483.051 79.9631 482.759 79.7415 482.474C79.5256 482.185 79.2301 481.946 78.8551 481.759C78.4801 481.571 78 481.477 77.4148 481.477C76.6136 481.477 75.946 481.662 75.4119 482.031C74.8835 482.395 74.6193 482.858 74.6193 483.42C74.6193 483.92 74.8011 484.315 75.1648 484.605C75.5284 484.895 76.0966 485.136 76.8693 485.33L78.8125 485.807C79.983 486.091 80.8551 486.526 81.429 487.111C82.0028 487.69 82.2898 488.437 82.2898 489.352C82.2898 490.102 82.0739 490.773 81.642 491.364C81.2159 491.955 80.6193 492.42 79.8523 492.761C79.0852 493.102 78.1932 493.273 77.1761 493.273C75.8409 493.273 74.7358 492.983 73.8608 492.403C72.9858 491.824 72.4318 490.977 72.1989 489.864L74.108 489.386C74.2898 490.091 74.6335 490.619 75.1392 490.972C75.6506 491.324 76.3182 491.5 77.142 491.5C78.0795 491.5 78.8239 491.301 79.375 490.903C79.9318 490.5 80.2102 490.017 80.2102 489.455C80.2102 489 80.0511 488.619 79.733 488.312C79.4148 488 78.9261 487.767 78.267 487.614L76.0852 487.102C74.8864 486.818 74.0057 486.378 73.4432 485.781C72.8864 485.179 72.608 484.426 72.608 483.523C72.608 482.784 72.8153 482.131 73.2301 481.562C73.6506 480.994 74.2216 480.548 74.9432 480.224C75.6705 479.901 76.4943 479.739 77.4148 479.739C78.7102 479.739 79.7273 480.023 80.4659 480.591C81.2102 481.159 81.7386 481.909 82.0511 482.841ZM90.8061 493.273C89.5447 493.273 88.4567 492.994 87.5419 492.438C86.6328 491.875 85.9311 491.091 85.4368 490.085C84.9482 489.074 84.7038 487.898 84.7038 486.557C84.7038 485.216 84.9482 484.034 85.4368 483.011C85.9311 481.983 86.6186 481.182 87.4993 480.608C88.3857 480.028 89.4197 479.739 90.6016 479.739C91.2834 479.739 91.9567 479.852 92.6214 480.08C93.2862 480.307 93.8913 480.676 94.4368 481.188C94.9822 481.693 95.4169 482.364 95.7408 483.199C96.0646 484.034 96.2266 485.062 96.2266 486.284V487.136H86.1357V485.398H94.1811C94.1811 484.659 94.0334 484 93.7379 483.42C93.4482 482.841 93.0334 482.384 92.4936 482.048C91.9595 481.713 91.3288 481.545 90.6016 481.545C89.8004 481.545 89.1072 481.744 88.522 482.142C87.9425 482.534 87.4964 483.045 87.1839 483.676C86.8714 484.307 86.7152 484.983 86.7152 485.705V486.864C86.7152 487.852 86.8857 488.69 87.2266 489.378C87.5732 490.06 88.0533 490.58 88.6669 490.938C89.2805 491.29 89.9936 491.466 90.8061 491.466C91.3345 491.466 91.8118 491.392 92.2379 491.244C92.6697 491.091 93.0419 490.864 93.3544 490.562C93.6669 490.256 93.9084 489.875 94.0788 489.42L96.022 489.966C95.8175 490.625 95.4737 491.205 94.9908 491.705C94.5078 492.199 93.9112 492.585 93.201 492.864C92.4908 493.136 91.6925 493.273 90.8061 493.273Z" fill="white"/>
<path d="M43.9545 515.545V533H41.9091L32.3977 519.295H32.2273V533H30.1136V515.545H32.1591L41.7045 529.284H41.875V515.545H43.9545ZM56.1612 527.648V519.909H58.1726V533H56.1612V530.784H56.0249C55.718 531.449 55.2408 532.014 54.593 532.48C53.9453 532.94 53.1271 533.17 52.1385 533.17C51.3203 533.17 50.593 532.991 49.9567 532.634C49.3203 532.27 48.8203 531.724 48.4567 530.997C48.093 530.264 47.9112 529.341 47.9112 528.227V519.909H49.9226V528.091C49.9226 529.045 50.1896 529.807 50.7237 530.375C51.2635 530.943 51.951 531.227 52.7862 531.227C53.2862 531.227 53.7947 531.099 54.3118 530.844C54.8345 530.588 55.272 530.196 55.6243 529.668C55.9822 529.139 56.1612 528.466 56.1612 527.648ZM61.8565 533V519.909H63.7997V521.955H63.9702C64.2429 521.256 64.6832 520.713 65.2912 520.327C65.8991 519.935 66.6293 519.739 67.4815 519.739C68.3452 519.739 69.0639 519.935 69.6378 520.327C70.2173 520.713 70.669 521.256 70.9929 521.955H71.1293C71.4645 521.278 71.9673 520.741 72.6378 520.344C73.3082 519.94 74.1122 519.739 75.0497 519.739C76.2202 519.739 77.1776 520.105 77.9219 520.838C78.6662 521.565 79.0384 522.699 79.0384 524.239V533H77.027V524.239C77.027 523.273 76.7628 522.582 76.2344 522.168C75.706 521.753 75.0838 521.545 74.3679 521.545C73.4474 521.545 72.7344 521.824 72.2287 522.381C71.723 522.932 71.4702 523.631 71.4702 524.477V533H69.4247V524.034C69.4247 523.29 69.1832 522.69 68.7003 522.236C68.2173 521.776 67.5952 521.545 66.8338 521.545C66.3111 521.545 65.8224 521.685 65.3679 521.963C64.919 522.241 64.5554 522.628 64.277 523.122C64.0043 523.611 63.8679 524.176 63.8679 524.818V533H61.8565ZM88.2045 533.273C86.9432 533.273 85.8551 532.994 84.9403 532.438C84.0312 531.875 83.3295 531.091 82.8352 530.085C82.3466 529.074 82.1023 527.898 82.1023 526.557C82.1023 525.216 82.3466 524.034 82.8352 523.011C83.3295 521.983 84.017 521.182 84.8977 520.608C85.7841 520.028 86.8182 519.739 88 519.739C88.6818 519.739 89.3551 519.852 90.0199 520.08C90.6847 520.307 91.2898 520.676 91.8352 521.188C92.3807 521.693 92.8153 522.364 93.1392 523.199C93.4631 524.034 93.625 525.062 93.625 526.284V527.136H83.5341V525.398H91.5795C91.5795 524.659 91.4318 524 91.1364 523.42C90.8466 522.841 90.4318 522.384 89.892 522.048C89.358 521.713 88.7273 521.545 88 521.545C87.1989 521.545 86.5057 521.744 85.9205 522.142C85.3409 522.534 84.8949 523.045 84.5824 523.676C84.2699 524.307 84.1136 524.983 84.1136 525.705V526.864C84.1136 527.852 84.2841 528.69 84.625 529.378C84.9716 530.06 85.4517 530.58 86.0653 530.938C86.679 531.29 87.392 531.466 88.2045 531.466C88.733 531.466 89.2102 531.392 89.6364 531.244C90.0682 531.091 90.4403 530.864 90.7528 530.562C91.0653 530.256 91.3068 529.875 91.4773 529.42L93.4205 529.966C93.2159 530.625 92.8722 531.205 92.3892 531.705C91.9063 532.199 91.3097 532.585 90.5994 532.864C89.8892 533.136 89.0909 533.273 88.2045 533.273ZM96.6847 533V519.909H98.6278V521.886H98.7642C99.0028 521.239 99.4347 520.713 100.06 520.31C100.685 519.906 101.389 519.705 102.173 519.705C102.321 519.705 102.506 519.707 102.727 519.713C102.949 519.719 103.116 519.727 103.23 519.739V521.784C103.162 521.767 103.006 521.741 102.761 521.707C102.523 521.668 102.27 521.648 102.003 521.648C101.366 521.648 100.798 521.781 100.298 522.048C99.804 522.31 99.4119 522.673 99.1222 523.139C98.8381 523.599 98.696 524.125 98.696 524.716V533H96.6847ZM109.467 533.307C108.637 533.307 107.884 533.151 107.208 532.838C106.532 532.52 105.995 532.062 105.597 531.466C105.2 530.864 105.001 530.136 105.001 529.284C105.001 528.534 105.148 527.926 105.444 527.46C105.739 526.989 106.134 526.619 106.629 526.352C107.123 526.085 107.668 525.886 108.265 525.756C108.867 525.619 109.472 525.511 110.08 525.432C110.876 525.33 111.521 525.253 112.015 525.202C112.515 525.145 112.879 525.051 113.106 524.92C113.339 524.79 113.455 524.562 113.455 524.239V524.17C113.455 523.33 113.225 522.676 112.765 522.21C112.31 521.744 111.62 521.511 110.694 521.511C109.734 521.511 108.981 521.722 108.435 522.142C107.89 522.562 107.506 523.011 107.285 523.489L105.376 522.807C105.717 522.011 106.171 521.392 106.739 520.949C107.313 520.5 107.938 520.187 108.614 520.011C109.296 519.83 109.967 519.739 110.626 519.739C111.046 519.739 111.529 519.79 112.075 519.892C112.626 519.989 113.157 520.19 113.668 520.497C114.185 520.804 114.614 521.267 114.955 521.886C115.296 522.506 115.467 523.335 115.467 524.375V533H113.455V531.227H113.353C113.217 531.511 112.989 531.815 112.671 532.139C112.353 532.463 111.93 532.739 111.401 532.966C110.873 533.193 110.228 533.307 109.467 533.307ZM109.773 531.5C110.569 531.5 111.239 531.344 111.785 531.031C112.336 530.719 112.751 530.315 113.029 529.821C113.313 529.327 113.455 528.807 113.455 528.261V526.42C113.37 526.523 113.183 526.616 112.893 526.702C112.609 526.781 112.279 526.852 111.904 526.915C111.535 526.972 111.174 527.023 110.822 527.068C110.475 527.108 110.194 527.142 109.978 527.17C109.455 527.239 108.967 527.349 108.512 527.503C108.063 527.651 107.7 527.875 107.421 528.176C107.148 528.472 107.012 528.875 107.012 529.386C107.012 530.085 107.271 530.614 107.788 530.972C108.31 531.324 108.972 531.5 109.773 531.5ZM124.831 519.909V521.614H118.047V519.909H124.831ZM120.024 516.773H122.036V529.25C122.036 529.818 122.118 530.244 122.283 530.528C122.453 530.807 122.669 530.994 122.93 531.091C123.197 531.182 123.479 531.227 123.774 531.227C123.996 531.227 124.178 531.216 124.32 531.193C124.462 531.165 124.575 531.142 124.661 531.125L125.07 532.932C124.933 532.983 124.743 533.034 124.499 533.085C124.254 533.142 123.945 533.17 123.57 533.17C123.001 533.17 122.445 533.048 121.899 532.804C121.359 532.56 120.911 532.188 120.553 531.688C120.2 531.188 120.024 530.557 120.024 529.795V516.773ZM133.034 533.273C131.852 533.273 130.815 532.991 129.923 532.429C129.037 531.866 128.344 531.08 127.844 530.068C127.349 529.057 127.102 527.875 127.102 526.523C127.102 525.159 127.349 523.969 127.844 522.952C128.344 521.935 129.037 521.145 129.923 520.582C130.815 520.02 131.852 519.739 133.034 519.739C134.216 519.739 135.25 520.02 136.136 520.582C137.028 521.145 137.722 521.935 138.216 522.952C138.716 523.969 138.966 525.159 138.966 526.523C138.966 527.875 138.716 529.057 138.216 530.068C137.722 531.08 137.028 531.866 136.136 532.429C135.25 532.991 134.216 533.273 133.034 533.273ZM133.034 531.466C133.932 531.466 134.67 531.236 135.25 530.776C135.83 530.315 136.259 529.71 136.537 528.96C136.815 528.21 136.955 527.398 136.955 526.523C136.955 525.648 136.815 524.832 136.537 524.077C136.259 523.321 135.83 522.71 135.25 522.244C134.67 521.778 133.932 521.545 133.034 521.545C132.136 521.545 131.398 521.778 130.818 522.244C130.239 522.71 129.81 523.321 129.531 524.077C129.253 524.832 129.114 525.648 129.114 526.523C129.114 527.398 129.253 528.21 129.531 528.96C129.81 529.71 130.239 530.315 130.818 530.776C131.398 531.236 132.136 531.466 133.034 531.466ZM142.036 533V519.909H143.979V521.886H144.116C144.354 521.239 144.786 520.713 145.411 520.31C146.036 519.906 146.741 519.705 147.525 519.705C147.673 519.705 147.857 519.707 148.079 519.713C148.3 519.719 148.468 519.727 148.582 519.739V521.784C148.513 521.767 148.357 521.741 148.113 521.707C147.874 521.668 147.621 521.648 147.354 521.648C146.718 521.648 146.15 521.781 145.65 522.048C145.156 522.31 144.763 522.673 144.474 523.139C144.19 523.599 144.048 524.125 144.048 524.716V533H142.036Z" fill="white"/>
<path d="M29.1591 557.42V555.545H42.25V557.42H36.7614V573H34.6477V557.42H29.1591ZM45.0348 577.909C44.6939 577.909 44.3899 577.881 44.1229 577.824C43.8558 577.773 43.6712 577.722 43.5689 577.67L44.0803 575.898C44.5689 576.023 45.0007 576.068 45.3757 576.034C45.7507 576 46.0831 575.832 46.3729 575.531C46.6683 575.236 46.9382 574.756 47.1825 574.091L47.5575 573.068L42.7166 559.909H44.8984L48.5121 570.341H48.6484L52.2621 559.909H54.4439L48.8871 574.909C48.6371 575.585 48.3274 576.145 47.9581 576.588C47.5888 577.037 47.1598 577.369 46.6712 577.585C46.1882 577.801 45.6428 577.909 45.0348 577.909ZM57.0987 577.909V559.909H59.0419V561.989H59.2805C59.4283 561.761 59.6328 561.472 59.8942 561.119C60.1612 560.761 60.5419 560.443 61.0362 560.165C61.5362 559.881 62.2124 559.739 63.0646 559.739C64.1669 559.739 65.1385 560.014 65.9794 560.565C66.8203 561.116 67.4766 561.898 67.9482 562.909C68.4197 563.92 68.6555 565.114 68.6555 566.489C68.6555 567.875 68.4197 569.077 67.9482 570.094C67.4766 571.105 66.8232 571.889 65.9879 572.446C65.1527 572.997 64.1896 573.273 63.0987 573.273C62.2578 573.273 61.5845 573.134 61.0788 572.855C60.5732 572.571 60.1839 572.25 59.9112 571.892C59.6385 571.528 59.4283 571.227 59.2805 570.989H59.1101V577.909H57.0987ZM59.076 566.455C59.076 567.443 59.2209 568.315 59.5107 569.071C59.8004 569.821 60.2237 570.409 60.7805 570.835C61.3374 571.256 62.0192 571.466 62.826 571.466C63.6669 571.466 64.3686 571.244 64.9311 570.801C65.4993 570.352 65.9254 569.75 66.2095 568.994C66.4993 568.233 66.6442 567.386 66.6442 566.455C66.6442 565.534 66.5021 564.705 66.218 563.966C65.9396 563.222 65.5163 562.634 64.9482 562.202C64.3857 561.764 63.6783 561.545 62.826 561.545C62.0078 561.545 61.3203 561.753 60.7635 562.168C60.2067 562.577 59.7862 563.151 59.5021 563.889C59.218 564.622 59.076 565.477 59.076 566.455ZM77.2124 573.273C75.951 573.273 74.8629 572.994 73.9482 572.438C73.0391 571.875 72.3374 571.091 71.843 570.085C71.3544 569.074 71.1101 567.898 71.1101 566.557C71.1101 565.216 71.3544 564.034 71.843 563.011C72.3374 561.983 73.0249 561.182 73.9055 560.608C74.7919 560.028 75.826 559.739 77.0078 559.739C77.6896 559.739 78.3629 559.852 79.0277 560.08C79.6925 560.307 80.2976 560.676 80.843 561.188C81.3885 561.693 81.8232 562.364 82.147 563.199C82.4709 564.034 82.6328 565.062 82.6328 566.284V567.136H72.5419V565.398H80.5874C80.5874 564.659 80.4396 564 80.1442 563.42C79.8544 562.841 79.4396 562.384 78.8999 562.048C78.3658 561.713 77.7351 561.545 77.0078 561.545C76.2067 561.545 75.5135 561.744 74.9283 562.142C74.3487 562.534 73.9027 563.045 73.5902 563.676C73.2777 564.307 73.1214 564.983 73.1214 565.705V566.864C73.1214 567.852 73.2919 568.69 73.6328 569.378C73.9794 570.06 74.4595 570.58 75.0732 570.938C75.6868 571.29 76.3999 571.466 77.2124 571.466C77.7408 571.466 78.218 571.392 78.6442 571.244C79.076 571.091 79.4482 570.864 79.7607 570.562C80.0732 570.256 80.3146 569.875 80.4851 569.42L82.4283 569.966C82.2237 570.625 81.88 571.205 81.397 571.705C80.9141 572.199 80.3175 572.585 79.6072 572.864C78.897 573.136 78.0987 573.273 77.2124 573.273Z" fill="white"/>
<path d="M30.1136 613V595.545H36.0114C37.375 595.545 38.4943 595.778 39.3693 596.244C40.2443 596.705 40.892 597.338 41.3125 598.145C41.733 598.952 41.9432 599.869 41.9432 600.898C41.9432 601.926 41.733 602.838 41.3125 603.634C40.892 604.429 40.2472 605.054 39.3778 605.509C38.5085 605.957 37.3977 606.182 36.0455 606.182H31.2727V604.273H35.9773C36.9091 604.273 37.6591 604.136 38.2273 603.864C38.8011 603.591 39.2159 603.205 39.4716 602.705C39.733 602.199 39.8636 601.597 39.8636 600.898C39.8636 600.199 39.733 599.588 39.4716 599.065C39.2102 598.543 38.7926 598.139 38.2188 597.855C37.6449 597.565 36.8864 597.42 35.9432 597.42H32.2273V613H30.1136ZM38.3295 605.159L42.625 613H40.1705L35.9432 605.159H38.3295ZM49.0447 613.307C48.2152 613.307 47.4624 613.151 46.7862 612.838C46.1101 612.52 45.5732 612.062 45.1754 611.466C44.7777 610.864 44.5788 610.136 44.5788 609.284C44.5788 608.534 44.7266 607.926 45.022 607.46C45.3175 606.989 45.7124 606.619 46.2067 606.352C46.701 606.085 47.2464 605.886 47.843 605.756C48.4453 605.619 49.0504 605.511 49.6584 605.432C50.4538 605.33 51.0987 605.253 51.593 605.202C52.093 605.145 52.4567 605.051 52.6839 604.92C52.9169 604.79 53.0334 604.562 53.0334 604.239V604.17C53.0334 603.33 52.8033 602.676 52.343 602.21C51.8885 601.744 51.1982 601.511 50.272 601.511C49.3118 601.511 48.5589 601.722 48.0135 602.142C47.468 602.562 47.0845 603.011 46.8629 603.489L44.9538 602.807C45.2947 602.011 45.7493 601.392 46.3175 600.949C46.8913 600.5 47.5163 600.187 48.1925 600.011C48.8743 599.83 49.5447 599.739 50.2038 599.739C50.6243 599.739 51.1072 599.79 51.6527 599.892C52.2038 599.989 52.7351 600.19 53.2464 600.497C53.7635 600.804 54.1925 601.267 54.5334 601.886C54.8743 602.506 55.0447 603.335 55.0447 604.375V613H53.0334V611.227H52.9311C52.7947 611.511 52.5675 611.815 52.2493 612.139C51.9311 612.463 51.5078 612.739 50.9794 612.966C50.451 613.193 49.8061 613.307 49.0447 613.307ZM49.3516 611.5C50.147 611.5 50.8175 611.344 51.3629 611.031C51.9141 610.719 52.3288 610.315 52.6072 609.821C52.8913 609.327 53.0334 608.807 53.0334 608.261V606.42C52.9482 606.523 52.7607 606.616 52.4709 606.702C52.1868 606.781 51.8572 606.852 51.4822 606.915C51.1129 606.972 50.7521 607.023 50.3999 607.068C50.0533 607.108 49.772 607.142 49.5561 607.17C49.0334 607.239 48.5447 607.349 48.0902 607.503C47.6413 607.651 47.2777 607.875 46.9993 608.176C46.7266 608.472 46.5902 608.875 46.5902 609.386C46.5902 610.085 46.8487 610.614 47.3658 610.972C47.8885 611.324 48.5504 611.5 49.3516 611.5ZM60.7273 605.125V613H58.7159V599.909H60.6591V601.955H60.8295C61.1364 601.29 61.6023 600.756 62.2273 600.352C62.8523 599.943 63.6591 599.739 64.6477 599.739C65.5341 599.739 66.3097 599.92 66.9744 600.284C67.6392 600.642 68.1563 601.188 68.5256 601.92C68.8949 602.648 69.0795 603.568 69.0795 604.682V613H67.0682V604.818C67.0682 603.79 66.8011 602.989 66.267 602.415C65.733 601.835 65 601.545 64.0682 601.545C63.4261 601.545 62.8523 601.685 62.3466 601.963C61.8466 602.241 61.4517 602.648 61.1619 603.182C60.8722 603.716 60.7273 604.364 60.7273 605.125ZM77.6982 613.273C76.6072 613.273 75.6442 612.997 74.8089 612.446C73.9737 611.889 73.3203 611.105 72.8487 610.094C72.3771 609.077 72.1413 607.875 72.1413 606.489C72.1413 605.114 72.3771 603.92 72.8487 602.909C73.3203 601.898 73.9766 601.116 74.8175 600.565C75.6584 600.014 76.63 599.739 77.7322 599.739C78.5845 599.739 79.2578 599.881 79.7521 600.165C80.2521 600.443 80.6328 600.761 80.8942 601.119C81.1612 601.472 81.3686 601.761 81.5163 601.989H81.6868V595.545H83.6982V613H81.755V610.989H81.5163C81.3686 611.227 81.1584 611.528 80.8857 611.892C80.6129 612.25 80.2237 612.571 79.718 612.855C79.2124 613.134 78.5391 613.273 77.6982 613.273ZM77.9709 611.466C78.7777 611.466 79.4595 611.256 80.0163 610.835C80.5732 610.409 80.9964 609.821 81.2862 609.071C81.576 608.315 81.7209 607.443 81.7209 606.455C81.7209 605.477 81.5788 604.622 81.2947 603.889C81.0107 603.151 80.5902 602.577 80.0334 602.168C79.4766 601.753 78.7891 601.545 77.9709 601.545C77.1186 601.545 76.4084 601.764 75.8402 602.202C75.2777 602.634 74.8544 603.222 74.5703 603.966C74.2919 604.705 74.1527 605.534 74.1527 606.455C74.1527 607.386 74.2947 608.233 74.5788 608.994C74.8686 609.75 75.2947 610.352 75.8572 610.801C76.4254 611.244 77.13 611.466 77.9709 611.466ZM92.9794 613.273C91.7976 613.273 90.7607 612.991 89.8686 612.429C88.9822 611.866 88.2891 611.08 87.7891 610.068C87.2947 609.057 87.0476 607.875 87.0476 606.523C87.0476 605.159 87.2947 603.969 87.7891 602.952C88.2891 601.935 88.9822 601.145 89.8686 600.582C90.7607 600.02 91.7976 599.739 92.9794 599.739C94.1612 599.739 95.1953 600.02 96.0817 600.582C96.9737 601.145 97.6669 601.935 98.1612 602.952C98.6612 603.969 98.9112 605.159 98.9112 606.523C98.9112 607.875 98.6612 609.057 98.1612 610.068C97.6669 611.08 96.9737 611.866 96.0817 612.429C95.1953 612.991 94.1612 613.273 92.9794 613.273ZM92.9794 611.466C93.8771 611.466 94.6158 611.236 95.1953 610.776C95.7749 610.315 96.2038 609.71 96.4822 608.96C96.7607 608.21 96.8999 607.398 96.8999 606.523C96.8999 605.648 96.7607 604.832 96.4822 604.077C96.2038 603.321 95.7749 602.71 95.1953 602.244C94.6158 601.778 93.8771 601.545 92.9794 601.545C92.0817 601.545 91.343 601.778 90.7635 602.244C90.1839 602.71 89.755 603.321 89.4766 604.077C89.1982 604.832 89.0589 605.648 89.0589 606.523C89.0589 607.398 89.1982 608.21 89.4766 608.96C89.755 609.71 90.1839 610.315 90.7635 610.776C91.343 611.236 92.0817 611.466 92.9794 611.466ZM101.982 613V599.909H103.925V601.955H104.095C104.368 601.256 104.808 600.713 105.416 600.327C106.024 599.935 106.754 599.739 107.607 599.739C108.47 599.739 109.189 599.935 109.763 600.327C110.342 600.713 110.794 601.256 111.118 601.955H111.254C111.589 601.278 112.092 600.741 112.763 600.344C113.433 599.94 114.237 599.739 115.175 599.739C116.345 599.739 117.303 600.105 118.047 600.838C118.791 601.565 119.163 602.699 119.163 604.239V613H117.152V604.239C117.152 603.273 116.888 602.582 116.359 602.168C115.831 601.753 115.209 601.545 114.493 601.545C113.572 601.545 112.859 601.824 112.354 602.381C111.848 602.932 111.595 603.631 111.595 604.477V613H109.55V604.034C109.55 603.29 109.308 602.69 108.825 602.236C108.342 601.776 107.72 601.545 106.959 601.545C106.436 601.545 105.947 601.685 105.493 601.963C105.044 602.241 104.68 602.628 104.402 603.122C104.129 603.611 103.993 604.176 103.993 604.818V613H101.982ZM122.841 613V599.909H124.852V613H122.841ZM123.864 597.727C123.472 597.727 123.134 597.594 122.849 597.327C122.571 597.06 122.432 596.739 122.432 596.364C122.432 595.989 122.571 595.668 122.849 595.401C123.134 595.134 123.472 595 123.864 595C124.256 595 124.591 595.134 124.869 595.401C125.153 595.668 125.295 595.989 125.295 596.364C125.295 596.739 125.153 597.06 124.869 597.327C124.591 597.594 124.256 597.727 123.864 597.727ZM128.161 613V611.466L135.593 601.92V601.784H128.4V599.909H138.184V601.511L130.957 610.989V611.125H138.423V613H128.161ZM146.634 613.273C145.373 613.273 144.285 612.994 143.37 612.438C142.461 611.875 141.759 611.091 141.265 610.085C140.776 609.074 140.532 607.898 140.532 606.557C140.532 605.216 140.776 604.034 141.265 603.011C141.759 601.983 142.447 601.182 143.327 600.608C144.214 600.028 145.248 599.739 146.43 599.739C147.112 599.739 147.785 599.852 148.45 600.08C149.114 600.307 149.719 600.676 150.265 601.188C150.81 601.693 151.245 602.364 151.569 603.199C151.893 604.034 152.055 605.062 152.055 606.284V607.136H141.964V605.398H150.009C150.009 604.659 149.862 604 149.566 603.42C149.276 602.841 148.862 602.384 148.322 602.048C147.788 601.713 147.157 601.545 146.43 601.545C145.629 601.545 144.935 601.744 144.35 602.142C143.771 602.534 143.325 603.045 143.012 603.676C142.7 604.307 142.543 604.983 142.543 605.705V606.864C142.543 607.852 142.714 608.69 143.055 609.378C143.401 610.06 143.881 610.58 144.495 610.938C145.109 611.29 145.822 611.466 146.634 611.466C147.163 611.466 147.64 611.392 148.066 611.244C148.498 611.091 148.87 610.864 149.183 610.562C149.495 610.256 149.737 609.875 149.907 609.42L151.85 609.966C151.646 610.625 151.302 611.205 150.819 611.705C150.336 612.199 149.739 612.585 149.029 612.864C148.319 613.136 147.521 613.273 146.634 613.273Z" fill="white"/>
<path d="M432.114 493V475.545H434.227V484.205H434.432L442.273 475.545H445.034L437.705 483.42L445.034 493H442.477L436.409 484.886L434.227 487.341V493H432.114ZM452.025 493.273C450.763 493.273 449.675 492.994 448.761 492.438C447.852 491.875 447.15 491.091 446.656 490.085C446.167 489.074 445.923 487.898 445.923 486.557C445.923 485.216 446.167 484.034 446.656 483.011C447.15 481.983 447.837 481.182 448.718 480.608C449.604 480.028 450.638 479.739 451.82 479.739C452.502 479.739 453.175 479.852 453.84 480.08C454.505 480.307 455.11 480.676 455.656 481.188C456.201 481.693 456.636 482.364 456.96 483.199C457.283 484.034 457.445 485.062 457.445 486.284V487.136H447.354V485.398H455.4C455.4 484.659 455.252 484 454.957 483.42C454.667 482.841 454.252 482.384 453.712 482.048C453.178 481.713 452.548 481.545 451.82 481.545C451.019 481.545 450.326 481.744 449.741 482.142C449.161 482.534 448.715 483.045 448.403 483.676C448.09 484.307 447.934 484.983 447.934 485.705V486.864C447.934 487.852 448.104 488.69 448.445 489.378C448.792 490.06 449.272 490.58 449.886 490.938C450.499 491.29 451.212 491.466 452.025 491.466C452.553 491.466 453.031 491.392 453.457 491.244C453.888 491.091 454.261 490.864 454.573 490.562C454.886 490.256 455.127 489.875 455.298 489.42L457.241 489.966C457.036 490.625 456.692 491.205 456.21 491.705C455.727 492.199 455.13 492.585 454.42 492.864C453.71 493.136 452.911 493.273 452.025 493.273ZM461.402 497.909C461.061 497.909 460.757 497.881 460.49 497.824C460.223 497.773 460.038 497.722 459.936 497.67L460.447 495.898C460.936 496.023 461.368 496.068 461.743 496.034C462.118 496 462.45 495.832 462.74 495.531C463.036 495.236 463.305 494.756 463.55 494.091L463.925 493.068L459.084 479.909H461.266L464.879 490.341H465.016L468.629 479.909H470.811L465.254 494.909C465.004 495.585 464.695 496.145 464.325 496.588C463.956 497.037 463.527 497.369 463.038 497.585C462.555 497.801 462.01 497.909 461.402 497.909Z" fill="white"/>
<path d="M432.114 553V535.545H438.011C439.375 535.545 440.494 535.778 441.369 536.244C442.244 536.705 442.892 537.338 443.312 538.145C443.733 538.952 443.943 539.869 443.943 540.898C443.943 541.926 443.733 542.838 443.312 543.634C442.892 544.429 442.247 545.054 441.378 545.509C440.509 545.957 439.398 546.182 438.045 546.182H433.273V544.273H437.977C438.909 544.273 439.659 544.136 440.227 543.864C440.801 543.591 441.216 543.205 441.472 542.705C441.733 542.199 441.864 541.597 441.864 540.898C441.864 540.199 441.733 539.588 441.472 539.065C441.21 538.543 440.793 538.139 440.219 537.855C439.645 537.565 438.886 537.42 437.943 537.42H434.227V553H432.114ZM440.33 545.159L444.625 553H442.17L437.943 545.159H440.33ZM451.045 553.307C450.215 553.307 449.462 553.151 448.786 552.838C448.11 552.52 447.573 552.062 447.175 551.466C446.778 550.864 446.579 550.136 446.579 549.284C446.579 548.534 446.727 547.926 447.022 547.46C447.317 546.989 447.712 546.619 448.207 546.352C448.701 546.085 449.246 545.886 449.843 545.756C450.445 545.619 451.05 545.511 451.658 545.432C452.454 545.33 453.099 545.253 453.593 545.202C454.093 545.145 454.457 545.051 454.684 544.92C454.917 544.79 455.033 544.562 455.033 544.239V544.17C455.033 543.33 454.803 542.676 454.343 542.21C453.888 541.744 453.198 541.511 452.272 541.511C451.312 541.511 450.559 541.722 450.013 542.142C449.468 542.562 449.085 543.011 448.863 543.489L446.954 542.807C447.295 542.011 447.749 541.392 448.317 540.949C448.891 540.5 449.516 540.187 450.192 540.011C450.874 539.83 451.545 539.739 452.204 539.739C452.624 539.739 453.107 539.79 453.653 539.892C454.204 539.989 454.735 540.19 455.246 540.497C455.763 540.804 456.192 541.267 456.533 541.886C456.874 542.506 457.045 543.335 457.045 544.375V553H455.033V551.227H454.931C454.795 551.511 454.567 551.815 454.249 552.139C453.931 552.463 453.508 552.739 452.979 552.966C452.451 553.193 451.806 553.307 451.045 553.307ZM451.352 551.5C452.147 551.5 452.817 551.344 453.363 551.031C453.914 550.719 454.329 550.315 454.607 549.821C454.891 549.327 455.033 548.807 455.033 548.261V546.42C454.948 546.523 454.761 546.616 454.471 546.702C454.187 546.781 453.857 546.852 453.482 546.915C453.113 546.972 452.752 547.023 452.4 547.068C452.053 547.108 451.772 547.142 451.556 547.17C451.033 547.239 450.545 547.349 450.09 547.503C449.641 547.651 449.278 547.875 448.999 548.176C448.727 548.472 448.59 548.875 448.59 549.386C448.59 550.085 448.849 550.614 449.366 550.972C449.888 551.324 450.55 551.5 451.352 551.5ZM462.727 545.125V553H460.716V539.909H462.659V541.955H462.83C463.136 541.29 463.602 540.756 464.227 540.352C464.852 539.943 465.659 539.739 466.648 539.739C467.534 539.739 468.31 539.92 468.974 540.284C469.639 540.642 470.156 541.188 470.526 541.92C470.895 542.648 471.08 543.568 471.08 544.682V553H469.068V544.818C469.068 543.79 468.801 542.989 468.267 542.415C467.733 541.835 467 541.545 466.068 541.545C465.426 541.545 464.852 541.685 464.347 541.963C463.847 542.241 463.452 542.648 463.162 543.182C462.872 543.716 462.727 544.364 462.727 545.125ZM480.039 558.182C479.067 558.182 478.232 558.057 477.533 557.807C476.835 557.562 476.252 557.239 475.786 556.835C475.326 556.438 474.96 556.011 474.687 555.557L476.289 554.432C476.471 554.67 476.701 554.943 476.979 555.25C477.258 555.562 477.638 555.832 478.121 556.06C478.61 556.293 479.249 556.409 480.039 556.409C481.096 556.409 481.968 556.153 482.656 555.642C483.343 555.131 483.687 554.33 483.687 553.239V550.58H483.516C483.369 550.818 483.158 551.114 482.886 551.466C482.619 551.812 482.232 552.122 481.727 552.395C481.227 552.662 480.55 552.795 479.698 552.795C478.641 552.795 477.692 552.545 476.852 552.045C476.016 551.545 475.354 550.818 474.866 549.864C474.383 548.909 474.141 547.75 474.141 546.386C474.141 545.045 474.377 543.878 474.849 542.884C475.32 541.884 475.977 541.111 476.817 540.565C477.658 540.014 478.63 539.739 479.732 539.739C480.585 539.739 481.261 539.881 481.761 540.165C482.266 540.443 482.653 540.761 482.92 541.119C483.192 541.472 483.403 541.761 483.55 541.989H483.755V539.909H485.698V553.375C485.698 554.5 485.442 555.415 484.931 556.119C484.425 556.83 483.744 557.349 482.886 557.679C482.033 558.014 481.085 558.182 480.039 558.182ZM479.971 550.989C480.778 550.989 481.46 550.804 482.016 550.435C482.573 550.065 482.996 549.534 483.286 548.841C483.576 548.148 483.721 547.318 483.721 546.352C483.721 545.409 483.579 544.577 483.295 543.855C483.011 543.134 482.59 542.568 482.033 542.159C481.477 541.75 480.789 541.545 479.971 541.545C479.119 541.545 478.408 541.761 477.84 542.193C477.278 542.625 476.854 543.205 476.57 543.932C476.292 544.659 476.153 545.466 476.153 546.352C476.153 547.261 476.295 548.065 476.579 548.764C476.869 549.457 477.295 550.003 477.857 550.401C478.425 550.793 479.13 550.989 479.971 550.989ZM494.869 553.273C493.607 553.273 492.519 552.994 491.604 552.438C490.695 551.875 489.994 551.091 489.499 550.085C489.011 549.074 488.766 547.898 488.766 546.557C488.766 545.216 489.011 544.034 489.499 543.011C489.994 541.983 490.681 541.182 491.562 540.608C492.448 540.028 493.482 539.739 494.664 539.739C495.346 539.739 496.019 539.852 496.684 540.08C497.349 540.307 497.954 540.676 498.499 541.188C499.045 541.693 499.479 542.364 499.803 543.199C500.127 544.034 500.289 545.062 500.289 546.284V547.136H490.198V545.398H498.244C498.244 544.659 498.096 544 497.8 543.42C497.511 542.841 497.096 542.384 496.556 542.048C496.022 541.713 495.391 541.545 494.664 541.545C493.863 541.545 493.17 541.744 492.585 542.142C492.005 542.534 491.559 543.045 491.246 543.676C490.934 544.307 490.778 544.983 490.778 545.705V546.864C490.778 547.852 490.948 548.69 491.289 549.378C491.636 550.06 492.116 550.58 492.729 550.938C493.343 551.29 494.056 551.466 494.869 551.466C495.397 551.466 495.874 551.392 496.3 551.244C496.732 551.091 497.104 550.864 497.417 550.562C497.729 550.256 497.971 549.875 498.141 549.42L500.085 549.966C499.88 550.625 499.536 551.205 499.053 551.705C498.57 552.199 497.974 552.585 497.263 552.864C496.553 553.136 495.755 553.273 494.869 553.273Z" fill="white"/>
<path d="M432.114 613V595.545H438.011C439.375 595.545 440.494 595.778 441.369 596.244C442.244 596.705 442.892 597.338 443.312 598.145C443.733 598.952 443.943 599.869 443.943 600.898C443.943 601.926 443.733 602.838 443.312 603.634C442.892 604.429 442.247 605.054 441.378 605.509C440.509 605.957 439.398 606.182 438.045 606.182H433.273V604.273H437.977C438.909 604.273 439.659 604.136 440.227 603.864C440.801 603.591 441.216 603.205 441.472 602.705C441.733 602.199 441.864 601.597 441.864 600.898C441.864 600.199 441.733 599.588 441.472 599.065C441.21 598.543 440.793 598.139 440.219 597.855C439.645 597.565 438.886 597.42 437.943 597.42H434.227V613H432.114ZM440.33 605.159L444.625 613H442.17L437.943 605.159H440.33ZM452.37 613.273C451.188 613.273 450.151 612.991 449.259 612.429C448.373 611.866 447.68 611.08 447.18 610.068C446.685 609.057 446.438 607.875 446.438 606.523C446.438 605.159 446.685 603.969 447.18 602.952C447.68 601.935 448.373 601.145 449.259 600.582C450.151 600.02 451.188 599.739 452.37 599.739C453.552 599.739 454.586 600.02 455.472 600.582C456.364 601.145 457.058 601.935 457.552 602.952C458.052 603.969 458.302 605.159 458.302 606.523C458.302 607.875 458.052 609.057 457.552 610.068C457.058 611.08 456.364 611.866 455.472 612.429C454.586 612.991 453.552 613.273 452.37 613.273ZM452.37 611.466C453.268 611.466 454.006 611.236 454.586 610.776C455.165 610.315 455.594 609.71 455.873 608.96C456.151 608.21 456.29 607.398 456.29 606.523C456.29 605.648 456.151 604.832 455.873 604.077C455.594 603.321 455.165 602.71 454.586 602.244C454.006 601.778 453.268 601.545 452.37 601.545C451.472 601.545 450.734 601.778 450.154 602.244C449.575 602.71 449.146 603.321 448.867 604.077C448.589 604.832 448.45 605.648 448.45 606.523C448.45 607.398 448.589 608.21 448.867 608.96C449.146 609.71 449.575 610.315 450.154 610.776C450.734 611.236 451.472 611.466 452.37 611.466ZM466.69 613.273C465.509 613.273 464.472 612.991 463.58 612.429C462.693 611.866 462 611.08 461.5 610.068C461.006 609.057 460.759 607.875 460.759 606.523C460.759 605.159 461.006 603.969 461.5 602.952C462 601.935 462.693 601.145 463.58 600.582C464.472 600.02 465.509 599.739 466.69 599.739C467.872 599.739 468.906 600.02 469.793 600.582C470.685 601.145 471.378 601.935 471.872 602.952C472.372 603.969 472.622 605.159 472.622 606.523C472.622 607.875 472.372 609.057 471.872 610.068C471.378 611.08 470.685 611.866 469.793 612.429C468.906 612.991 467.872 613.273 466.69 613.273ZM466.69 611.466C467.588 611.466 468.327 611.236 468.906 610.776C469.486 610.315 469.915 609.71 470.193 608.96C470.472 608.21 470.611 607.398 470.611 606.523C470.611 605.648 470.472 604.832 470.193 604.077C469.915 603.321 469.486 602.71 468.906 602.244C468.327 601.778 467.588 601.545 466.69 601.545C465.793 601.545 465.054 601.778 464.474 602.244C463.895 602.71 463.466 603.321 463.188 604.077C462.909 604.832 462.77 605.648 462.77 606.523C462.77 607.398 462.909 608.21 463.188 608.96C463.466 609.71 463.895 610.315 464.474 610.776C465.054 611.236 465.793 611.466 466.69 611.466ZM481.386 599.909V601.614H474.602V599.909H481.386ZM476.579 596.773H478.59V609.25C478.59 609.818 478.673 610.244 478.837 610.528C479.008 610.807 479.224 610.994 479.485 611.091C479.752 611.182 480.033 611.227 480.329 611.227C480.55 611.227 480.732 611.216 480.874 611.193C481.016 611.165 481.13 611.142 481.215 611.125L481.624 612.932C481.488 612.983 481.298 613.034 481.053 613.085C480.809 613.142 480.499 613.17 480.124 613.17C479.556 613.17 478.999 613.048 478.454 612.804C477.914 612.56 477.465 612.188 477.107 611.688C476.755 611.188 476.579 610.557 476.579 609.795V596.773ZM505.275 595.545V613H503.229L493.718 599.295H493.548V613H491.434V595.545H493.479L503.025 609.284H503.195V595.545H505.275ZM514.55 613.273C513.368 613.273 512.331 612.991 511.439 612.429C510.553 611.866 509.859 611.08 509.359 610.068C508.865 609.057 508.618 607.875 508.618 606.523C508.618 605.159 508.865 603.969 509.359 602.952C509.859 601.935 510.553 601.145 511.439 600.582C512.331 600.02 513.368 599.739 514.55 599.739C515.732 599.739 516.766 600.02 517.652 600.582C518.544 601.145 519.237 601.935 519.732 602.952C520.232 603.969 520.482 605.159 520.482 606.523C520.482 607.875 520.232 609.057 519.732 610.068C519.237 611.08 518.544 611.866 517.652 612.429C516.766 612.991 515.732 613.273 514.55 613.273ZM514.55 611.466C515.447 611.466 516.186 611.236 516.766 610.776C517.345 610.315 517.774 609.71 518.053 608.96C518.331 608.21 518.47 607.398 518.47 606.523C518.47 605.648 518.331 604.832 518.053 604.077C517.774 603.321 517.345 602.71 516.766 602.244C516.186 601.778 515.447 601.545 514.55 601.545C513.652 601.545 512.913 601.778 512.334 602.244C511.754 602.71 511.325 603.321 511.047 604.077C510.768 604.832 510.629 605.648 510.629 606.523C510.629 607.398 510.768 608.21 511.047 608.96C511.325 609.71 511.754 610.315 512.334 610.776C512.913 611.236 513.652 611.466 514.55 611.466ZM529.245 599.909V601.614H522.461V599.909H529.245ZM524.438 596.773H526.45V609.25C526.45 609.818 526.532 610.244 526.697 610.528C526.867 610.807 527.083 610.994 527.344 611.091C527.612 611.182 527.893 611.227 528.188 611.227C528.41 611.227 528.592 611.216 528.734 611.193C528.876 611.165 528.989 611.142 529.075 611.125L529.484 612.932C529.347 612.983 529.157 613.034 528.913 613.085C528.668 613.142 528.359 613.17 527.984 613.17C527.415 613.17 526.859 613.048 526.313 612.804C525.773 612.56 525.325 612.188 524.967 611.688C524.614 611.188 524.438 610.557 524.438 609.795V596.773ZM537.619 613.273C536.357 613.273 535.269 612.994 534.354 612.438C533.445 611.875 532.744 611.091 532.249 610.085C531.761 609.074 531.516 607.898 531.516 606.557C531.516 605.216 531.761 604.034 532.249 603.011C532.744 601.983 533.431 601.182 534.312 600.608C535.198 600.028 536.232 599.739 537.414 599.739C538.096 599.739 538.769 599.852 539.434 600.08C540.099 600.307 540.704 600.676 541.249 601.188C541.795 601.693 542.229 602.364 542.553 603.199C542.877 604.034 543.039 605.062 543.039 606.284V607.136H532.948V605.398H540.994C540.994 604.659 540.846 604 540.55 603.42C540.261 602.841 539.846 602.384 539.306 602.048C538.772 601.713 538.141 601.545 537.414 601.545C536.613 601.545 535.92 601.744 535.335 602.142C534.755 602.534 534.309 603.045 533.996 603.676C533.684 604.307 533.528 604.983 533.528 605.705V606.864C533.528 607.852 533.698 608.69 534.039 609.378C534.386 610.06 534.866 610.58 535.479 610.938C536.093 611.29 536.806 611.466 537.619 611.466C538.147 611.466 538.624 611.392 539.05 611.244C539.482 611.091 539.854 610.864 540.167 610.562C540.479 610.256 540.721 609.875 540.891 609.42L542.835 609.966C542.63 610.625 542.286 611.205 541.803 611.705C541.32 612.199 540.724 612.585 540.013 612.864C539.303 613.136 538.505 613.273 537.619 613.273Z" fill="white"/>
<line x1="406" y1="410" x2="406" y2="644" stroke="#515562" stroke-width="2"/>
<line x1="406" y1="10" x2="406" y2="410" stroke="#515562" stroke-width="2"/>
<path d="M207 405L207 15" stroke="#274B4C" stroke-width="2"/>
<path d="M12 210L402 210" stroke="#274B4C" stroke-width="2"/>
<path d="M12 110L402 110" stroke="#274B4C" stroke-width="2"/>
<path d="M12 61L402 61" stroke="#274B4C" stroke-opacity="0.34" stroke-width="2"/>
<path d="M12 159L402 159" stroke="#274B4C" stroke-opacity="0.34" stroke-width="2"/>
<path d="M12 256H402" stroke="#274B4C" stroke-opacity="0.34" stroke-width="2"/>
<path d="M12 354H402" stroke="#274B4C" stroke-opacity="0.34" stroke-width="2"/>
<path d="M12 305H402" stroke="#274B4C" stroke-width="2"/>
<path d="M110 405L110 15" stroke="#274B4C" stroke-width="2"/>
<path d="M61 405L61 15" stroke="#274B4C" stroke-opacity="0.34" stroke-width="2"/>
<path d="M159 405L159 15" stroke="#274B4C" stroke-opacity="0.34" stroke-width="2"/>
<path d="M256 405L256 15" stroke="#274B4C" stroke-opacity="0.34" stroke-width="2"/>
<path d="M353 405L353 15" stroke="#274B4C" stroke-opacity="0.34" stroke-width="2"/>
<path d="M305 405L305 15" stroke="#274B4C" stroke-width="2"/>
<path d="M196 599C196 596.791 197.791 595 200 595H215C217.209 595 219 596.791 219 599V614C219 616.209 217.209 618 215 618H200C197.791 618 196 616.209 196 614V599Z" fill="#D9D9D9"/>
<circle cx="207.5" cy="606.5" r="2.5" fill="#544C4C"/>
<circle cx="212.5" cy="612.5" r="2.5" fill="#544C4C"/>
<circle cx="202.5" cy="612.5" r="2.5" fill="#544C4C"/>
<circle cx="212.5" cy="600.5" r="2.5" fill="#544C4C"/>
<circle cx="202.5" cy="600.5" r="2.5" fill="#544C4C"/>
</g>
<defs>
<clipPath id="clip0_2_1194">
<rect width="836" height="654" fill="white"/>
</clipPath>
</defs>
</svg>
